<svg width="22" height="22" viewBox="0 0 22 22" fill="none" xmlns="http://www.w3.org/2000/svg">
<path d="M21.6071 20.4286H20.4286V4.32143C20.4286 4.10457 20.2518 3.92857 20.0357 3.92857H16.1763V0.392857C16.1763 0.176 16.0003 0 15.7834 0H6.21657C5.99971 0 5.82371 0.176 5.82371 0.392857V3.92857H1.96429C1.74743 3.92857 1.57143 4.10457 1.57143 4.32143V20.4286H0.392857C0.176 20.4286 0 20.6054 0 20.8214V21.6071C0 21.8232 0.176 22 0.392857 22H21.6071C21.8232 22 22 21.8232 22 21.6071V20.8214C22 20.6054 21.8232 20.4286 21.6071 20.4286ZM11 0.785714C12.3011 0.785714 13.3571 1.84093 13.3571 3.14286C13.3571 4.44479 12.3011 5.5 11 5.5C9.69886 5.5 8.64286 4.44479 8.64286 3.14286C8.64286 1.84093 9.69886 0.785714 11 0.785714ZM7.89407 6.85929H10.2245V9.18814H7.89407V6.85929ZM6.3415 16.9534H4.01107V14.6245H6.3415V16.9534ZM6.3415 13.0704H4.01107V10.7415H6.3415V13.0704ZM6.3415 9.18814H4.01107V6.85929H6.3415V9.18814ZM7.89407 10.7415H10.2245V13.0704H7.89407V10.7415ZM12.9415 20.4286H9.05929V16.9534H12.9415V20.4286ZM14.1059 13.0704H11.7747V10.7415H14.1059V13.0704ZM14.1059 9.18814H11.7747V6.85929H14.1059V9.18814ZM17.9889 16.9534H15.6593V14.6245H17.9889V16.9534ZM17.9889 13.0704H15.6593V10.7415H17.9889V13.0704ZM17.9889 9.18814H15.6593V6.85929H17.9889V9.18814Z"/>
<path d="M10.5381 4.71463H11.4621V3.60521H12.5716V2.68121H11.4621V1.57178H10.5381V2.68121H9.42871V3.60521H10.5381V4.71463Z"/>
</svg>
