<svg width="22" height="23" viewBox="0 0 22 23" fill="none" xmlns="http://www.w3.org/2000/svg">
<path d="M8.24994 0.0477473C8.40096 -0.0762656 8.64971 0.059068 8.63299 0.249976C8.64344 0.974499 8.64135 1.69902 8.63194 2.42355C8.81536 2.61497 9.0014 2.8033 9.18483 2.99421C9.27105 3.09815 9.41163 3.11668 9.53391 3.15733C9.99587 3.29009 10.4495 3.45373 10.9156 3.57259C11.4006 3.428 11.886 3.28134 12.3663 3.12131C12.6589 2.89541 12.9056 2.61342 13.181 2.36643C13.1737 1.69799 13.1763 1.02904 13.1778 0.36061C13.1841 0.263869 13.1643 0.146546 13.2458 0.0734761C13.3686 -0.0690615 13.6424 0.0132708 13.6539 0.203664C13.6706 0.99148 13.6445 1.78135 13.6659 2.56917C13.9554 3.13006 14.3212 3.64927 14.652 4.187C14.8423 4.47619 15.0455 4.75663 15.2425 5.04119C15.0722 5.39471 14.9682 5.77395 14.814 6.13415C14.6865 6.42026 14.6128 6.72643 14.4864 7.01305C14.2669 7.52711 14.1373 8.07411 13.8927 8.57788C13.7814 8.89022 13.6602 9.19794 13.5295 9.50257C14.9886 10.1962 16.2062 11.2881 17.2816 12.4645C18.597 13.9233 19.7069 15.5504 20.6941 17.2382C21.1623 18.043 21.6018 18.8648 22 19.7056C20.5514 20.6344 18.9722 21.3579 17.3423 21.9183C15.034 22.7035 12.5784 23.1157 10.1338 22.9716C7.52564 22.8229 4.97233 22.1123 2.59512 21.0625C1.70308 20.6627 0.827763 20.2232 0 19.7061C0.818879 17.9869 1.78722 16.3372 2.88202 14.7744C3.85871 13.3959 4.94986 12.0832 6.24062 10.9773C6.91057 10.4072 7.64061 9.89982 8.43806 9.51801C7.8418 8.04426 7.35528 6.52935 6.76216 5.05509C6.76895 4.98871 6.82173 4.93931 6.85204 4.8827C7.30564 4.19369 7.74356 3.49078 8.13445 2.76625C8.18148 2.01703 8.14385 1.26318 8.15483 0.511895C8.16946 0.358037 8.10414 0.157352 8.24994 0.0477473ZM9.73562 3.56024C9.83073 3.66162 9.9295 3.75939 10.0298 3.8551C10.1338 3.82011 10.2389 3.78872 10.3413 3.74858C10.1401 3.68426 9.93786 3.62302 9.73562 3.56024ZM11.4596 3.75424C11.5255 3.77328 11.5913 3.79283 11.6577 3.81187C11.7209 3.75167 11.7836 3.69146 11.8468 3.63074C11.7172 3.67139 11.5882 3.71204 11.4596 3.75424ZM10.2801 4.1165C10.4589 4.27653 10.6031 4.49883 10.8017 4.62079C11.006 4.44634 11.1926 4.25183 11.388 4.06762C11.2297 4.02491 11.0766 3.96624 10.9166 3.93074C10.6998 3.97602 10.4944 4.06093 10.2801 4.1165Z"/>
</svg>
