<svg width="52" height="52" viewBox="0 0 52 52" fill="none" xmlns="http://www.w3.org/2000/svg">
<circle cx="26" cy="26" r="26" fill="#FFA409"/>
<path fill-rule="evenodd" clip-rule="evenodd" d="M32.786 20.79L31.2123 19.245L26.121 24.2838C25.5523 23.6138 24.9735 22.945 24.416 22.3075L29.2673 17.4475C29.8935 16.8213 30.9485 16.8563 31.6223 17.5275L34.1285 20.015C34.801 20.6863 34.766 21.5913 34.1385 22.2188L28.8123 27.5625C28.416 27.0513 27.971 26.4988 27.4985 25.9238L32.786 20.79ZM35.8174 33.1475L35.8034 33.1524C35.1529 33.3778 33.8844 33.8173 32.4274 31.3525C30.9599 28.8725 29.0199 29.4488 29.0199 29.4488C28.9306 29.4642 28.8523 29.4914 28.7739 29.5186C28.7568 29.5245 28.7396 29.5305 28.7224 29.5363C26.5324 26.4175 20.3736 19.625 19.8311 19.0813C19.0524 18.3038 17.7449 17.5738 16.6511 18.72C15.6224 19.7975 16.1499 21.2038 16.9286 21.9825C17.4761 22.53 24.3061 28.72 27.4236 30.9025C27.3722 31.0378 27.3403 31.1796 27.3286 31.3238C27.3286 35.8813 31.9899 35.64 32.9536 35.4638C34.6724 35.1525 36.4636 32.9263 35.8174 33.1475ZM23.044 30.2575L22.7602 31.1975L23.3677 31.805L18.604 33.875L17.6665 32.9763L19.8177 28.4425L19.7952 29.325L21.0427 29.3075L22.109 28.2513C21.4465 27.6888 20.7865 27.1188 20.1565 26.5675L19.114 27.6113C19.114 27.6113 16.224 34.2613 16.0277 34.7988C15.8715 35.2238 16.4102 35.7625 16.7827 35.58C17.3827 35.2838 23.9577 32.43 23.9577 32.43L25.4177 30.965C24.8439 30.5176 24.2767 30.0618 23.7165 29.5975L23.044 30.2575Z" fill="white"/>
</svg>
