<svg width="55" height="77" viewBox="0 0 55 77" fill="none" xmlns="http://www.w3.org/2000/svg">
<path d="M27.1765 77C9.05753 53.5535 0 36.8714 0 26.95C-5.31802e-08 23.4109 0.702941 19.9064 2.06869 16.6367C3.43443 13.367 5.43624 10.396 7.9598 7.89347C10.4834 5.39093 13.4793 3.40581 16.7765 2.05145C20.0737 0.697083 23.6076 0 27.1765 0C30.7453 0 34.2793 0.697083 37.5765 2.05145C40.8737 3.40581 43.8696 5.39093 46.3931 7.89347C48.9167 10.396 50.9185 13.367 52.2843 16.6367C53.65 19.9064 54.3529 23.4109 54.3529 26.95C54.3529 36.8714 45.2954 53.5535 27.1765 77Z" fill="#FFA409"/>
</svg>
