<svg width="52" height="52" viewBox="0 0 52 52" fill="none" xmlns="http://www.w3.org/2000/svg">
<circle cx="26" cy="26" r="26" fill="#FFA409"/>
<path d="M36.6071 35.4286H35.4286V19.3214C35.4286 19.1046 35.2518 18.9286 35.0357 18.9286H31.1763V15.3929C31.1763 15.176 31.0003 15 30.7834 15H21.2166C20.9997 15 20.8237 15.176 20.8237 15.3929V18.9286H16.9643C16.7474 18.9286 16.5714 19.1046 16.5714 19.3214V35.4286H15.3929C15.176 35.4286 15 35.6054 15 35.8214V36.6071C15 36.8232 15.176 37 15.3929 37H36.6071C36.8232 37 37 36.8232 37 36.6071V35.8214C37 35.6054 36.8232 35.4286 36.6071 35.4286ZM26 15.7857C27.3011 15.7857 28.3571 16.8409 28.3571 18.1429C28.3571 19.4448 27.3011 20.5 26 20.5C24.6989 20.5 23.6429 19.4448 23.6429 18.1429C23.6429 16.8409 24.6989 15.7857 26 15.7857ZM22.8941 21.8593H25.2245V24.1881H22.8941V21.8593ZM21.3415 31.9534H19.0111V29.6245H21.3415V31.9534V31.9534ZM21.3415 28.0704H19.0111V25.7415H21.3415V28.0704V28.0704ZM21.3415 24.1881H19.0111V21.8593H21.3415V24.1881V24.1881ZM22.8941 25.7415H25.2245V28.0704H22.8941V25.7415ZM27.9415 35.4286H24.0593V31.9534H27.9415V35.4286ZM29.1059 28.0704H26.7747V25.7415H29.1059V28.0704ZM29.1059 24.1881H26.7747V21.8593H29.1059V24.1881ZM32.9889 31.9534H30.6593V29.6245H32.9889V31.9534ZM32.9889 28.0704H30.6593V25.7415H32.9889V28.0704ZM32.9889 24.1881H30.6593V21.8593H32.9889V24.1881Z" fill="white"/>
<path d="M25.5381 19.7146H26.4621V18.6052H27.5715V17.6812H26.4621V16.5718H25.5381V17.6812H24.4286V18.6052H25.5381V19.7146Z" fill="white"/>
</svg>
