<svg width="52" height="52" viewBox="0 0 52 52" fill="none" xmlns="http://www.w3.org/2000/svg">
<circle cx="26" cy="26" r="26" fill="#FFA409"/>
<path fill-rule="evenodd" clip-rule="evenodd" d="M35.4383 36.2142C35.4566 36.4123 35.4435 36.6131 35.4435 36.8422C35.7668 36.8422 36.2332 36.8422 36.5671 36.8422C36.5799 36.5654 36.5927 36.2877 36.6082 35.9571C37.5079 36.0516 38.2979 36.0817 39.1341 36.4123C39.1389 36.46 39.1438 36.5077 39.1492 36.556C38.9393 36.6262 38.7339 36.7362 38.5185 36.7608C37.2298 36.9069 35.9412 37.1087 34.6483 37.1528C31.2999 37.2673 27.9494 37.3706 24.6 37.3642C21.2039 37.3579 17.8039 37.2974 14.4241 36.8848C14.0507 36.8392 13.6824 36.7486 13.3139 36.6684C13.2282 36.6499 13.1522 36.5885 13 36.5101C13.4193 36.1765 13.869 36.1783 14.2847 36.1212C15.0437 36.0167 15.8088 35.9544 16.5727 35.8976C16.7981 35.8805 16.8984 35.7888 16.9829 35.5919C17.7179 33.88 18.0834 32.0879 18.1621 30.2335C18.2323 28.5891 18.122 26.9559 17.8075 25.3388C17.7944 25.271 17.7762 25.2045 17.7662 25.1611C17.3615 25.3042 16.9801 25.5005 16.576 25.5722C14.6572 25.9131 13.096 24.073 13.7268 22.2262C13.7964 22.0226 13.7845 21.8968 13.6508 21.7245C12.8359 20.679 12.9511 19.1974 13.9167 18.2901C14.0683 18.1479 14.1318 18.0176 14.127 17.8073C14.0905 16.1516 15.3287 15.001 16.9746 15.1295C17.0977 15.1392 17.2694 15.0629 17.3523 14.9687C18.4097 13.7685 19.9922 13.674 21.1863 14.7384C21.2705 14.8138 21.4649 14.8487 21.5688 14.8065C23.5132 14.0165 25.3904 15.4276 25.1932 17.5314C25.1822 17.6502 25.2606 17.8249 25.3557 17.8985C26.8063 19.0209 26.7996 20.9892 25.329 22.1037C25.1944 22.2058 25.0947 22.2784 25.126 22.4951C25.2773 23.5494 24.9078 24.4148 24.037 25.0134C23.1756 25.6059 22.2501 25.6159 21.3224 25.1295C21.2623 25.0979 21.1985 25.072 21.0724 25.0143C20.9599 25.6837 20.8281 26.3139 20.7515 26.9507C20.4084 29.806 20.6977 32.5975 21.6193 35.3251C21.7147 35.6077 21.8475 35.6803 22.1258 35.6618C22.5345 35.635 22.7675 35.6551 23.2191 35.6551C23.2191 36.054 23.2291 36.5104 23.2291 36.9237C23.57 36.9237 24.15 36.9237 24.4946 36.9237C24.4946 36.6031 24.4727 36.2461 24.4727 36.2461C24.4727 36.2461 24.5663 36.2439 24.5034 36.2327C24.5839 36.2525 24.5368 36.2157 24.5368 36.2157C24.5368 36.2157 24.5742 36.1397 24.583 36.2327C24.8954 36.2327 25.4198 36.2594 25.7434 36.2594C25.7565 36.0878 25.7614 35.8328 25.7799 35.5892C28.6464 35.6487 31.2744 35.694 34.1339 35.7538C34.1686 35.9197 34.1442 36.1847 34.1725 36.3172C34.4587 36.3172 35.1041 36.3302 35.3192 36.3302C35.3408 36.206 35.3141 35.8137 35.3141 35.8137C35.3141 35.8137 35.3554 35.8198 35.4253 35.8021" fill="white"/>
<path fill-rule="evenodd" clip-rule="evenodd" d="M36.9683 33.5095C36.758 33.5277 36.5973 33.5073 36.4049 33.5241C36.4049 34.3384 36.4049 35.1384 36.4049 35.9391C36.4049 36.0803 36.4061 36.2216 36.4068 36.3632C36.4083 36.8384 36.4286 36.7209 35.9735 36.7367C35.6836 36.747 35.5621 36.7585 35.5672 36.4598C35.5836 35.4942 35.5736 34.5283 35.5736 33.5323C35.4311 33.5323 35.3117 33.5323 35.1455 33.5323C35.1455 34.2667 35.1497 34.9947 35.1415 35.7227C35.14 35.8537 35.1081 36.0867 35.0568 36.0964C34.8441 36.1369 34.6159 36.1265 34.3995 36.0925C34.3591 36.0861 34.3281 35.888 34.3275 35.778C34.3211 35.0363 34.3239 34.2946 34.3239 33.5265C31.389 33.5265 28.4815 33.5265 25.5299 33.5265C25.5299 34.39 25.5299 35.2441 25.5299 36.0879C25.4539 36.1119 25.422 36.1287 25.3886 36.132C24.7013 36.2001 24.6946 36.1891 24.7013 35.5112C24.7074 34.854 24.7025 34.1965 24.7025 33.5216C24.5576 33.5216 24.4579 33.5216 24.3108 33.5216C24.3108 34.2244 24.3105 34.916 24.3114 35.6076C24.3117 35.891 24.2996 36.1754 24.3227 36.4565C24.3534 36.8281 24.1392 36.8357 23.859 36.8415C23.5752 36.8476 23.4634 36.7771 23.4707 36.469C23.4904 35.6079 23.4783 34.7458 23.4771 33.8844C23.4771 33.7696 23.4676 33.6541 23.4619 33.5222C23.3288 33.5089 23.2844 33.5131 23.076 33.5095C23.076 33.2555 23.0997 33.1136 23.1404 32.9303C23.5764 32.2995 24.0665 31.6761 24.0665 31.6761C24.0665 31.6761 24.7584 31.6827 25.3567 31.6827C28.874 31.6827 32.3911 31.6867 35.9081 31.6761C36.037 31.6754 36.2327 31.6761 36.2327 31.6761C36.2327 31.6761 36.3843 31.8742 36.4402 32.013C36.5869 32.3795 36.7784 32.7283 36.933 33.0917C36.9756 33.1926 36.9561 33.3539 36.9683 33.5095Z" fill="white"/>
<path fill-rule="evenodd" clip-rule="evenodd" d="M36.2314 29.6951C36.2314 29.9482 36.2314 30.0305 36.2314 30.3061C32.1783 30.3061 28.1332 30.3061 24.0662 30.3061C24.0662 30.05 24.0662 29.9688 24.0662 29.6951C28.1195 29.6951 32.1656 29.6951 36.2314 29.6951Z" fill="white"/>
<path fill-rule="evenodd" clip-rule="evenodd" d="M36.2314 30.6872C36.2314 30.9568 36.242 31.0753 36.242 31.3642C36.118 31.3706 35.9947 31.3834 35.8713 31.3834C32.0626 31.3846 28.259 31.3512 24.4505 31.3657C24.2883 31.3663 24.0777 31.3721 24.0777 31.3721C24.0777 31.3721 24.0686 31.2518 24.0671 31.0908C24.0656 30.9087 24.0671 30.6638 24.0671 30.6638C24.0671 30.6638 24.2995 30.6632 24.4408 30.6638C28.2496 30.6775 32.058 30.6714 35.8668 30.6714C35.9819 30.6714 36.0965 30.6812 36.2314 30.6872Z" fill="white"/>
<path fill-rule="evenodd" clip-rule="evenodd" d="M24.1072 28.5916C28.1569 28.5916 32.1774 28.5916 36.2247 28.5916C36.2247 28.8589 36.2222 29.0303 36.2222 29.3229C36.0816 29.3229 35.9555 29.3229 35.8294 29.3229C32.1008 29.3226 28.372 29.3229 24.6438 29.3223C24.3332 29.3223 24.0981 29.3229 24.0981 29.3229C24.0981 29.3229 24.0862 29.0194 24.1072 28.5916Z" fill="white"/>
</svg>
