<svg width="52" height="52" viewBox="0 0 52 52" fill="none" xmlns="http://www.w3.org/2000/svg">
<circle cx="26" cy="26" r="26" fill="#FFA409"/>
<path d="M22.3038 15C22.1373 15 22.0029 15.1166 22.0029 15.2611V16.1936H19.9338C19.5894 16.1936 19.3121 16.4513 19.3121 16.7713V29.3126C19.3121 31.0839 22.0599 32.5102 25.4732 32.5102H27.5266C30.9398 32.5102 33.6877 31.0839 33.6877 29.3126V16.7713C33.6877 16.4514 33.4104 16.1936 33.066 16.1936H30.9968V15.2611C30.9968 15.1166 30.8624 15 30.696 15H22.3038ZM24.0587 15.9509C24.177 15.9509 24.2904 15.9975 24.3741 16.0804C24.4578 16.1634 24.5049 16.2759 24.505 16.3933C24.505 16.4514 24.4934 16.509 24.471 16.5628C24.4486 16.6165 24.4157 16.6653 24.3743 16.7064C24.3328 16.7475 24.2836 16.7802 24.2295 16.8024C24.1754 16.8247 24.1173 16.8361 24.0587 16.8361C23.9404 16.836 23.827 16.7893 23.7435 16.7063C23.6599 16.6232 23.6129 16.5107 23.6129 16.3933C23.613 16.276 23.66 16.1635 23.7436 16.0806C23.8272 15.9977 23.9405 15.951 24.0587 15.9509ZM28.9407 15.9509C29.059 15.9509 29.1724 15.9975 29.2561 16.0804C29.3398 16.1634 29.3869 16.2759 29.387 16.3933C29.387 16.4514 29.3754 16.509 29.353 16.5628C29.3306 16.6165 29.2977 16.6653 29.2563 16.7064C29.2148 16.7475 29.1656 16.7802 29.1115 16.8024C29.0574 16.8247 28.9993 16.8361 28.9407 16.8361C28.8224 16.836 28.7091 16.7893 28.6255 16.7063C28.5419 16.6232 28.4949 16.5107 28.4949 16.3933C28.495 16.276 28.542 16.1635 28.6256 16.0806C28.7092 15.9977 28.8225 15.951 28.9407 15.9509V15.9509ZM20.8849 17.8135H32.1111C32.3136 17.8135 32.4762 17.9626 32.4763 18.148L32.4801 23.0759V24.6915C32.4801 26.2704 29.8136 27.542 26.5016 27.542C23.1897 27.542 20.5236 26.2707 20.5236 24.6915V23.0759C20.5429 21.1064 20.5198 20.0829 20.5198 18.148C20.5198 17.9626 20.6827 17.8135 20.885 17.8135H20.8849ZM18.4806 18.834C18.3513 18.836 18.2281 18.8888 18.138 18.9809C18.0479 19.073 17.9983 19.1968 18 19.3251V22.273C17.9991 22.3372 18.0111 22.4009 18.0352 22.4605C18.0593 22.5201 18.0951 22.5743 18.1406 22.62C18.186 22.6657 18.2401 22.702 18.2998 22.7268C18.3595 22.7516 18.4236 22.7643 18.4882 22.7643C18.5529 22.7643 18.617 22.7516 18.6767 22.7268C18.7364 22.702 18.7905 22.6657 18.8359 22.62C18.8814 22.5743 18.9172 22.5201 18.9413 22.4605C18.9654 22.4009 18.9774 22.3372 18.9764 22.273V19.3251C18.9773 19.2603 18.9651 19.1959 18.9405 19.1359C18.9159 19.0759 18.8794 19.0213 18.8332 18.9755C18.7869 18.9297 18.7319 18.8936 18.6714 18.8693C18.6108 18.845 18.5459 18.833 18.4806 18.834V18.834ZM34.5046 18.834C34.3752 18.8359 34.2519 18.8887 34.1617 18.9808C34.0715 19.0728 34.0218 19.1967 34.0236 19.3251V22.273C34.0226 22.3372 34.0346 22.4009 34.0587 22.4605C34.0828 22.5201 34.1186 22.5743 34.1641 22.62C34.2095 22.6657 34.2636 22.702 34.3233 22.7268C34.383 22.7516 34.4471 22.7643 34.5118 22.7643C34.5764 22.7643 34.6405 22.7516 34.7002 22.7268C34.7599 22.702 34.814 22.6657 34.8594 22.62C34.9049 22.5743 34.9407 22.5201 34.9648 22.4605C34.9889 22.4009 35.0009 22.3372 35 22.273V19.3251C35.0008 19.2603 34.9886 19.196 34.9641 19.136C34.9395 19.076 34.903 19.0215 34.8568 18.9757C34.8106 18.9299 34.7557 18.8938 34.6952 18.8694C34.6347 18.8451 34.5699 18.8331 34.5046 18.834ZM23.8667 29.3973H29.1329C29.2823 29.3973 29.4028 29.509 29.4028 29.648V29.8666C29.4028 30.0056 29.2823 30.1173 29.1329 30.1173H23.8667C23.7173 30.1173 23.5973 30.0056 23.5973 29.8666V29.648C23.5973 29.509 23.7173 29.3973 23.8667 29.3973V29.3973ZM31.5205 32.1356C31.4399 32.1344 31.3603 32.1529 31.2887 32.1896C31.2172 32.2263 31.1558 32.28 31.1102 32.3459C31.0646 32.4118 31.0362 32.4878 31.0274 32.5673C31.0186 32.6468 31.0298 32.7271 31.0599 32.8013L31.3565 33.562H21.632L21.9285 32.8013C21.9591 32.726 21.9701 32.6444 21.9606 32.5638C21.9511 32.4832 21.9214 32.4063 21.8741 32.34C21.8268 32.2738 21.7636 32.2205 21.6901 32.1848C21.6167 32.1492 21.5354 32.1324 21.4537 32.1361C21.3579 32.1405 21.2656 32.1728 21.1882 32.2289C21.1108 32.285 21.0517 32.3625 21.0184 32.4517L19.1171 37.3255C19.0929 37.385 19.0809 37.4488 19.0817 37.513C19.0825 37.5771 19.0962 37.6405 19.122 37.6994C19.1477 37.7583 19.185 37.8116 19.2316 37.856C19.2783 37.9005 19.3334 37.9354 19.3937 37.9585C19.4541 37.9817 19.5184 37.9927 19.5831 37.991C19.6478 37.9893 19.7115 37.9748 19.7704 37.9484C19.8294 37.922 19.8825 37.8843 19.9267 37.8374C19.9709 37.7905 20.0052 37.7353 20.0277 37.6751L20.3095 36.9532H32.6795L32.9612 37.6751C32.9828 37.7365 33.0166 37.7929 33.0606 37.8411C33.1047 37.8892 33.158 37.9281 33.2174 37.9553C33.2769 37.9826 33.3413 37.9977 33.4067 37.9998C33.4722 38.0018 33.5374 37.9908 33.5985 37.9673C33.6596 37.9439 33.7153 37.9084 33.7623 37.8632C33.8093 37.8179 33.8466 37.7637 33.8721 37.7038C33.8976 37.6439 33.9106 37.5796 33.9105 37.5146C33.9104 37.4496 33.8971 37.3853 33.8714 37.3255L31.9705 32.4517C31.9363 32.3601 31.8751 32.281 31.7948 32.2246C31.7145 32.1682 31.6188 32.1372 31.5205 32.1356V32.1356ZM21.2539 34.531H31.7345L32.3014 35.9843H20.6871L21.2539 34.531Z" fill="white"/>
</svg>
