<svg width="25" height="24" viewBox="0 0 25 24" fill="none" xmlns="http://www.w3.org/2000/svg">
<path d="M19.2719 16.3415V18.0583C19.2719 18.2409 19.1199 18.3889 18.9322 18.3889H17.4474V19.8338C17.4474 20.0164 17.2953 20.1643 17.1077 20.1643H15.3434C15.1557 20.1643 15.0037 20.0164 15.0037 19.8338V18.3889H13.4891C13.3015 18.3889 13.1494 18.2409 13.1494 18.0583V16.3415C13.1494 16.1589 13.3015 16.0109 13.4891 16.0109H15.0037V14.5371C15.0037 14.3545 15.1557 14.2065 15.3434 14.2065H17.1077C17.2953 14.2065 17.4474 14.3545 17.4474 14.5371V16.0109H18.9322C19.1199 16.0109 19.2719 16.1589 19.2719 16.3415ZM25 6.39105V10.5625C25 10.5625 24.9952 10.7885 24.979 10.8398C24.9133 11.0489 24.8606 11.1426 24.5537 11.2067C24.4914 11.2195 24.2821 11.2266 24.2821 11.2266H23.539V23.0743C23.539 23.5845 23.1123 24 22.5877 24H2.41225C1.88795 24 1.46098 23.5848 1.46098 23.0743V11.2266H0.652225C0.652225 11.2266 0.460064 11.1988 0.424157 11.1843C0.262293 11.1191 0.159059 11.0457 0.0561053 10.8658C-5.43423e-08 10.7678 0 10.563 0 10.563V6.39978C0.00280527 6.26848 0.0297359 6.15028 0.0802308 6.03917L2.38083 0.574626C2.52755 0.225483 2.87316 0 3.26085 0H21.7389C22.1266 0 22.4722 0.225483 22.6189 0.574626L24.924 6.049C24.9703 6.15028 24.9972 6.26875 25 6.39105ZM21.2527 0.793558L23.5009 6.40879H24.1848V6.40005C24.1845 6.39132 24.1809 6.37467 24.1741 6.35965L21.8648 0.875452C21.8438 0.82577 21.7944 0.793558 21.7392 0.793558H21.2527ZM17.1744 0.793558L18.2668 6.40879H19.6464L18.3002 0.793558H17.1744ZM11.9387 0.793558L11.6851 6.40879H13.3155L13.0619 0.793558H11.9387ZM6.69954 0.793558L5.3533 6.40879H6.73293L7.8253 0.793558H6.69954ZM0.815211 6.40879H1.49914L3.74728 0.793558H3.26085C3.2053 0.793558 3.15593 0.82577 3.13517 0.875452C3.13517 0.875452 0.815492 6.39105 0.815211 6.40879ZM9.03858 13.1981C9.03858 12.906 8.76759 12.6691 8.4332 12.6691H4.50695C4.17256 12.6691 3.90157 12.906 3.90157 13.1981V23.0104H9.03858V13.1981ZM20.9747 13.1981C20.9747 12.906 20.7312 12.6691 20.4311 12.6691H11.99C11.6898 12.6691 11.4463 12.906 11.4463 13.1981V21.1727C11.4463 21.4648 11.6898 21.7018 11.99 21.7018H20.4313C20.7315 21.7018 20.975 21.4648 20.975 21.1727V13.1981H20.9747ZM24.1848 10.3769V7.67761H0.812126L0.805393 10.3744L2.37382 10.3782C2.70821 10.3782 2.9792 10.1413 2.9792 9.84918V8.61148H4.63262V9.84918C4.63262 10.1413 4.90361 10.3782 5.238 10.3782H8.16979C8.50417 10.3782 8.77516 10.1413 8.77516 9.84918V8.61148H10.4286V9.84918C10.4286 10.1413 10.6996 10.3782 11.034 10.3782H13.9655C14.2999 10.3782 14.5709 10.1413 14.5709 9.84918V8.61148H16.2243V9.84918C16.2243 10.1413 16.4953 10.3782 16.8297 10.3782H19.7614C20.0958 10.3782 20.3668 10.1413 20.3668 9.84918V8.61148H22.0202V9.84918C22.0202 10.1413 22.2912 10.3782 22.6256 10.3782L24.1848 10.3769Z"/>
</svg>
