<svg width="24" height="18" viewBox="0 0 24 18" fill="none" xmlns="http://www.w3.org/2000/svg">
<path fill-rule="evenodd" clip-rule="evenodd" d="M0.980933 0.678822C1.13467 0.578238 1.28371 0.4705 1.44174 0.378298C1.87821 0.124181 2.35394 0.00417554 2.85727 0.00417551C5.64499 0.00253999 8.43333 0.00397057 11.2213 0.0045839C11.2556 0.0045839 11.2926 0.0113305 11.2926 0.0113305C11.2926 1.59614 11.2926 3.17154 11.2924 4.77536C10.0576 4.94791 9.02375 5.56102 8.28777 6.63677C7.74744 7.42652 7.52726 8.31235 7.58123 9.26912C7.68406 11.0823 9.06238 12.8981 11.2961 13.2113C11.2961 14.7912 11.2963 16.3672 11.2963 17.9733C11.2472 17.9745 11.1542 17.978 11.0604 17.9782C8.40512 17.979 5.74946 17.9753 3.0938 17.9819C2.34842 17.9839 1.65742 17.8445 1.07681 17.3412C1.05228 17.3199 1.01303 17.3154 0.981138 17.3031C0.881167 17.2032 0.781196 17.1032 0.68143 17.0034C-0.249992 15.8884 0.0654577 14.5565 0.00555732 13.2405C1.2835 13.2493 2.53098 13.2579 3.71468 13.2661C3.71448 10.3993 3.71448 7.56656 3.71468 4.70054C2.51586 4.70135 1.27532 4.70217 0.0572797 4.70299C0.0450134 4.01444 0.0192544 3.32834 0.0268186 2.64327C0.0321341 2.16734 0.196093 1.7282 0.450211 1.32567C0.524831 1.20811 0.604562 1.09404 0.681635 0.97812C0.781401 0.878354 0.881167 0.778588 0.980933 0.678822Z"/>
<path fill-rule="evenodd" clip-rule="evenodd" d="M22.9972 0.978044C23.0702 1.08578 23.1464 1.19189 23.2159 1.30187C23.4649 1.69603 23.641 2.12474 23.6473 2.59106C23.6575 3.28738 23.6264 3.98411 23.6129 4.67593C22.408 4.6747 21.1603 4.67368 19.9453 4.67225C19.9455 7.56566 19.9457 10.3945 19.9457 13.2313C21.1433 13.228 22.3906 13.2245 23.698 13.2206C23.6657 14.0969 23.7107 14.9248 23.5876 15.7266C23.3977 16.9637 22.2957 17.8771 21.0432 17.9661C20.8937 17.9765 20.7434 17.9787 20.5936 17.9785C17.9459 17.9791 15.2986 17.9789 12.6512 17.9798C12.5547 17.9802 12.458 17.9955 12.4024 18C12.4022 16.3905 12.4022 14.8167 12.4022 13.2049C13.6425 13.0293 14.6933 12.3984 15.4295 11.2844C15.958 10.4844 16.1655 9.59369 16.0927 8.63938C15.9539 6.82907 14.5678 5.07703 12.3925 4.77201C12.3919 3.19191 12.3913 1.61671 12.3911 0.0100277C12.4287 0.0092099 12.5217 0.00450834 12.6146 0.00409945C15.2886 0.00369051 17.9625 0.00593864 20.6363 9.86871e-06C21.3647 -0.00142122 22.0351 0.152521 22.6014 0.639084C22.6263 0.660346 22.6652 0.665662 22.6977 0.678541C22.7972 0.778103 22.8974 0.878278 22.9972 0.978044Z"/>
<path fill-rule="evenodd" clip-rule="evenodd" d="M23.5997 12.2741C22.7112 12.2741 21.7861 12.2743 20.8751 12.2747C20.8751 10.0905 20.8753 7.89583 20.8753 5.70752C21.7849 5.70936 22.7089 5.71099 23.6036 5.71304C23.6021 7.88602 23.6009 10.0776 23.5997 12.2741Z"/>
<path fill-rule="evenodd" clip-rule="evenodd" d="M12.3521 5.7564C13.912 5.922 15.1967 7.47327 15.1439 9.09447C15.0881 10.8054 13.6579 12.1081 12.3521 12.2134C12.3519 10.0658 12.3521 7.91731 12.3521 5.7564Z"/>
<path fill-rule="evenodd" clip-rule="evenodd" d="M11.3165 5.76662C11.3167 7.91343 11.3176 10.0621 11.3176 12.2087C10.0719 12.1345 8.58014 10.8316 8.53373 9.07729C8.48671 7.31503 9.91001 5.90196 11.3165 5.76662Z"/>
<path fill-rule="evenodd" clip-rule="evenodd" d="M2.81169 5.71551C2.81067 7.90035 2.80985 10.0862 2.80883 12.253C1.89152 12.2524 0.962138 12.2512 0.0568848 12.2508C0.0570892 10.0864 0.0568841 7.89381 0.0570885 5.71143C0.958253 5.71224 1.88211 5.71367 2.81169 5.71551Z"/>
</svg>
