<svg xmlns="http://www.w3.org/2000/svg" viewBox="0 0 674.25 188.12"><defs><style>.cls-1{fill:#ff9600;}.cls-2{fill:#fff;}</style></defs><title>Asset 1</title><g id="Layer_2" data-name="Layer 2"><g id="Layer_1-2" data-name="Layer 1"><circle class="cls-1" cx="94.06" cy="94.06" r="28.22"/><path class="cls-2" d="M146.43,125.5a61.15,61.15,0,1,1,0-62.87l28.28-17a94.06,94.06,0,1,0,0,96.83Z"/><path class="cls-2" d="M273.92,74.88h13.83v4.84A14.61,14.61,0,0,1,300,74c4,0,8.21,1,11.42,4.16s3.63,6.57,3.63,10.8v24.56H301.24V94c0-2.25.09-5.62-1.73-7.52a5.77,5.77,0,0,0-4.41-1.65,7.55,7.55,0,0,0-5.1,1.82,8.88,8.88,0,0,0-2.25,6.13v20.76H273.92Z"/><path class="cls-2" d="M339.79,86.2v27.33H326V86.2h-4.41V74.88H326V56.93h13.83V74.88h7.87V86.2Z"/><path class="cls-2" d="M455.26,56.93v56.6H441.42V56.93Z"/><path class="cls-2" d="M641,56.93V88.8L654,74.88h18.76L654.54,92.69l19.71,20.84H655.06L641,97.71v15.82H627.13V56.93Z"/><path class="cls-2" d="M211.57,104a9.73,9.73,0,1,1,6.91-16.56V75.83a19.82,19.82,0,0,0-9-2.16,22.3,22.3,0,0,0-15.57,5.88,21,21,0,0,0-6.22,15,20.21,20.21,0,0,0,6,14.44,21.37,21.37,0,0,0,15.22,5.89,20.58,20.58,0,0,0,9.6-2.16V101.08h0A9.7,9.7,0,0,1,211.57,104Z"/><path class="cls-2" d="M418.1,74.88V78.6a15.28,15.28,0,0,0-11.59-5A19.89,19.89,0,0,0,392.59,79c-3.11,3.11-6,8.21-6,15.47a19.54,19.54,0,0,0,5.53,14.19,18.52,18.52,0,0,0,13.92,6.14c3.81,0,8.82-1.13,12-5.54v4.24h13.84V74.88ZM408.82,104a9.73,9.73,0,1,1,9.73-9.72A9.73,9.73,0,0,1,408.82,104Z"/><path class="cls-2" d="M524.24,79.2a19.21,19.21,0,0,0-13.74-5.62,14.44,14.44,0,0,0-11.85,5.54V74.88H484.81v56.88h13.84V109.81a16.45,16.45,0,0,0,12,5,18.56,18.56,0,0,0,13.23-5.37,21.92,21.92,0,0,0,.34-30.26ZM507.92,104a9.73,9.73,0,1,1,9.73-9.72A9.72,9.72,0,0,1,507.92,104Z"/><path class="cls-2" d="M568,74.88V78.6a15.29,15.29,0,0,0-11.59-5A19.89,19.89,0,0,0,542.47,79a21.38,21.38,0,0,0-6,15.47A19.51,19.51,0,0,0,542,108.69,18.5,18.5,0,0,0,556,114.83c3.8,0,8.82-1.13,12-5.54v4.24h13.83V74.88ZM558.71,104a9.73,9.73,0,1,1,9.16-12.88.45.45,0,0,1,0,.11,8.6,8.6,0,0,1,.38,1.43c0,.22,0,.42.06.63a8.1,8.1,0,0,1,.1,1A9.72,9.72,0,0,1,558.71,104Z"/><path class="cls-2" d="M366.67,95.31a9.69,9.69,0,0,1,15.39-7.88v-13c-1.82-.09-2.42-.18-2.76-.18a15.12,15.12,0,0,0-7.18,1.56,12.46,12.46,0,0,0-5.45,5.36V74.88H352.83v38.65h13.84V95.31Z"/><path class="cls-2" d="M605.13,95.31a9.7,9.7,0,0,1,15.4-7.88v-13c-1.82-.09-2.42-.18-2.77-.18a15.11,15.11,0,0,0-7.17,1.56,12.54,12.54,0,0,0-5.46,5.36V74.88H591.3v38.65h13.83Z"/><path class="cls-2" d="M265.88,96.75h1.44V95.29c0-4.33-.69-11.07-6.14-16.26-4.58-4.32-10.37-5.27-14.87-5.27-7.61,0-12.63,2.5-15.82,5.62-3.38,3.28-5.8,8.47-5.8,15a20.2,20.2,0,0,0,5.71,14.6c4.75,4.76,10.89,5.89,16,5.89,8.39,0,12.89-2.6,15.74-5.37a17.32,17.32,0,0,0,4.67-7.95H253.69a7.51,7.51,0,0,1-7,4.39c-5.06,0-7.77-3.91-8.41-9.13h27.59ZM246.7,82.58c3.93,0,6.49,2.53,7.71,6.21H239C240.2,85.11,242.76,82.58,246.7,82.58Z"/></g></g></svg>