<svg width="52" height="52" viewBox="0 0 52 52" fill="none" xmlns="http://www.w3.org/2000/svg">
<circle cx="26" cy="26" r="26" fill="#FFA409"/>
<path d="M33.2719 30.3415V32.0583C33.2719 32.2409 33.1199 32.3889 32.9322 32.3889H31.4474V33.8338C31.4474 34.0164 31.2953 34.1643 31.1077 34.1643H29.3434C29.1557 34.1643 29.0037 34.0164 29.0037 33.8338V32.3889H27.4891C27.3015 32.3889 27.1494 32.2409 27.1494 32.0583V30.3415C27.1494 30.1589 27.3015 30.0109 27.4891 30.0109H29.0037V28.5371C29.0037 28.3545 29.1557 28.2065 29.3434 28.2065H31.1077C31.2953 28.2065 31.4474 28.3545 31.4474 28.5371V30.0109H32.9322C33.1199 30.0109 33.2719 30.1589 33.2719 30.3415ZM39 20.391V24.5625C39 24.5625 38.9952 24.7885 38.979 24.8398C38.9133 25.0489 38.8606 25.1426 38.5537 25.2067C38.4914 25.2195 38.2821 25.2266 38.2821 25.2266H37.539V37.0743C37.539 37.5845 37.1123 38 36.5877 38H16.4123C15.8879 38 15.461 37.5848 15.461 37.0743V25.2266H14.6522C14.6522 25.2266 14.4601 25.1988 14.4242 25.1843C14.2623 25.1191 14.1591 25.0457 14.0561 24.8658C14 24.7678 14 24.563 14 24.563V20.3998C14.0028 20.2685 14.0297 20.1503 14.0802 20.0392L16.3808 14.5746C16.5275 14.2255 16.8732 14 17.2608 14H35.7389C36.1266 14 36.4722 14.2255 36.6189 14.5746L38.924 20.049C38.9703 20.1503 38.9972 20.2688 39 20.391ZM35.2527 14.7936L37.5009 20.4088H38.1848V20.4001C38.1845 20.3913 38.1809 20.3747 38.1741 20.3597L35.8648 14.8755C35.8438 14.8258 35.7944 14.7936 35.7392 14.7936H35.2527ZM31.1744 14.7936L32.2668 20.4088H33.6464L32.3002 14.7936H31.1744ZM25.9387 14.7936L25.6851 20.4088H27.3155L27.0619 14.7936H25.9387ZM20.6995 14.7936L19.3533 20.4088H20.7329L21.8253 14.7936H20.6995ZM14.8152 20.4088H15.4991L17.7473 14.7936H17.2608C17.2053 14.7936 17.1559 14.8258 17.1352 14.8755C17.1352 14.8755 14.8155 20.391 14.8152 20.4088ZM23.0386 27.1981C23.0386 26.906 22.7676 26.6691 22.4332 26.6691H18.5069C18.1726 26.6691 17.9016 26.906 17.9016 27.1981V37.0104H23.0386V27.1981ZM34.9747 27.1981C34.9747 26.906 34.7312 26.6691 34.4311 26.6691H25.99C25.6898 26.6691 25.4463 26.906 25.4463 27.1981V35.1727C25.4463 35.4648 25.6898 35.7018 25.99 35.7018H34.4313C34.7315 35.7018 34.975 35.4648 34.975 35.1727V27.1981H34.9747ZM38.1848 24.3769V21.6776H14.8121L14.8054 24.3744L16.3738 24.3782C16.7082 24.3782 16.9792 24.1413 16.9792 23.8492V22.6115H18.6326V23.8492C18.6326 24.1413 18.9036 24.3782 19.238 24.3782H22.1698C22.5042 24.3782 22.7752 24.1413 22.7752 23.8492V22.6115H24.4286V23.8492C24.4286 24.1413 24.6996 24.3782 25.034 24.3782H27.9655C28.2999 24.3782 28.5709 24.1413 28.5709 23.8492V22.6115H30.2243V23.8492C30.2243 24.1413 30.4953 24.3782 30.8297 24.3782H33.7614C34.0958 24.3782 34.3668 24.1413 34.3668 23.8492V22.6115H36.0202V23.8492C36.0202 24.1413 36.2912 24.3782 36.6256 24.3782L38.1848 24.3769Z" fill="white"/>
</svg>
