<svg width="52" height="52" viewBox="0 0 52 52" fill="none" xmlns="http://www.w3.org/2000/svg">
<circle cx="26" cy="26" r="26" fill="#FFA409"/>
<path fill-rule="evenodd" clip-rule="evenodd" d="M14.9809 17.6788C15.1347 17.5782 15.2837 17.4705 15.4417 17.3783C15.8782 17.1242 16.3539 17.0042 16.8573 17.0042C19.645 17.0025 22.4333 17.004 25.2213 17.0046C25.2556 17.0046 25.2926 17.0113 25.2926 17.0113C25.2926 18.5961 25.2926 20.1715 25.2924 21.7754C24.0576 21.9479 23.0237 22.561 22.2878 23.6368C21.7474 24.4265 21.5273 25.3124 21.5812 26.2691C21.6841 28.0823 23.0624 29.8981 25.2961 30.2113C25.2961 31.7912 25.2963 33.3672 25.2963 34.9733C25.2472 34.9745 25.1542 34.978 25.0604 34.9782C22.4051 34.979 19.7495 34.9753 17.0938 34.9819C16.3484 34.9839 15.6574 34.8445 15.0768 34.3412C15.0523 34.3199 15.013 34.3154 14.9811 34.3031C14.8812 34.2032 14.7812 34.1032 14.6814 34.0034C13.75 32.8884 14.0655 31.5565 14.0056 30.2405C15.2835 30.2493 16.531 30.2579 17.7147 30.2661C17.7145 27.3993 17.7145 24.5666 17.7147 21.7005C16.5159 21.7014 15.2753 21.7022 14.0573 21.703C14.045 21.0144 14.0193 20.3283 14.0268 19.6433C14.0321 19.1673 14.1961 18.7282 14.4502 18.3257C14.5248 18.2081 14.6046 18.094 14.6816 17.9781C14.7814 17.8784 14.8812 17.7786 14.9809 17.6788Z" fill="white"/>
<path fill-rule="evenodd" clip-rule="evenodd" d="M36.9972 17.978C37.0702 18.0858 37.1464 18.1919 37.2159 18.3019C37.4649 18.696 37.641 19.1247 37.6473 19.5911C37.6575 20.2874 37.6264 20.9841 37.6129 21.6759C36.408 21.6747 35.1603 21.6737 33.9453 21.6722C33.9455 24.5657 33.9457 27.3945 33.9457 30.2313C35.1433 30.228 36.3906 30.2245 37.698 30.2206C37.6657 31.0969 37.7107 31.9248 37.5876 32.7266C37.3977 33.9637 36.2957 34.8771 35.0432 34.9661C34.8937 34.9765 34.7434 34.9787 34.5936 34.9785C31.9459 34.9791 29.2986 34.9789 26.6512 34.9798C26.5547 34.9802 26.458 34.9955 26.4024 35C26.4022 33.3905 26.4022 31.8167 26.4022 30.2049C27.6425 30.0293 28.6933 29.3984 29.4295 28.2844C29.958 27.4844 30.1655 26.5937 30.0927 25.6394C29.9539 23.8291 28.5678 22.077 26.3925 21.772C26.3919 20.1919 26.3913 18.6167 26.3911 17.01C26.4287 17.0092 26.5217 17.0045 26.6146 17.0041C29.2886 17.0037 31.9625 17.0059 34.6363 17C35.3647 16.9986 36.0351 17.1525 36.6014 17.6391C36.6263 17.6603 36.6652 17.6657 36.6977 17.6785C36.7972 17.7781 36.8974 17.8783 36.9972 17.978Z" fill="white"/>
<path fill-rule="evenodd" clip-rule="evenodd" d="M37.5996 29.2741C36.7111 29.2741 35.786 29.2743 34.8751 29.2747C34.8751 27.0905 34.8753 24.8958 34.8753 22.7075C35.7848 22.7094 36.7089 22.711 37.6035 22.713C37.6021 24.886 37.6008 27.0776 37.5996 29.2741Z" fill="white"/>
<path fill-rule="evenodd" clip-rule="evenodd" d="M26.3521 22.7564C27.912 22.922 29.1967 24.4733 29.1439 26.0945C29.0881 27.8054 27.6579 29.1081 26.3521 29.2134C26.3519 27.0658 26.3521 24.9173 26.3521 22.7564Z" fill="white"/>
<path fill-rule="evenodd" clip-rule="evenodd" d="M25.3165 22.7666C25.3167 24.9134 25.3175 27.0621 25.3175 29.2087C24.0719 29.1345 22.5801 27.8316 22.5337 26.0773C22.4866 24.315 23.9099 22.902 25.3165 22.7666Z" fill="white"/>
<path fill-rule="evenodd" clip-rule="evenodd" d="M16.8117 22.7155C16.8107 24.9003 16.8099 27.0862 16.8088 29.253C15.8915 29.2524 14.9621 29.2512 14.0569 29.2508C14.0571 27.0864 14.0569 24.8938 14.0571 22.7114C14.9583 22.7122 15.8821 22.7137 16.8117 22.7155Z" fill="white"/>
</svg>
