<svg width="52" height="52" viewBox="0 0 52 52" fill="none" xmlns="http://www.w3.org/2000/svg">
<circle cx="26" cy="26" r="26" fill="#FFA409"/>
<path d="M27.655 19.6406C27.9797 19.3855 27.9565 18.8754 27.5855 18.6899C27.4464 18.6203 27.2609 18.5971 27.0985 18.6667L25.1508 19.4551L25.916 17.2291C26.0087 16.974 25.8928 16.6726 25.6377 16.5335L25.545 16.5103C25.3131 16.3711 25.0117 16.4407 24.8262 16.6494L23.4117 18.5044L22.9944 16.4639C22.9712 16.3016 22.8552 16.1625 22.7161 16.0697C22.4147 15.9074 22.09 16.0465 21.9509 16.3016C21.9045 16.3711 21.8814 16.4639 21.8814 16.5335L21.6959 19.571L25.2204 21.4724L27.655 19.6406Z" fill="white"/>
<path d="M19.4698 27.2228C19.5626 27.0373 19.8176 26.9677 20.0031 27.0605L22.3219 28.2894L25.3363 24.6954C26.0319 23.8606 25.7768 22.5853 24.8261 22.0752L21.4176 20.2434C20.4669 19.7333 19.2611 20.2202 18.9597 21.2636L18.7278 22.0288L21.8813 23.7215C22.0668 23.8143 22.1596 24.0693 22.0436 24.2548L21.9277 24.4867C21.835 24.6722 21.5799 24.7418 21.3944 24.649L18.38 23.0954L16.4786 29.4952L18.2873 30.4691C18.4728 30.5618 18.5423 30.8169 18.4496 31.0024L18.3336 31.2342C18.2409 31.4197 17.9858 31.4893 17.8003 31.3966L16.1772 30.5386L15.041 34.3414C14.7628 35.2689 15.9685 35.9181 16.5946 35.1761L21.6263 29.1242L19.5162 27.988C19.3307 27.8953 19.238 27.6402 19.3539 27.4547L19.4698 27.2228Z" fill="white"/>
<path d="M34.6576 26.4805C34.5881 26.8747 34.2634 27.1993 33.8461 27.2688L33.5446 27.3152L34.4489 29.0079C34.6113 29.3093 34.6113 29.6803 34.4258 30.005C34.2403 30.3064 33.9156 30.4919 33.5678 30.4919C33.3823 30.4919 33.22 30.4455 33.0577 30.3528L30.5303 28.8688L28.0724 30.3528C27.9101 30.4455 27.7246 30.4919 27.5623 30.4919C27.2144 30.4919 26.913 30.3064 26.7043 30.0282C26.5188 29.7499 26.4956 29.3789 26.6348 29.0775L27.4463 27.3152L26.913 27.1761C26.5884 27.0833 26.3333 26.8515 26.2174 26.55C24.8493 27.5471 23.9682 29.0311 23.9682 30.7006C23.9682 33.7382 26.8898 36.196 30.4839 36.196C34.0779 36.196 36.9996 33.7382 36.9996 30.7006C37.0228 29.0079 36.0953 27.4775 34.6576 26.4805Z" fill="white"/>
<path d="M27.1218 26.3419L28.5131 26.6897C28.5826 26.7129 28.629 26.8056 28.6058 26.8752L27.4233 29.449C27.3769 29.5649 27.4928 29.6809 27.6088 29.6113L30.4376 27.8954C30.484 27.8722 30.5304 27.8722 30.5768 27.8954L33.4752 29.6113C33.5911 29.6809 33.7303 29.5417 33.6607 29.4258L32.2695 26.8288C32.2231 26.7592 32.2695 26.6433 32.3622 26.6433L33.6607 26.4114C33.7998 26.3882 33.7998 26.1796 33.6839 26.1564C33.0346 25.9709 31.9216 25.6694 31.0405 25.5535C31.1101 24.7187 31.3883 23.6057 31.597 23.142C31.7593 22.771 30.4608 22.7478 30.3217 23.142C30.2058 23.4898 29.9971 24.6492 29.9275 25.5303C29.0232 25.6231 27.7943 25.9013 27.0986 26.0868C27.0059 26.1332 27.0059 26.3187 27.1218 26.3419Z" fill="white"/>
</svg>
