<svg width="52" height="52" viewBox="0 0 52 52" fill="none" xmlns="http://www.w3.org/2000/svg">
<circle cx="26" cy="26" r="26" fill="#FFA409"/>
<path d="M15.2936 20.0166C15.1129 20.3329 14.9999 20.6944 14.9999 21.0785V31.0871C14.9999 31.4712 15.1129 31.8327 15.2936 32.1264L21.3485 26.0715L15.2936 20.0166Z" fill="white"/>
<path d="M28.262 28.5791C27.6746 29.1666 26.8838 29.4829 26.0705 29.4829C25.2345 29.4829 24.4438 29.1666 23.879 28.5791L22.1167 26.8169L16.0844 32.8492C16.3781 33.0074 16.6944 33.0977 17.0559 33.0977H35.1302C35.4691 33.0977 35.808 33.0074 36.1017 32.8492L30.0694 26.8169L28.262 28.5791Z" fill="white"/>
<path d="M36.8472 20.0166L30.7923 26.0715L36.8472 32.1264C37.0279 31.8327 37.1409 31.4712 37.1409 31.0871V21.0785C37.1409 20.6718 37.0279 20.3103 36.8472 20.0166Z" fill="white"/>
<path d="M24.6245 27.8112C25.0085 28.1953 25.5508 28.3986 26.0704 28.3986C26.59 28.3986 27.1097 28.1953 27.5164 27.8112L36.0791 19.2485C35.7854 19.0904 35.4691 19 35.1302 19H17.0558C16.7169 19 16.378 19.0904 16.1069 19.2485L24.6245 27.8112Z" fill="white"/>
</svg>
