<svg width="52" height="52" viewBox="0 0 52 52" fill="none" xmlns="http://www.w3.org/2000/svg">
<circle cx="26" cy="26" r="26" fill="#FFA409"/>
<path d="M34.7798 33.5103H16V36.5666H34.7798V33.5103Z" fill="white"/>
<path d="M25.7767 15L16 21.186V23.0049H35.1201V21.186L25.7767 15Z" fill="white"/>
<path d="M17.9509 31.8752V32.9484H18.4866H21.4526H21.9882V31.8752H21.4526V24.6752H21.9882V23.6021H21.4526H18.4866H17.9509V24.6752H18.4866V31.8752H17.9509Z" fill="white"/>
<path d="M23.4895 31.8752V32.9484H24.0249H26.9911H27.5268V31.8752H26.9911V24.6752H27.5268V23.6021H26.9911H24.0249H23.4895V24.6752H24.0249V31.8752H23.4895Z" fill="white"/>
<path d="M29.028 31.8752V32.9484H29.5636H32.5298H33.0655V31.8752H32.5298V24.6752H33.0655V23.6021H32.5298H29.5636H29.028V24.6752H29.5636V31.8752H29.028Z" fill="white"/>
</svg>
