<svg width="52" height="52" viewBox="0 0 52 52" fill="none" xmlns="http://www.w3.org/2000/svg">
<circle cx="26" cy="26" r="26" fill="#FFA409"/>
<path d="M23.2499 15.0477C23.401 14.9237 23.6497 15.0591 23.633 15.25C23.6434 15.9745 23.6413 16.699 23.6319 17.4235C23.8154 17.615 24.0014 17.8033 24.1848 17.9942C24.2711 18.0982 24.4116 18.1167 24.5339 18.1573C24.9959 18.2901 25.4495 18.4537 25.9156 18.5726C26.4006 18.428 26.886 18.2813 27.3663 18.1213C27.6589 17.8954 27.9056 17.6134 28.181 17.3664C28.1737 16.698 28.1763 16.029 28.1778 15.3606C28.1841 15.2639 28.1643 15.1465 28.2458 15.0735C28.3686 14.9309 28.6424 15.0133 28.6539 15.2037C28.6706 15.9915 28.6445 16.7814 28.6659 17.5692C28.9554 18.1301 29.3212 18.6493 29.652 19.187C29.8423 19.4762 30.0455 19.7566 30.2425 20.0412C30.0722 20.3947 29.9682 20.774 29.814 21.1342C29.6865 21.4203 29.6128 21.7264 29.4864 22.0131C29.2669 22.5271 29.1373 23.0741 28.8927 23.5779C28.7814 23.8902 28.6602 24.1979 28.5295 24.5026C29.9886 25.1962 31.2062 26.2881 32.2816 27.4645C33.597 28.9233 34.7069 30.5504 35.6941 32.2382C36.1623 33.043 36.6018 33.8648 37 34.7056C35.5514 35.6344 33.9722 36.3579 32.3423 36.9183C30.034 37.7035 27.5784 38.1157 25.1338 37.9716C22.5256 37.8229 19.9723 37.1123 17.5951 36.0625C16.7031 35.6627 15.8278 35.2232 15 34.7061C15.8189 32.9869 16.7872 31.3372 17.882 29.7744C18.8587 28.3959 19.9499 27.0832 21.2406 25.9773C21.9106 25.4072 22.6406 24.8998 23.4381 24.518C22.8418 23.0443 22.3553 21.5293 21.7622 20.0551C21.769 19.9887 21.8217 19.9393 21.852 19.8827C22.3056 19.1937 22.7436 18.4908 23.1344 17.7663C23.1815 17.017 23.1439 16.2632 23.1548 15.5119C23.1695 15.358 23.1041 15.1574 23.2499 15.0477ZM24.7356 18.5602C24.8307 18.6616 24.9295 18.7594 25.0298 18.8551C25.1338 18.8201 25.2389 18.7887 25.3413 18.7486C25.1401 18.6843 24.9379 18.623 24.7356 18.5602ZM26.4596 18.7542C26.5255 18.7733 26.5913 18.7928 26.6577 18.8119C26.7209 18.7517 26.7836 18.6915 26.8468 18.6307C26.7172 18.6714 26.5882 18.712 26.4596 18.7542ZM25.2801 19.1165C25.4589 19.2765 25.6031 19.4988 25.8017 19.6208C26.006 19.4463 26.1926 19.2518 26.388 19.0676C26.2297 19.0249 26.0766 18.9662 25.9166 18.9307C25.6998 18.976 25.4944 19.0609 25.2801 19.1165Z" fill="white"/>
</svg>
