<svg width="22" height="21" viewBox="0 0 22 21" fill="none" xmlns="http://www.w3.org/2000/svg">
<path d="M12.655 3.64059C12.9796 3.38552 12.9564 2.8754 12.5854 2.6899C12.4463 2.62034 12.2608 2.59715 12.0985 2.66671L10.1507 3.45509L10.9159 1.22909C11.0087 0.974024 10.8927 0.672587 10.6377 0.533462L10.5449 0.510275C10.313 0.37115 10.0116 0.440712 9.82611 0.649399L8.41167 2.5044L7.9943 0.463899C7.97111 0.301587 7.85518 0.162462 7.71605 0.0697121C7.41461 -0.0926003 7.08999 0.0465246 6.95086 0.301587C6.90449 0.371149 6.8813 0.463899 6.8813 0.533462L6.6958 3.57102L10.2203 5.4724L12.655 3.64059Z"/>
<path d="M4.46983 11.2228C4.56258 11.0373 4.81764 10.9678 5.00314 11.0605L7.32189 12.2894L10.3363 8.69538C11.0319 7.86063 10.7768 6.58531 9.82614 6.07519L6.41758 4.24338C5.46689 3.73325 4.26114 4.22019 3.95971 5.26363L3.72783 6.02882L6.88133 7.7215C7.06683 7.81425 7.15958 8.06931 7.04364 8.25481L6.92771 8.48669C6.83496 8.67219 6.57989 8.74175 6.39439 8.649L3.38002 7.09544L1.47865 13.4952L3.28727 14.4691C3.47277 14.5618 3.54233 14.8169 3.44958 15.0024L3.33364 15.2342C3.24089 15.4197 2.98583 15.4893 2.80033 15.3966L1.17721 14.5386L0.0410212 18.3414C-0.237229 19.2689 0.968521 19.9181 1.59458 19.1761L6.62627 13.1242L4.51621 11.988C4.33071 11.8952 4.23796 11.6402 4.35389 11.4547L4.46983 11.2228Z"/>
<path d="M19.6577 10.4805C19.5881 10.8747 19.2635 11.1993 18.8461 11.2688L18.5447 11.3152L19.449 13.0079C19.6113 13.3093 19.6113 13.6803 19.4258 14.005C19.2403 14.3064 18.9157 14.4919 18.5679 14.4919C18.3824 14.4919 18.2201 14.4455 18.0578 14.3528L15.5303 12.8688L13.0724 14.3528C12.9101 14.4455 12.7246 14.4919 12.5623 14.4919C12.2145 14.4919 11.9131 14.3064 11.7044 14.0282C11.5189 13.7499 11.4957 13.3789 11.6348 13.0775L12.4464 11.3152L11.9131 11.1761C11.5884 11.0833 11.3334 10.8515 11.2174 10.55C9.84939 11.5471 8.96826 13.0311 8.96826 14.7006C8.96826 17.7382 11.8899 20.196 15.4839 20.196C19.078 20.196 21.9996 17.7382 21.9996 14.7006C22.0228 13.0079 21.0953 11.4775 19.6577 10.4805Z"/>
<path d="M12.1218 10.3419L13.5131 10.6897C13.5826 10.7129 13.629 10.8056 13.6058 10.8752L12.4233 13.449C12.3769 13.5649 12.4928 13.6809 12.6088 13.6113L15.4376 11.8954C15.484 11.8722 15.5304 11.8722 15.5768 11.8954L18.4752 13.6113C18.5911 13.6809 18.7303 13.5417 18.6607 13.4258L17.2695 10.8288C17.2231 10.7592 17.2695 10.6433 17.3622 10.6433L18.6607 10.4114C18.7998 10.3882 18.7998 10.1796 18.6839 10.1564C18.0346 9.97087 16.9216 9.66943 16.0405 9.55349C16.1101 8.71874 16.3883 7.60574 16.597 7.14199C16.7593 6.77099 15.4608 6.7478 15.3217 7.14199C15.2058 7.4898 14.9971 8.64918 14.9275 9.5303C14.0232 9.62305 12.7943 9.9013 12.0986 10.0868C12.0059 10.1332 12.0059 10.3187 12.1218 10.3419Z"/>
</svg>
