<svg width="27" height="24" viewBox="0 0 27 24" fill="none" xmlns="http://www.w3.org/2000/svg">
<path fill-rule="evenodd" clip-rule="evenodd" d="M22.4383 22.2142C22.4566 22.4123 22.4435 22.6131 22.4435 22.8422C22.7668 22.8422 23.2332 22.8422 23.5671 22.8422C23.5799 22.5654 23.5927 22.2877 23.6082 21.9571C24.5079 22.0516 25.2979 22.0817 26.1341 22.4123C26.1389 22.46 26.1438 22.5077 26.1492 22.556C25.9393 22.6262 25.7339 22.7362 25.5185 22.7608C24.2298 22.9069 22.9412 23.1087 21.6483 23.1528C18.2999 23.2673 14.9494 23.3706 11.6 23.3642C8.20392 23.3579 4.80385 23.2974 1.42414 22.8848C1.05071 22.8392 0.682446 22.7486 0.313877 22.6684C0.228192 22.6499 0.152228 22.5885 0 22.5101C0.419312 22.1765 0.869007 22.1783 1.28467 22.1212C2.04369 22.0167 2.80878 21.9544 3.57266 21.8976C3.79811 21.8805 3.89838 21.7888 3.98285 21.5919C4.71786 19.88 5.08339 18.0879 5.16209 16.2335C5.23228 14.5891 5.12198 12.9559 4.8075 11.3388C4.79443 11.271 4.7762 11.2045 4.76618 11.1611C4.36145 11.3042 3.98012 11.5005 3.576 11.5722C1.65719 11.9131 0.0960158 10.073 0.726806 8.22618C0.796388 8.0226 0.784538 7.8968 0.650844 7.72452C-0.164079 6.67898 -0.0489202 5.19741 0.916712 4.29012C1.06833 4.14792 1.13184 4.01756 1.12698 3.8073C1.09051 2.15163 2.3287 1.00095 3.97465 1.12948C4.09771 1.1392 4.26938 1.06294 4.35233 0.968744C5.40973 -0.231459 6.99217 -0.325957 8.1863 0.738426C8.27047 0.813781 8.46493 0.848724 8.56885 0.806489C10.5132 0.0164812 12.3904 1.42756 12.1932 3.53141C12.1822 3.65021 12.2606 3.82492 12.3557 3.89846C13.8063 5.02087 13.7996 6.98921 12.329 8.10373C12.1944 8.20582 12.0947 8.27844 12.126 8.49508C12.2773 9.54944 11.9078 10.4148 11.037 11.0134C10.1756 11.6059 9.25008 11.6159 8.32242 11.1295C8.26226 11.0979 8.19845 11.072 8.07236 11.0143C7.95993 11.6837 7.82806 12.3139 7.75149 12.9507C7.40845 15.806 7.69771 18.5975 8.61929 21.3251C8.71469 21.6077 8.84748 21.6803 9.1258 21.6618C9.53448 21.635 9.76753 21.6551 10.2191 21.6551C10.2191 22.054 10.2291 22.5104 10.2291 22.9237C10.57 22.9237 11.15 22.9237 11.4946 22.9237C11.4946 22.6031 11.4727 22.2461 11.4727 22.2461C11.4727 22.2461 11.5663 22.2439 11.5034 22.2327C11.5839 22.2525 11.5368 22.2157 11.5368 22.2157C11.5368 22.2157 11.5742 22.1397 11.583 22.2327C11.8954 22.2327 12.4198 22.2594 12.7434 22.2594C12.7565 22.0878 12.7614 21.8328 12.7799 21.5892C15.6464 21.6487 18.2744 21.694 21.1339 21.7538C21.1686 21.9197 21.1442 22.1847 21.1725 22.3172C21.4587 22.3172 22.1041 22.3302 22.3192 22.3302C22.3408 22.206 22.3141 21.8137 22.3141 21.8137C22.3141 21.8137 22.3554 21.8198 22.4253 21.8021"/>
<path fill-rule="evenodd" clip-rule="evenodd" d="M23.9682 19.5095C23.7579 19.5277 23.5972 19.5073 23.4049 19.5241C23.4049 20.3384 23.4049 21.1384 23.4049 21.9391C23.4049 22.0803 23.4061 22.2216 23.4067 22.3632C23.4082 22.8384 23.4286 22.7209 22.9734 22.7367C22.6835 22.747 22.562 22.7585 22.5672 22.4598C22.5836 21.4942 22.5735 20.5283 22.5735 19.5323C22.431 19.5323 22.3116 19.5323 22.1454 19.5323C22.1454 20.2667 22.1497 20.9947 22.1415 21.7227C22.1399 21.8537 22.108 22.0867 22.0567 22.0964C21.844 22.1369 21.6158 22.1265 21.3995 22.0925C21.3591 22.0861 21.3281 21.888 21.3275 21.778C21.3211 21.0363 21.3238 20.2946 21.3238 19.5265C18.3889 19.5265 15.4814 19.5265 12.5298 19.5265C12.5298 20.39 12.5298 21.2441 12.5298 22.0879C12.4538 22.1119 12.4219 22.1287 12.3885 22.132C11.7012 22.2001 11.6945 22.1891 11.7012 21.5112C11.7073 20.854 11.7024 20.1965 11.7024 19.5216C11.5575 19.5216 11.4578 19.5216 11.3108 19.5216C11.3108 20.2244 11.3105 20.916 11.3114 21.6076C11.3117 21.891 11.2995 22.1754 11.3226 22.4565C11.3533 22.8281 11.1391 22.8357 10.8589 22.8415C10.5752 22.8476 10.4633 22.7771 10.4706 22.469C10.4904 21.6079 10.4782 20.7458 10.477 19.8844C10.477 19.7696 10.4676 19.6541 10.4618 19.5222C10.3287 19.5089 10.2844 19.5131 10.0759 19.5095C10.0759 19.2555 10.0996 19.1136 10.1403 18.9303C10.5764 18.2995 11.0665 17.6761 11.0665 17.6761C11.0665 17.6761 11.7583 17.6827 12.3566 17.6827C15.874 17.6827 19.391 17.6867 22.9081 17.6761C23.0369 17.6754 23.2326 17.6761 23.2326 17.6761C23.2326 17.6761 23.3842 17.8742 23.4401 18.013C23.5869 18.3795 23.7783 18.7283 23.933 19.0917C23.9755 19.1926 23.9561 19.3539 23.9682 19.5095Z"/>
<path fill-rule="evenodd" clip-rule="evenodd" d="M23.2314 15.6951C23.2314 15.9482 23.2314 16.0305 23.2314 16.3061C19.1783 16.3061 15.1332 16.3061 11.0662 16.3061C11.0662 16.05 11.0662 15.9688 11.0662 15.6951C15.1195 15.6951 19.1656 15.6951 23.2314 15.6951Z" fill="#50A342"/>
<path fill-rule="evenodd" clip-rule="evenodd" d="M23.2314 16.6872C23.2314 16.9568 23.242 17.0753 23.242 17.3642C23.118 17.3706 22.9947 17.3834 22.8713 17.3834C19.0626 17.3846 15.259 17.3512 11.4505 17.3657C11.2883 17.3663 11.0777 17.3721 11.0777 17.3721C11.0777 17.3721 11.0686 17.2518 11.0671 17.0908C11.0656 16.9087 11.0671 16.6638 11.0671 16.6638C11.0671 16.6638 11.2995 16.6632 11.4408 16.6638C15.2496 16.6775 19.058 16.6714 22.8668 16.6714C22.9819 16.6714 23.0965 16.6812 23.2314 16.6872Z"/>
<path fill-rule="evenodd" clip-rule="evenodd" d="M11.1072 14.5916C15.1569 14.5916 19.1774 14.5916 23.2247 14.5916C23.2247 14.8589 23.2222 15.0303 23.2222 15.3229C23.0816 15.3229 22.9555 15.3229 22.8294 15.3229C19.1008 15.3226 15.372 15.3229 11.6438 15.3223C11.3332 15.3223 11.0981 15.3229 11.0981 15.3229C11.0981 15.3229 11.0862 15.0194 11.1072 14.5916Z"/>
</svg>
