<svg width="23" height="15" viewBox="0 0 23 15" fill="none" xmlns="http://www.w3.org/2000/svg">
<path d="M0.293705 1.0166C0.112962 1.3329 0 1.69439 0 2.07847V12.0871C0 12.4712 0.112962 12.8327 0.293705 13.1264L6.3486 7.0715L0.293705 1.0166Z"/>
<path d="M13.2619 9.57914C12.6745 10.1666 11.8838 10.4829 11.0704 10.4829C10.2345 10.4829 9.44373 10.1666 8.87891 9.57914L7.11666 7.81689L1.08435 13.8492C1.37806 14.0074 1.69436 14.0977 2.05584 14.0977H20.1302C20.4691 14.0977 20.808 14.0074 21.1017 13.8492L15.0694 7.81689L13.2619 9.57914Z"/>
<path d="M21.8471 1.0166L15.7922 7.0715L21.8471 13.1264C22.0279 12.8327 22.1408 12.4712 22.1408 12.0871V2.07847C22.1408 1.6718 22.0279 1.31031 21.8471 1.0166Z"/>
<path d="M9.62445 8.81124C10.0085 9.19532 10.5508 9.39865 11.0704 9.39865C11.59 9.39865 12.1097 9.19532 12.5164 8.81124L21.0791 0.248517C20.7854 0.0903661 20.4691 0 20.1302 0H2.05583C1.71693 0 1.37805 0.0903661 1.10693 0.248517L9.62445 8.81124Z"/>
</svg>
