<svg width="20" height="20" viewBox="0 0 20 20" fill="none" xmlns="http://www.w3.org/2000/svg">
<g clip-path="url(#clip0)">
<path fill-rule="evenodd" clip-rule="evenodd" d="M16.7589 3.94505L15.1852 2.40005L10.0939 7.4388C9.52517 6.7688 8.94642 6.10005 8.38892 5.46255L13.2402 0.602547C13.8664 -0.0237029 14.9214 0.0112971 15.5952 0.682547L18.1014 3.17005C18.7739 3.8413 18.7389 4.7463 18.1114 5.3738L12.7852 10.7175C12.3889 10.2063 11.9439 9.6538 11.4714 9.0788L16.7589 3.94505ZM19.7903 16.3026L19.7763 16.3074C19.1258 16.5328 17.8573 16.9723 16.4003 14.5076C14.9328 12.0276 12.9928 12.6038 12.9928 12.6038C12.9035 12.6192 12.8252 12.6464 12.7468 12.6736C12.7297 12.6796 12.7125 12.6855 12.6953 12.6913C10.5053 9.57258 4.34654 2.78008 3.80404 2.23633C3.02529 1.45882 1.71779 0.728825 0.624039 1.87507C-0.404711 2.95257 0.122789 4.35883 0.901539 5.13758C1.44904 5.68508 8.27904 11.8751 11.3965 14.0576C11.3451 14.1928 11.3132 14.3346 11.3015 14.4788C11.3015 19.0363 15.9628 18.7951 16.9265 18.6188C18.6453 18.3076 20.4365 16.0813 19.7903 16.3026ZM7.01687 13.4125L6.73312 14.3525L7.34062 14.96L2.57687 17.03L1.63937 16.1313L3.79062 11.5975L3.76812 12.48L5.01562 12.4625L6.08187 11.4063C5.41937 10.8438 4.75937 10.2738 4.12937 9.72253L3.08687 10.7663C3.08687 10.7663 0.196869 17.4163 0.00061898 17.9538C-0.155631 18.3788 0.383119 18.9175 0.755619 18.735C1.35562 18.4388 7.93062 15.585 7.93062 15.585L9.39062 14.12C8.81678 13.6727 8.24964 13.2168 7.68937 12.7525L7.01687 13.4125Z"/>
</g>
<defs>
<clipPath id="clip0">
<rect width="20" height="20"/>
</clipPath>
</defs>
</svg>