<svg width="19" height="26" viewBox="0 0 19 26" fill="none" xmlns="http://www.w3.org/2000/svg">
<path d="M18.9952 24.9703L18.1181 7.16596C18.0937 6.67059 17.7044 6.28208 17.2325 6.28208H14.6442V5.40716C14.6442 2.42563 12.3361 0 9.49925 0C6.66242 0 4.35465 2.42563 4.35465 5.40716V6.28208H1.76634C1.29435 6.28208 0.904985 6.67059 0.880547 7.16596L0.00117741 25.0196C-0.0113363 25.2748 0.0763256 25.5243 0.243787 25.7096C0.411183 25.8949 0.643703 25.9999 0.886902 25.9999H18.112C18.1124 26 18.1128 26 18.1132 25.9999C18.603 25.9999 19 25.5826 19 25.0679C18.9999 25.0348 18.9984 25.0023 18.9952 24.9703ZM5.61808 10.0549C5.09349 10.0549 4.66809 9.60777 4.66809 9.05641C4.66809 8.50506 5.09349 8.05796 5.61808 8.05796C6.14268 8.05796 6.56808 8.50506 6.56808 9.05641C6.56808 9.60777 6.14268 10.0549 5.61808 10.0549ZM12.0057 6.28208H6.99302V5.40716C6.99302 3.95458 8.11729 2.77296 9.49925 2.77296C10.8814 2.77296 12.0057 3.95458 12.0057 5.40716V6.28208V6.28208ZM13.3818 10.0549C12.8573 10.0549 12.4319 9.60777 12.4319 9.05641C12.4319 8.50506 12.8573 8.05796 13.3818 8.05796C13.9064 8.05796 14.3318 8.50506 14.3318 9.05641C14.3318 9.60777 13.9064 10.0549 13.3818 10.0549Z"/>
</svg>
