<svg width="85" height="34" viewBox="0 0 85 34" fill="none" xmlns="http://www.w3.org/2000/svg">
<path d="M33.5062 15.7369H33.8441C33.8817 16.4716 34.1946 17.0774 34.7954 17.5413C35.3962 18.0053 36.1472 18.2502 37.0484 18.2502C37.9245 18.2502 38.6505 18.0182 39.2138 17.5542C39.777 17.0902 40.0524 16.4974 40.0524 15.7756C40.0524 15.2085 39.8646 14.7574 39.4766 14.4094C39.0886 14.0614 38.4628 13.7779 37.5866 13.5588L36.4476 13.2623C35.5213 13.0304 34.8454 12.7081 34.4199 12.3215C33.9943 11.9348 33.7815 11.4193 33.7815 10.8006C33.7815 10.0402 34.0944 9.39579 34.7078 8.88025C35.3211 8.3647 36.0721 8.10693 36.9357 8.10693C37.8495 8.10693 38.613 8.35182 39.2388 8.84158C39.8646 9.33135 40.1901 9.93711 40.2151 10.6589H39.8772C39.8396 10.0273 39.5517 9.49889 38.9885 9.07357C38.4377 8.64825 37.7493 8.44204 36.9357 8.44204C36.1472 8.44204 35.4838 8.66114 34.9456 9.11224C34.3948 9.56334 34.132 10.1175 34.132 10.8006C34.132 11.342 34.3197 11.7673 34.7078 12.1024C35.0958 12.4375 35.7091 12.7081 36.5602 12.9272L37.6867 13.2108C38.6255 13.4557 39.3264 13.7779 39.752 14.1774C40.1901 14.577 40.4029 15.1054 40.4029 15.7498C40.4029 16.5747 40.0899 17.2449 39.4641 17.7733C38.8383 18.3018 38.0372 18.5595 37.0359 18.5595C36.0345 18.5595 35.2084 18.2889 34.545 17.7604C33.8942 17.2449 33.5312 16.5618 33.5062 15.7369Z" fill="white"/>
<path d="M51.0421 8.26172V18.4308H50.7042V9.07369H50.6791L46.6863 18.4308H46.3233L42.3305 9.07369H42.3055V18.4308H41.9675V8.26172H42.3305L46.4986 17.9926H46.5236L50.6666 8.26172H51.0421Z" fill="white"/>
<path d="M59.9664 18.4308L58.6772 14.8993H54.0836L52.7694 18.4308H52.3939L56.1989 8.26172H56.5494L60.3545 18.4308H59.9664ZM56.3616 8.73859L54.2088 14.5642H58.5521L56.3992 8.73859H56.3616Z" fill="white"/>
<path d="M62.0319 13.9842V18.4308H61.6815V8.26172H64.748C65.7369 8.26172 66.5129 8.51949 67.0762 9.02214C67.6394 9.53768 67.9273 10.2337 67.9273 11.123C67.9273 11.8705 67.7145 12.4892 67.3015 12.9789C66.8884 13.4687 66.3001 13.7909 65.5616 13.9198L68.1651 18.4308H67.7771L65.1986 13.9713C65.0359 13.9842 64.8857 13.9842 64.748 13.9842H62.0319ZM62.0319 8.58393V13.662H64.748C65.6242 13.662 66.3252 13.43 66.8258 12.9789C67.3265 12.5278 67.5768 11.9092 67.5768 11.123C67.5768 10.3239 67.3265 9.70523 66.8258 9.25413C66.3252 8.80303 65.6242 8.58393 64.7355 8.58393H62.0319Z" fill="white"/>
<path d="M72.7339 18.4308H72.3959V8.59682H68.8287V8.26172H76.2886V8.59682H72.7213L72.7339 18.4308Z" fill="white"/>
<path d="M37.9375 19.4604C39.2642 19.4604 40.3282 19.9373 41.1042 20.8782C41.8927 21.8191 42.2808 23.095 42.2808 24.6932C42.2808 26.2914 41.8927 27.5673 41.1042 28.5082C40.3156 29.4491 39.2642 29.9259 37.925 29.9259C36.5857 29.9259 35.5343 29.4491 34.7457 28.5082C33.9572 27.5673 33.5692 26.2914 33.5692 24.6932C33.5692 23.095 33.9572 21.8319 34.7457 20.8782C35.5343 19.9244 36.5857 19.4604 37.9375 19.4604ZM37.9375 19.7827C36.7108 19.7827 35.7345 20.2209 35.0086 21.1102C34.2826 21.9866 33.9196 23.1852 33.9196 24.6803C33.9196 26.1754 34.2826 27.3611 35.0086 28.2504C35.7345 29.1397 36.7108 29.5779 37.9375 29.5779C39.1516 29.5779 40.1279 29.1397 40.8539 28.2504C41.5798 27.3611 41.9428 26.1754 41.9428 24.6803C41.9428 23.1852 41.5798 21.9995 40.8539 21.1102C40.1279 20.2338 39.1516 19.7827 37.9375 19.7827Z" fill="white"/>
<path d="M44.2586 25.326V29.7726H43.9081V19.6035H46.9747C47.9636 19.6035 48.7396 19.8613 49.3028 20.3639C49.8661 20.8795 50.154 21.5755 50.154 22.4648C50.154 23.2123 49.9412 23.831 49.5281 24.3207C49.1026 24.8105 48.5268 25.1327 47.7883 25.2616L50.3918 29.7726H50.0038L47.4253 25.3131C47.2626 25.326 47.1124 25.326 46.9747 25.326H44.2586ZM44.2586 19.9257V25.0038H46.9747C47.8509 25.0038 48.5518 24.7718 49.0525 24.3207C49.5532 23.8696 49.8035 23.251 49.8035 22.4648C49.8035 21.6657 49.5532 21.047 49.0525 20.5959C48.5518 20.1448 47.8509 19.9257 46.9622 19.9257H44.2586Z" fill="white"/>
<path d="M58.8034 29.7726L57.5142 26.2411H52.9206L51.6188 29.7726H51.2433L55.0484 19.6035H55.3989L59.2039 29.7726H58.8034ZM55.2111 20.0804L53.0457 25.906H57.389L55.2362 20.0804H55.2111Z" fill="white"/>
<path d="M60.8682 29.7726H60.5177V19.6035H60.8932L67.4519 29.1024H67.477V19.6035H67.8149V29.7726H67.502L60.8932 20.1964H60.8682V29.7726Z" fill="white"/>
<path d="M77.6402 25.7899C77.6402 27.0659 77.2898 28.0712 76.5888 28.8058C75.8879 29.5405 74.9241 29.9013 73.71 29.9013C72.8839 29.9013 72.1454 29.6822 71.4946 29.2311C70.8437 28.7929 70.343 28.1614 69.9926 27.3623C69.6296 26.5632 69.4543 25.6352 69.4543 24.6041C69.4543 23.0575 69.8424 21.8073 70.6309 20.8665C71.4069 19.9256 72.4458 19.4487 73.7225 19.4487C74.6988 19.4487 75.5374 19.7323 76.2509 20.2865C76.9643 20.8407 77.4024 21.5625 77.5902 22.4646H77.2522C77.0645 21.6527 76.6389 21.0082 76.0006 20.5185C75.3622 20.0287 74.5987 19.7838 73.7225 19.7838C72.546 19.7838 71.5947 20.222 70.8812 21.1114C70.1678 22.0007 69.8173 23.1606 69.8173 24.617C69.8173 26.0863 70.1803 27.285 70.9063 28.2C71.6322 29.1151 72.571 29.5791 73.735 29.5791C74.849 29.5791 75.7252 29.244 76.3635 28.5738C77.0019 27.9036 77.3273 26.9756 77.3273 25.8157V25.1068H73.6975V24.7846H77.6653V25.7899H77.6402Z" fill="white"/>
<path d="M85.0007 29.4375V29.7726H79.3431V19.6035H85.0007V19.9386H79.6936V24.398H84.7629V24.7203H79.6936V29.4504H85.0007V29.4375Z" fill="white"/>
<path d="M28.9005 21.9364L28.7753 21.2146L30.2648 18.4178L28.8254 16.0463L29.3887 14.5899L28.0118 13.4944L27.8241 10.53L25.1205 9.27982L24.6198 8.08118L23.8187 7.81052L22.6297 5.86435L20.1138 5.98035L17.986 4.03418L16.0459 4.71727L15.4201 4.36928L13.8805 5.14259L10.9141 4.48528L9.72497 5.77413L8.91139 5.65814L7.74734 7.5012L4.44294 8.57095L3.742 11.6255L3.15372 12.0766L3.11617 12.7597L2.81577 13.0562L2.8408 13.4686L0.838135 15.7241L1.7143 18.1085L0.988336 19.5004L1.75185 20.8924L1.23867 23.2252L3.24134 25.326L3.46664 27.1691L4.75585 27.8264L5.65705 30.649L8.6986 31.1903L9.72497 32.5565L11.1894 32.505L12.9793 33.8583L15.2949 32.9561L17.8858 34L18.9998 33.0205L20.0012 33.2267L21.6408 31.345L24.5697 30.9841L25.3333 29.0122L25.884 28.7673L26.3847 27.1047L29.0257 25.2874L28.7002 22.2586L28.9005 21.9364Z" fill="#727376"/>
<path d="M25.7964 24.7202L25.1456 26.0607L26.4473 23.1221L25.7964 24.7202Z" fill="#898A8D"/>
<path d="M21.1897 30.5203L20.276 30.8941L22.8795 28.9351L21.1897 30.5203Z" fill="#A0A1A3"/>
<path d="M28.1744 16.8712L27.0729 13.314L28.0743 15.1957L28.1744 16.8712Z" fill="#8D8E91"/>
<path d="M9.12376 30.6104L8.15997 30.0562L11.3517 31.229L9.12376 30.6104Z" fill="#6C6E70"/>
<path d="M28.9008 21.9366L27.9496 23.3673L28.6255 20.1709L28.9008 21.9366Z" fill="#F2F2F2"/>
<path d="M2.84083 14.5126L2.8158 13.0562L4.40541 11.458L2.84083 14.5126Z" fill="#E5E5E5"/>
<path d="M22.4424 30.2884L24.5202 29.1027L25.8845 28.7676L22.4424 30.2884Z" fill="#A0A0A0"/>
<path d="M25.8842 28.7671L24.5199 29.1022L26.5726 26.4858L25.8842 28.7671Z" fill="#CCCCCC"/>
<path d="M22.9429 7.65576L24.6201 8.08109L25.4212 10.0015L22.9429 7.65576Z" fill="#D8D8D8"/>
<path d="M21.0897 6.88232L24.6194 8.08096L22.9422 7.65564L21.0897 6.88232Z" fill="#F2F2F2"/>
<path d="M3.36664 24.8618L5.34427 28.1097L3.46677 27.1689L3.36664 24.8618Z" fill="#999999"/>
<path d="M3.36575 24.8622L3.46589 27.1693L2.94019 23.0449L3.36575 24.8622Z" fill="#A5A5A5"/>
<path d="M20.0016 33.2265L16.4969 32.479L18.7499 32.5821L20.0016 33.2265Z" fill="#BFBFBF"/>
<path d="M20.0016 33.2269L18.7499 32.5825L21.8165 31.1519L20.0016 33.2269Z" fill="#D8D8D8"/>
<path d="M2.17822 21.1502L2.94173 23.0448L0.989136 19.5005L2.17822 21.1502Z" fill="#BFBFBF"/>
<path d="M1.90285 17.709L2.17822 21.1502L0.989136 19.5005L1.90285 17.709Z" fill="#D8D8D8"/>
<path d="M16.4964 32.479L12.9792 33.8581L15.3574 32.8012L16.4964 32.479Z" fill="#CCCCCC"/>
<path d="M17.9858 4.03418L21.09 6.88255L19.8633 5.99324L17.9858 4.03418Z" fill="#E5E5E5"/>
<path d="M30.2651 18.4178L28.6129 16.6005L28.0872 14.8477L30.2651 18.4178Z" fill="#E5E5E5"/>
<path d="M28.6129 16.6005L27.5615 13.1206L28.0872 14.8477L28.6129 16.6005Z" fill="#808183"/>
<path d="M28.0872 14.8479L27.5615 13.1209L27.8244 10.5303L28.0872 14.8479Z" fill="#D8D8D8"/>
<path d="M12.9793 33.8583L11.6651 32.1699L15.3575 32.8015L12.9793 33.8583Z" fill="#999999"/>
<path d="M12.9787 33.8581L9.69934 31.3706L11.6645 32.1697L12.9787 33.8581Z" fill="#999999"/>
<path d="M10.3131 6.10931L8.32294 7.32083L10.9139 4.48535L10.3131 6.10931Z" fill="#F2F2F2"/>
<path d="M10.9136 4.48535L14.4433 5.27155L13.3293 5.40044L10.9136 4.48535Z" fill="#F2F2F2"/>
<path d="M10.3138 6.10931L10.9146 4.48535L13.3304 5.40044L10.3138 6.10931Z" fill="#E5E5E5"/>
<path d="M16.5591 5.25859L17.986 4.03418L19.8635 5.99324L16.5591 5.25859Z" fill="#F2F2F2"/>
<path d="M14.4436 5.27119L16.5589 5.2583L13.3296 5.40008L14.4436 5.27119Z" fill="#9C9EA0"/>
<path d="M14.4438 5.27148L17.986 4.03418L16.5591 5.25859L14.4438 5.27148Z" fill="#E5E5E5"/>
<path d="M7.38416 8.05554L8.3229 7.3209L10.3131 6.10938L7.38416 8.05554Z" fill="#B9B9BA"/>
<path d="M7.38392 8.05545L4.4425 8.57099L8.32267 7.3208L7.38392 8.05545Z" fill="#E5E5E5"/>
<path d="M30.2648 18.4179L28.5625 19.6938L28.6126 16.6006L30.2648 18.4179Z" fill="#F2F2F2"/>
<path d="M28.6126 21.5494L28.5625 19.6934L30.2648 18.4175L28.6126 21.5494Z" fill="#E5E5E5"/>
<path d="M18.7499 32.5825L20.7651 31.4483L21.8165 31.1519L18.7499 32.5825Z" fill="#BFBFBF"/>
<path d="M2.11482 19.2556L2.17741 21.1502L1.90204 17.709L2.11482 19.2556Z" fill="#A5A5A5"/>
<path d="M9.70027 31.3705L8.28589 30.5972L11.6654 32.1696L9.70027 31.3705Z" fill="#6E6F72"/>
<path d="M9.69962 31.3705L5.65674 30.6487L8.28524 30.5972L9.69962 31.3705Z" fill="#999999"/>
<path d="M4.69284 11.0582L4.4425 8.57072L7.38392 8.05518L4.69284 11.0582Z" fill="#F2F2F2"/>
<path d="M4.69325 11.0583L3.46661 12.7467L4.44291 8.5708L4.69325 11.0583Z" fill="#E5E5E5"/>
<path d="M24.5695 9.03467L27.8239 10.5297L25.7711 10.8519L24.5695 9.03467Z" fill="#E5E5E5"/>
<path d="M25.7712 10.8525L27.824 10.5303L27.5611 13.1209L25.7712 10.8525Z" fill="#F2F2F2"/>
<path d="M11.6651 32.1699L13.8805 32.4019L15.3575 32.8015L11.6651 32.1699Z" fill="#CCCCCC"/>
<path d="M29.0261 25.2875L27.837 22.3618L28.6131 21.5498L29.0261 25.2875Z" fill="#D8D8D8"/>
<path d="M27.837 22.3618L28.563 19.6938L28.6131 21.5498L27.837 22.3618Z" fill="#CCCCCC"/>
<path d="M3.05414 14.255L3.46719 12.747L4.69382 11.0586L3.05414 14.255Z" fill="#B9BABA"/>
<path d="M3.05358 14.255L0.838135 15.7243L3.46663 12.7471L3.05358 14.255Z" fill="#F2F2F2"/>
<path d="M16.5591 5.2583L19.8635 5.99295L18.7495 6.17339L16.5591 5.2583Z" fill="#CCCCCC"/>
<path d="M18.7499 6.17358L19.8639 5.99314L22.6301 5.86426L18.7499 6.17358Z" fill="#F2F2F2"/>
<path d="M10.3138 6.10926L13.3304 5.40039L12.4166 6.13504L10.3138 6.10926Z" fill="#CCCCCC"/>
<path d="M4.69269 11.0582L7.38377 8.05518L6.50761 9.4858L4.69269 11.0582Z" fill="#E5E5E5"/>
<path d="M5.88204 27.8008L8.28524 30.5976L5.65674 30.6492L5.88204 27.8008Z" fill="#A5A5A5"/>
<path d="M5.88202 27.8008L5.65672 30.6491L4.34247 26.499L5.88202 27.8008Z" fill="#B2B2B2"/>
<path d="M29.0261 25.2875L26.5228 25.0684L27.837 22.3618L29.0261 25.2875Z" fill="#E5E5E5"/>
<path d="M25.9467 27.4141L26.5225 25.0684L29.0258 25.2875L25.9467 27.4141Z" fill="#F2F2F2"/>
<path d="M28.6127 16.6005L27.9243 17.1804L29.3888 14.5898L28.6127 16.6005Z" fill="#CCCCCC"/>
<path d="M28.5627 19.6938L27.9243 17.1806L28.6127 16.6006L28.5627 19.6938Z" fill="#D8D8D8"/>
<path d="M26.8226 13.5588L27.5611 13.1206L29.3885 14.5899L26.8226 13.5588Z" fill="#E5E5E5"/>
<path d="M26.8226 13.5586L29.3885 14.5897L27.924 17.1803L26.8226 13.5586Z" fill="#F2F2F2"/>
<path d="M25.7712 10.8521L27.5611 13.1204L26.8226 13.5586L25.7712 10.8521Z" fill="#CCCCCC"/>
<path d="M3.05359 14.2549L2.77822 17.3481L0.838135 15.7242L3.05359 14.2549Z" fill="#D8D8D8"/>
<path d="M2.77822 17.3481L2.11484 19.2556L0.838135 15.7241L2.77822 17.3481Z" fill="#B2B2B2"/>
<path d="M24.5698 9.03467L25.7714 10.8519L23.6686 9.29244L24.5698 9.03467Z" fill="#CCCCCC"/>
<path d="M22.6298 5.86426L24.5698 9.03484L23.6686 9.29261L22.6298 5.86426Z" fill="#E5E5E5"/>
<path d="M12.4159 6.13487L13.3296 5.40022L15.4199 4.36914L12.4159 6.13487Z" fill="#D8D8D8"/>
<path d="M24.5695 30.9842L24.6697 27.4269L25.9464 27.4141L24.5695 30.9842Z" fill="#D8D8D8"/>
<path d="M24.6696 27.427L26.522 25.0684L25.9463 27.4141L24.6696 27.427Z" fill="#E5E5E5"/>
<path d="M17.8856 33.9998L13.8803 32.4017L16.3336 31.8604L17.8856 33.9998Z" fill="#A5A5A5"/>
<path d="M17.8854 33.9999L16.3334 31.8604L19.6127 30.9453L17.8854 33.9999Z" fill="#CCCCCC"/>
<path d="M17.8859 33.9999L19.6132 30.9453L20.7647 31.448L17.8859 33.9999Z" fill="#E5E5E5"/>
<path d="M20.7645 31.4481L22.254 29.4375L24.5696 30.9841L20.7645 31.4481Z" fill="#CCCCCC"/>
<path d="M24.5699 30.984L22.2543 29.4374L24.67 27.4268L24.5699 30.984Z" fill="#E5E5E5"/>
<path d="M19.6133 30.9455L22.2543 29.4375L20.7648 31.4481L19.6133 30.9455Z" fill="#D8D8D8"/>
<path d="M4.11754 24.2691L4.34284 26.4988L1.23871 23.2251L4.11754 24.2691Z" fill="#B2B2B2"/>
<path d="M5.88222 27.8005L4.34267 26.4988L4.11737 24.269L5.88222 27.8005Z" fill="#999999"/>
<path d="M3.09117 20.6606L4.11754 24.2694L1.23871 23.2255L3.09117 20.6606Z" fill="#999999"/>
<path d="M3.09165 20.6605L2.11536 19.2556L2.77874 17.3481L3.09165 20.6605Z" fill="#D8D8D8"/>
<path d="M3.09117 20.6602L1.23871 23.225L2.11487 19.2554L3.09117 20.6602Z" fill="#F2F2F2"/>
<path d="M20.9526 8.05531L22.6299 5.86426L23.6688 9.29261L20.9526 8.05531Z" fill="#F2F2F2"/>
<path d="M18.7499 6.17358L22.6301 5.86426L20.9529 8.05531L18.7499 6.17358Z" fill="#E5E5E5"/>
<path d="M8.999 8.54523L6.50818 9.4861L8.91138 5.6582L8.999 8.54523Z" fill="#D8D8D8"/>
<path d="M13.8808 32.402L9.72522 32.5566L12.7543 31.2549L13.8808 32.402Z" fill="#A5A5A5"/>
<path d="M13.8806 32.402L12.7541 31.2549L16.3339 31.8606L13.8806 32.402Z" fill="#999999"/>
<path d="M8.07225 28.7545L8.28504 30.5976L5.88184 27.8008L8.07225 28.7545Z" fill="#999999"/>
<path d="M8.07263 28.7544L9.72483 32.5565L8.28542 30.5975L8.07263 28.7544Z" fill="#BFBFBF"/>
<path d="M8.99918 8.54523L8.91156 5.6582L12.0658 7.41104L8.99918 8.54523Z" fill="#E5E5E5"/>
<path d="M8.91156 5.6582L12.4162 6.13508L12.0658 7.41104L8.91156 5.6582Z" fill="#D8D8D8"/>
<path d="M3.15427 12.0767L4.06799 15.5823L3.05414 14.2548L3.15427 12.0767Z" fill="#D8D8D8"/>
<path d="M4.06723 15.5824L2.77802 17.3481L3.05338 14.2549L4.06723 15.5824Z" fill="#BFBFBF"/>
<path d="M18.7503 6.17383L20.9532 8.05555L18.0118 7.44979L18.7503 6.17383Z" fill="#CCCCCC"/>
<path d="M15.4197 4.36914L18.7491 6.17353L18.0106 7.4495L15.4197 4.36914Z" fill="#D8D8D8"/>
<path d="M6.43335 11.4448L6.50845 9.48579L8.99927 8.54492L6.43335 11.4448Z" fill="#F2F2F2"/>
<path d="M6.43348 11.4449L3.15411 12.0764L6.50858 9.48584L6.43348 11.4449Z" fill="#D8D8D8"/>
<path d="M12.4159 6.13487L15.4199 4.36914L14.9192 7.26906L12.4159 6.13487Z" fill="#F2F2F2"/>
<path d="M14.9191 7.26906L15.4198 4.36914L18.0107 7.4495L14.9191 7.26906Z" fill="#E5E5E5"/>
<path d="M12.4168 6.13477L14.9201 7.26896L12.0663 7.41073L12.4168 6.13477Z" fill="#E5E5E5"/>
<path d="M26.8232 13.5586L27.9247 17.1803L26.1348 15.7754L26.8232 13.5586Z" fill="#E5E5E5"/>
<path d="M26.1348 15.7754L27.9246 17.1802L28.7132 19.7837L26.1348 15.7754Z" fill="#CCCCCC"/>
<path d="M26.5222 25.0683L26.2969 22.1426L27.8365 22.3617L26.5222 25.0683Z" fill="#D8D8D8"/>
<path d="M27.8365 22.3614L26.2969 22.1423L28.7127 19.7837L27.8365 22.3614Z" fill="#F2F2F2"/>
<path d="M23.6686 9.29248L25.7714 10.852L26.0467 11.1227L23.6686 9.29248Z" fill="#E5E5E5"/>
<path d="M26.0468 11.123L26.8228 13.559L26.1344 15.7758L26.0468 11.123Z" fill="#D8D8D8"/>
<path d="M10.601 29.1668L9.72483 32.5565L8.07263 28.7544L10.601 29.1668Z" fill="#A5A5A5"/>
<path d="M10.6014 29.167L12.7543 31.2549L9.72522 32.5567L10.6014 29.167Z" fill="#BFBFBF"/>
<path d="M20.9526 8.05518L23.6688 9.29248L22.6925 10.6071L20.9526 8.05518Z" fill="#E5E5E5"/>
<path d="M22.6919 10.6071L23.6682 9.29248L26.0464 11.1227L22.6919 10.6071Z" fill="#F2F2F2"/>
<path d="M16.3334 31.8605L17.6226 29.9917L19.6127 30.9455L16.3334 31.8605Z" fill="#D8D8D8"/>
<path d="M16.3338 31.8605L15.1072 32.2859L17.623 29.9917L16.3338 31.8605Z" fill="#E5E5E5"/>
<path d="M4.99372 22.1042L4.11755 24.2694L3.09119 20.6606L4.99372 22.1042Z" fill="#BFBFBF"/>
<path d="M5.90778 14.3708L4.06783 15.5823L3.15411 12.0767L5.90778 14.3708Z" fill="#CCCCCC"/>
<path d="M6.43348 11.4453L5.90778 14.371L3.15411 12.0769L6.43348 11.4453Z" fill="#E5E5E5"/>
<path d="M22.2543 29.4374L22.6298 26.7437L24.67 27.4267L22.2543 29.4374Z" fill="#D8D8D8"/>
<path d="M26.1339 15.7754L28.7123 19.7837L25.1701 18.25L26.1339 15.7754Z" fill="#F2F2F2"/>
<path d="M25.1701 18.2505L28.7123 19.7842L26.2966 22.1428L25.1701 18.2505Z" fill="#D8D8D8"/>
<path d="M8.99957 8.54532L12.0662 7.41113L11.2526 9.69241L8.99957 8.54532Z" fill="#D8D8D8"/>
<path d="M26.1342 15.7754L25.1704 18.25L23.9188 14.1128L26.1342 15.7754Z" fill="#CCCCCC"/>
<path d="M26.0466 11.123L26.1342 15.7758L23.9188 14.1132L26.0466 11.123Z" fill="#F2F2F2"/>
<path d="M22.6919 10.6074L26.0464 11.123L23.9185 14.1131L22.6919 10.6074Z" fill="#D8D8D8"/>
<path d="M5.11914 26.4214L8.07307 28.7542L5.88266 27.8005L5.11914 26.4214Z" fill="#A5A5A5"/>
<path d="M4.99354 22.104L5.1187 26.4217L4.11737 24.2693L4.99354 22.104Z" fill="#A5A5A5"/>
<path d="M13.9181 29.3472L15.1072 32.2858L12.7541 31.2547L13.9181 29.3472Z" fill="#B2B2B2"/>
<path d="M13.918 29.3474L12.7539 31.2549L10.6011 29.167L13.918 29.3474Z" fill="#999999"/>
<path d="M13.9182 29.3472L17.6231 29.9916L15.1072 32.2858L13.9182 29.3472Z" fill="#D8D8D8"/>
<path d="M2.99115 18.4824L4.99382 22.1041L3.09128 20.6606L2.99115 18.4824Z" fill="#B2B2B2"/>
<path d="M4.06723 15.582L2.9908 18.482L2.77802 17.3478L4.06723 15.582Z" fill="#F2F2F2"/>
<path d="M2.9908 18.4823L3.09093 20.6605L2.77802 17.3481L2.9908 18.4823Z" fill="#A5A5A5"/>
<path d="M7.78534 9.29246L8.99946 8.54492L11.2525 9.692L7.78534 9.29246Z" fill="#E5E5E5"/>
<path d="M24.67 27.427L22.6298 26.7439L25.7339 25.1973L24.67 27.427Z" fill="#CCCCCC"/>
<path d="M26.5228 25.0683L25.7343 25.1972L26.2975 22.1426L26.5228 25.0683Z" fill="#CCCCCC"/>
<path d="M24.6696 27.427L25.7335 25.1972L26.522 25.0684L24.6696 27.427Z" fill="#D8D8D8"/>
<path d="M14.9191 7.26904L18.0107 7.44948L17.047 9.25388L14.9191 7.26904Z" fill="#D8D8D8"/>
<path d="M9.16202 26.5761L8.07307 28.7542L5.11914 26.4214L9.16202 26.5761Z" fill="#BFBFBF"/>
<path d="M10.601 29.1668L8.07263 28.7543L9.16158 26.5762L10.601 29.1668Z" fill="#999999"/>
<path d="M8.59801 12.6955L5.90692 14.371L6.43262 11.4453L8.59801 12.6955Z" fill="#D8D8D8"/>
<path d="M7.78534 9.29248L11.2525 9.69203L8.59892 12.6951L7.78534 9.29248Z" fill="#D8D8D8"/>
<path d="M7.78515 9.29248L8.59873 12.6951L6.43335 11.4449L7.78515 9.29248Z" fill="#E5E5E5"/>
<path d="M19.6133 30.9452L17.6231 29.9915L20.8399 29.6821L19.6133 30.9452Z" fill="#BFBFBF"/>
<path d="M22.2539 29.4374L20.8395 29.6822L22.6294 26.7437L22.2539 29.4374Z" fill="#BFBFBF"/>
<path d="M19.6133 30.9455L20.8399 29.6824L22.2543 29.4375L19.6133 30.9455Z" fill="#E5E5E5"/>
<path d="M6.34511 17.0901L4.06708 15.5821L5.90703 14.3706L6.34511 17.0901Z" fill="#BFBFBF"/>
<path d="M6.34561 17.09L2.99115 18.482L4.06758 15.582L6.34561 17.09Z" fill="#E5E5E5"/>
<path d="M17.0471 9.25411L18.0108 7.44971L20.5893 8.73856L17.0471 9.25411Z" fill="#F2F2F2"/>
<path d="M18.0118 7.44971L20.9532 8.05547L20.5902 8.73856L18.0118 7.44971Z" fill="#D8D8D8"/>
<path d="M20.5892 8.73827L20.9522 8.05518L22.692 10.6071L20.5892 8.73827Z" fill="#CCCCCC"/>
<path d="M25.1707 18.2505L26.2972 22.1428L23.5685 20.8411L25.1707 18.2505Z" fill="#E5E5E5"/>
<path d="M23.5685 20.8408L26.2972 22.1426L25.7339 25.1971L23.5685 20.8408Z" fill="#F2F2F2"/>
<path d="M7.81027 23.5089L5.11919 26.4217L4.99402 22.104L7.81027 23.5089Z" fill="#BFBFBF"/>
<path d="M7.81022 23.5088L9.16202 26.5763L5.11914 26.4216L7.81022 23.5088Z" fill="#A5A5A5"/>
<path d="M22.6925 10.6074L23.9192 14.1131L21.0779 12.9274L22.6925 10.6074Z" fill="#E5E5E5"/>
<path d="M20.5892 8.73828L22.692 10.6071L21.0773 12.9271L20.5892 8.73828Z" fill="#F2F2F2"/>
<path d="M16.5591 27.543L20.8398 29.6825L17.623 29.9918L16.5591 27.543Z" fill="#A5A5A5"/>
<path d="M16.5592 27.543L17.6231 29.9918L13.9182 29.3474L16.5592 27.543Z" fill="#BFBFBF"/>
<path d="M7.81027 23.5091L4.99402 22.1042L6.9341 20.2998L7.81027 23.5091Z" fill="#999999"/>
<path d="M6.34562 17.0903L6.9339 20.2996L2.99115 18.4823L6.34562 17.0903Z" fill="#B2B2B2"/>
<path d="M6.9339 20.2997L4.99382 22.1041L2.99115 18.4824L6.9339 20.2997Z" fill="#A5A5A5"/>
<path d="M14.0433 8.06813L14.9194 7.26904L17.0473 9.25388L14.0433 8.06813Z" fill="#CCCCCC"/>
<path d="M12.0663 7.41082L14.9201 7.26904L14.044 8.06813L12.0663 7.41082Z" fill="#D8D8D8"/>
<path d="M11.2526 9.69241L12.0662 7.41113L14.0438 8.06845L11.2526 9.69241Z" fill="#F2F2F2"/>
<path d="M23.5684 20.8408L25.7338 25.1971L21.5657 23.3154L23.5684 20.8408Z" fill="#E5E5E5"/>
<path d="M21.5657 23.3154L25.7338 25.1972L22.6297 26.7438L21.5657 23.3154Z" fill="#CCCCCC"/>
<path d="M19.1379 25.6743L22.6301 26.7441L20.8402 29.6827L19.1379 25.6743Z" fill="#CCCCCC"/>
<path d="M19.1375 25.6743L20.8398 29.6827L16.5591 27.5432L19.1375 25.6743Z" fill="#B2B2B2"/>
<path d="M21.5662 23.3154L22.6301 26.7438L19.1379 25.674L21.5662 23.3154Z" fill="#BFBFBF"/>
<path d="M11.2526 9.69232L14.0438 8.06836L11.7283 12.3345L11.2526 9.69232Z" fill="#E5E5E5"/>
<path d="M11.2526 9.69238L11.7282 12.3345L8.59906 12.6954L11.2526 9.69238Z" fill="#CCCCCC"/>
<path d="M17.0471 9.25382L20.5893 8.73828L17.9983 12.1409L17.0471 9.25382Z" fill="#D8D8D8"/>
<path d="M20.5894 8.73828L21.0775 12.9271L17.9984 12.1409L20.5894 8.73828Z" fill="#E5E5E5"/>
<path d="M14.0429 8.06836L14.7563 11.8576L11.7273 12.3345L14.0429 8.06836Z" fill="#BFBFBF"/>
<path d="M14.0433 8.06836L17.0473 9.2541L14.7567 11.8576L14.0433 8.06836Z" fill="#E5E5E5"/>
<path d="M17.0475 9.25391L17.9988 12.1409L14.757 11.8574L17.0475 9.25391Z" fill="#CCCCCC"/>
<path d="M11.1267 24.3981L9.16155 26.5763L7.80975 23.5088L11.1267 24.3981Z" fill="#999999"/>
<path d="M19.1376 25.6742L16.5592 27.543L15.0071 24.9009L19.1376 25.6742Z" fill="#A5A5A5"/>
<path d="M9.24987 18.3019L6.93429 20.2996L6.34601 17.0903L9.24987 18.3019Z" fill="#999999"/>
<path d="M12.078 28.0068L13.918 29.3472L10.6011 29.1668L12.078 28.0068Z" fill="#BFBFBF"/>
<path d="M11.1275 24.3979L15.0077 24.9006L12.0788 28.0068L11.1275 24.3979Z" fill="#BFBFBF"/>
<path d="M15.0064 24.9009L16.5584 27.543L12.0775 28.007L15.0064 24.9009Z" fill="#999999"/>
<path d="M12.0775 28.007L16.5584 27.543L13.9174 29.3474L12.0775 28.007Z" fill="#B2B2B2"/>
<path d="M11.1269 24.3979L12.0781 28.0068L9.16174 26.5761L11.1269 24.3979Z" fill="#A5A5A5"/>
<path d="M12.0781 28.0068L10.6012 29.1668L9.16174 26.5762L12.0781 28.0068Z" fill="#B2B2B2"/>
<path d="M23.5689 20.841L21.5662 23.3156L20.0642 19.3975L23.5689 20.841Z" fill="#CCCCCC"/>
<path d="M14.7563 11.8574L11.8274 15.2342L11.7273 12.3343L14.7563 11.8574Z" fill="#B2B2B2"/>
<path d="M21.0775 12.9273L18.7744 15.5695L17.9984 12.1411L21.0775 12.9273Z" fill="#D8D8D8"/>
<path d="M23.9186 14.1128L25.1703 18.25L23.105 16.3296L23.9186 14.1128Z" fill="#E5E5E5"/>
<path d="M21.0775 12.9272L23.1052 16.3298L18.7745 15.5694L21.0775 12.9272Z" fill="#E5E5E5"/>
<path d="M21.0779 12.9272L23.9192 14.113L23.1056 16.3298L21.0779 12.9272Z" fill="#D8D8D8"/>
<path d="M23.1058 16.3301L23.5689 20.8411L20.0642 19.3975L23.1058 16.3301Z" fill="#F2F2F2"/>
<path d="M23.105 16.3301L25.1703 18.2505L23.5682 20.8411L23.105 16.3301Z" fill="#D8D8D8"/>
<path d="M18.7745 15.5693L23.1052 16.3298L20.0637 19.3972L18.7745 15.5693Z" fill="#D8D8D8"/>
<path d="M7.93488 15.041L11.8276 15.2343L9.24913 18.3018L7.93488 15.041Z" fill="#BFBFBF"/>
<path d="M11.7274 12.3345L11.8276 15.2344L7.93488 15.0411L11.7274 12.3345Z" fill="#D8D8D8"/>
<path d="M7.93562 15.041L9.24987 18.3018L6.34601 17.0903L7.93562 15.041Z" fill="#A5A5A5"/>
<path d="M7.93462 15.0408L6.34501 17.0901L5.90692 14.3706L7.93462 15.0408Z" fill="#B2B2B2"/>
<path d="M8.59801 12.6953L7.93462 15.041L5.90692 14.3708L8.59801 12.6953Z" fill="#F2F2F2"/>
<path d="M8.59826 12.6954L11.7274 12.3345L7.93488 15.0411L8.59826 12.6954Z" fill="#E5E5E5"/>
<path d="M13.731 21.7041L15.0077 24.9005L11.1275 24.3978L13.731 21.7041Z" fill="#A5A5A5"/>
<path d="M11.8275 15.2344L12.6036 18.4694L9.24908 18.3018L11.8275 15.2344Z" fill="#999999"/>
<path d="M16.2964 18.5466L13.7304 21.7043L12.6039 18.4692L16.2964 18.5466Z" fill="#999999"/>
<path d="M18.7746 15.5693L20.0638 19.3972L16.2963 18.5466L18.7746 15.5693Z" fill="#CCCCCC"/>
<path d="M9.47424 21.8072L13.7299 21.7041L11.1264 24.3978L9.47424 21.8072Z" fill="#BFBFBF"/>
<path d="M9.47447 21.8076L11.1267 24.3982L7.80975 23.5089L9.47447 21.8076Z" fill="#A5A5A5"/>
<path d="M9.24954 18.3018L9.47484 21.8074L6.93396 20.2995L9.24954 18.3018Z" fill="#A5A5A5"/>
<path d="M9.47484 21.8078L7.81013 23.5091L6.93396 20.2998L9.47484 21.8078Z" fill="#BFBFBF"/>
<path d="M12.6034 18.4692L13.7299 21.7043L9.47424 21.8074L12.6034 18.4692Z" fill="#A5A5A5"/>
<path d="M9.24908 18.3018L12.6036 18.4693L9.47439 21.8074L9.24908 18.3018Z" fill="#B2B2B2"/>
<path d="M15.0821 14.4224L18.7745 15.5694L16.2962 18.5467L15.0821 14.4224Z" fill="#D8D8D8"/>
<path d="M17.9985 12.1411L18.7745 15.5695L15.0821 14.4224L17.9985 12.1411Z" fill="#F2F2F2"/>
<path d="M14.757 11.8574L17.9988 12.141L15.0824 14.4222L14.757 11.8574Z" fill="#BFBFBF"/>
<path d="M15.0822 14.4224L16.2964 18.5467L12.6039 18.4694L15.0822 14.4224Z" fill="#A5A5A5"/>
<path d="M14.7562 11.8574L15.0817 14.4222L11.8273 15.2342L14.7562 11.8574Z" fill="#F2F2F2"/>
<path d="M11.8273 15.2343L15.0817 14.4224L12.6034 18.4694L11.8273 15.2343Z" fill="#B2B2B2"/>
<path d="M20.0638 19.3975L21.5658 23.3156L17.8859 22.6583L20.0638 19.3975Z" fill="#F2F2F2"/>
<path d="M17.8859 22.6582L21.5658 23.3155L19.1375 25.6741L17.8859 22.6582Z" fill="#D8D8D8"/>
<path d="M16.2967 18.5469L17.8863 22.6583L13.7308 21.7046L16.2967 18.5469Z" fill="#B2B2B2"/>
<path d="M16.2963 18.5469L20.0638 19.3975L17.8859 22.6583L16.2963 18.5469Z" fill="#D8D8D8"/>
<path d="M17.886 22.6582L19.1376 25.6741L15.0071 24.9008L17.886 22.6582Z" fill="#BFBFBF"/>
<path d="M13.7308 21.7041L17.8863 22.6579L15.0075 24.9005L13.7308 21.7041Z" fill="#999999"/>
<path d="M3.15411 3.77637L6.05798 5.05234L7.13442 7.73315L3.15411 3.77637Z" fill="#727272"/>
<path d="M6.50821 3.93077L7.13404 7.73289L6.05761 5.05208L5.05627 2.78369L6.50821 3.93077Z" fill="#A5A5A5"/>
<path d="M1.02618 2.78369L3.15402 3.77611L6.05788 5.05208L5.05655 2.78369H1.02618Z" fill="#8C8C8C"/>
<path d="M3.31674 1.16016L5.05655 2.78411H1.02618L3.31674 1.16016Z" fill="#B2B2B2"/>
<path d="M0 1.16016H3.31692L1.02637 2.78411L0 1.16016Z" fill="#BFBFBF"/>
<path d="M3.31692 1.15997L5.5574 1.32752L3.5297 0L0 1.15997H3.31692Z" fill="#8C8C8C"/>
<path d="M6.62183 1.32752H5.55791L3.53021 0L6.62183 1.32752Z" fill="#A5A5A5"/>
<path d="M6.50871 3.93119L5.55744 1.32771L3.31696 1.16016L5.05677 2.78411L6.50871 3.93119Z" fill="#727272"/>
<path d="M7.74812 7.53994L6.50897 3.93115L7.13481 7.73327L7.74812 7.53994Z" fill="#727272"/>
<path d="M6.62135 1.32764L7.74785 7.53991L6.5087 3.93112L5.55743 1.32764H6.62135Z" fill="#8C8C8C"/>
</svg>
