<svg width="25" height="25" viewBox="0 0 25 25" fill="none" xmlns="http://www.w3.org/2000/svg">
<path d="M0.373738 17.4701L7.28368 24.3801C7.77821 24.8746 8.58079 24.8785 9.08 24.3911L0.362736 15.6738C-0.124643 16.1733 -0.120792 16.9756 0.373738 17.4701Z"/>
<path d="M15.5022 7.12047L7.1217 15.501L9.25364 17.6329L17.6341 9.2524L15.5022 7.12047Z"/>
<path d="M0.913242 12.6897L0.84558 12.7574C0.201701 13.4012 0.201701 14.4489 0.84558 15.0928L1.06809 15.3153H1.06617L9.43935 23.6885V23.6868L9.66186 23.9093C10.3057 24.5532 11.3531 24.5532 11.9973 23.909L12.0649 23.8414C12.7088 23.1975 12.7088 22.1499 12.0652 21.506L3.24892 12.6897C2.60477 12.0458 1.5574 12.0458 0.913242 12.6897Z"/>
<path d="M12.7585 0.844482L12.6908 0.912143C12.0469 1.55602 12.0469 2.60367 12.6908 3.24755L21.5073 12.0641C22.1512 12.708 23.1986 12.708 23.8428 12.0638L23.9104 11.9962C24.5543 11.3523 24.5543 10.3046 23.9107 9.66076L15.0941 0.844482C14.45 0.200602 13.4026 0.200602 12.7585 0.844482Z"/>
<path d="M15.672 0.364963L24.3906 9.08085C24.8788 8.58164 24.8755 7.77852 24.3805 7.28371L17.4705 0.373765C16.9752 -0.121591 16.1709 -0.124616 15.672 0.364963Z"/>
<path d="M2.25569 22.4987C2.71254 22.9556 3.3655 23.1418 4.0025 22.9971L4.53223 22.8763L1.87805 20.2222L1.75731 20.7519C1.61236 21.3889 1.79884 22.0419 2.25569 22.4987Z"/>
<path d="M20.7513 1.75719L20.2216 1.87793L22.8757 4.53211L22.9965 4.00238C23.1414 3.36537 22.955 2.71242 22.4981 2.25557C22.0413 1.79872 21.3883 1.61224 20.7513 1.75719Z"/>
</svg>
