<svg width="17" height="23" viewBox="0 0 17 23" fill="none" xmlns="http://www.w3.org/2000/svg">
<path d="M4.30376 0C4.13731 0 4.00293 0.11663 4.00293 0.261145V1.19362H1.93379C1.58939 1.19362 1.31209 1.45135 1.31209 1.77128V14.3126C1.31209 16.0839 4.05993 17.5102 7.47318 17.5102H9.52658C12.9398 17.5102 15.6877 16.0839 15.6877 14.3126V1.77128C15.6877 1.45137 15.4104 1.19362 15.066 1.19362H12.9968V0.261145C12.9968 0.116622 12.8624 0 12.696 0H4.30376ZM6.05872 0.950933C6.17699 0.950914 6.29044 0.997498 6.37411 1.08045C6.45779 1.1634 6.50485 1.27592 6.50496 1.39329C6.50497 1.45144 6.49343 1.50903 6.47101 1.56276C6.44859 1.61649 6.41572 1.66531 6.37428 1.70643C6.33284 1.74755 6.28364 1.78016 6.2295 1.80241C6.17535 1.82466 6.11732 1.83611 6.05872 1.8361C5.94044 1.836 5.82704 1.7893 5.74345 1.70626C5.65986 1.62323 5.61292 1.51066 5.61294 1.39329C5.61304 1.276 5.66004 1.16354 5.74362 1.08061C5.8272 0.997674 5.94052 0.951036 6.05872 0.950933ZM10.9407 0.950933C11.059 0.950914 11.1724 0.997498 11.2561 1.08045C11.3398 1.1634 11.3869 1.27592 11.387 1.39329C11.387 1.45144 11.3754 1.50903 11.353 1.56276C11.3306 1.61649 11.2977 1.66531 11.2563 1.70643C11.2148 1.74755 11.1656 1.78016 11.1115 1.80241C11.0574 1.82466 10.9993 1.83611 10.9407 1.8361C10.8224 1.836 10.7091 1.7893 10.6255 1.70626C10.5419 1.62323 10.4949 1.51066 10.4949 1.39329C10.495 1.276 10.542 1.16354 10.6256 1.08061C10.7092 0.997674 10.8225 0.951036 10.9407 0.950933ZM2.88492 2.81353H14.1111C14.3136 2.81353 14.4762 2.96265 14.4763 3.14803L14.4801 8.07588V9.69151C14.4801 11.2704 11.8136 12.542 8.5016 12.542C5.18965 12.542 2.52359 11.2707 2.52359 9.69151V8.07588C2.54294 6.10641 2.51977 5.08293 2.51977 3.14803C2.51977 2.96263 2.68267 2.81353 2.88497 2.81353H2.88492ZM0.480633 3.83401C0.351321 3.83601 0.228092 3.88885 0.137991 3.98091C0.0478911 4.07298 -0.00171914 4.19675 4.88245e-05 4.32508V7.27298C-0.000866087 7.33717 0.0110855 7.40091 0.0352093 7.46048C0.0593331 7.52005 0.0951481 7.57427 0.140572 7.61999C0.185997 7.66571 0.240125 7.70201 0.299811 7.72679C0.359497 7.75157 0.42355 7.76433 0.488249 7.76433C0.552948 7.76433 0.617002 7.75157 0.676688 7.72679C0.736374 7.70201 0.790502 7.66571 0.835926 7.61999C0.881351 7.57427 0.917166 7.52005 0.941289 7.46048C0.965413 7.40091 0.977365 7.33717 0.97645 7.27298V4.32508C0.977343 4.26026 0.965121 4.19593 0.940508 4.13589C0.915895 4.07585 0.879391 4.02132 0.833159 3.97553C0.786926 3.92974 0.731904 3.89362 0.671351 3.86931C0.610799 3.84501 0.545945 3.833 0.480633 3.83401ZM16.5046 3.83401C16.3752 3.83589 16.2519 3.88867 16.1617 3.98075C16.0715 4.07283 16.0218 4.19668 16.0236 4.32508V7.27298C16.0226 7.33717 16.0346 7.40091 16.0587 7.46048C16.0828 7.52005 16.1186 7.57427 16.1641 7.61999C16.2095 7.66571 16.2636 7.70201 16.3233 7.72679C16.383 7.75157 16.4471 7.76433 16.5118 7.76433C16.5765 7.76433 16.6405 7.75157 16.7002 7.72679C16.7599 7.70201 16.814 7.66571 16.8594 7.61999C16.9049 7.57427 16.9407 7.52005 16.9648 7.46048C16.9889 7.40091 17.0009 7.33717 17 7.27298V4.32508C17.0008 4.2603 16.9886 4.19601 16.9641 4.136C16.9395 4.07599 16.903 4.02148 16.8568 3.9757C16.8106 3.92991 16.7557 3.89379 16.6952 3.86945C16.6347 3.84511 16.5699 3.83306 16.5046 3.83401ZM5.86671 14.3973H11.1329C11.2823 14.3973 11.4028 14.509 11.4028 14.648V14.8666C11.4028 15.0056 11.2823 15.1173 11.1329 15.1173H5.86671C5.7173 15.1173 5.59734 15.0056 5.59734 14.8666V14.648C5.59734 14.509 5.7173 14.3973 5.86671 14.3973ZM13.5205 17.1356C13.4399 17.1344 13.3603 17.1529 13.2887 17.1896C13.2172 17.2263 13.1558 17.28 13.1102 17.3459C13.0646 17.4118 13.0362 17.4878 13.0274 17.5673C13.0186 17.6468 13.0298 17.7271 13.0599 17.8013L13.3565 18.562H3.63199L3.92853 17.8013C3.9591 17.726 3.97014 17.6444 3.96063 17.5638C3.95112 17.4832 3.92137 17.4063 3.87411 17.34C3.82684 17.2738 3.76358 17.2205 3.69012 17.1848C3.61666 17.1492 3.53536 17.1324 3.45368 17.1361C3.35792 17.1405 3.26558 17.1728 3.18818 17.2289C3.11077 17.285 3.05172 17.3625 3.0184 17.4517L1.11708 22.3255C1.09288 22.385 1.08086 22.4488 1.0817 22.513C1.08254 22.5771 1.09622 22.6405 1.12196 22.6994C1.1477 22.7583 1.18498 22.8116 1.23164 22.856C1.27829 22.9005 1.33338 22.9354 1.39372 22.9585C1.45406 22.9817 1.51843 22.9927 1.58311 22.991C1.64778 22.9893 1.71146 22.9748 1.77044 22.9484C1.82943 22.922 1.88255 22.8843 1.92671 22.8374C1.97087 22.7905 2.0052 22.7353 2.02769 22.6751L2.30946 21.9532H14.6795L14.9612 22.6751C14.9828 22.7365 15.0166 22.7929 15.0606 22.8411C15.1047 22.8892 15.158 22.9281 15.2174 22.9553C15.2769 22.9826 15.3413 22.9977 15.4067 22.9998C15.4722 23.0018 15.5374 22.9908 15.5985 22.9673C15.6596 22.9439 15.7153 22.9084 15.7623 22.8632C15.8093 22.8179 15.8466 22.7637 15.8721 22.7038C15.8976 22.6439 15.9106 22.5796 15.9105 22.5146C15.9104 22.4496 15.8971 22.3853 15.8714 22.3255L13.9705 17.4517C13.9363 17.3601 13.8751 17.281 13.7948 17.2246C13.7145 17.1682 13.6188 17.1372 13.5205 17.1356V17.1356ZM3.25386 19.531H13.7345L14.3014 20.9843H2.68713L3.25386 19.531Z"/>
</svg>
