<svg width="540" height="580" viewBox="0 0 540 580" fill="none" xmlns="http://www.w3.org/2000/svg">
<path opacity="0.4" d="M288.497 206.777L288.502 206.777C335.541 206.681 373.594 244.013 373.594 289.951C373.594 335.887 335.541 373.223 288.497 373.223C241.457 373.223 203.5 335.891 203.5 289.951C203.5 244.016 241.552 206.777 288.497 206.777Z" fill="#1C252C" stroke="#FFA409" stroke-width="5"/>
<mask id="path-2-inside-1" fill="white">
<path fill-rule="evenodd" clip-rule="evenodd" d="M288.497 375.723C336.872 375.723 376.094 337.317 376.094 289.951C376.094 242.584 336.872 204.178 288.497 204.277C240.223 204.277 201 242.584 201 289.951C201 337.317 240.122 375.723 288.497 375.723ZM274.217 263.942H268.099V281.017H274.231V271.842C274.231 270.81 274.604 269.706 275.22 269.132C275.707 268.673 276.509 268.329 277.469 268.329C278.086 268.329 278.845 268.444 279.418 269.061C280.182 269.866 280.18 271.258 280.178 272.243L280.177 272.387V281.032H286.295V270.164C286.295 268.301 286.138 266.838 284.691 265.39C283.272 263.971 281.41 263.555 279.647 263.555C278.157 263.555 275.908 263.856 274.217 266.079V263.942ZM297.214 268.946V281.032H291.095V268.946H289.147V263.942H291.095V256H297.214V263.942H300.695V268.946H297.214ZM342.132 256H348.25V281.032H342.132V256ZM240.546 276.802C238.168 276.802 236.248 274.881 236.248 272.501C236.248 270.121 238.168 268.2 240.546 268.2C241.735 268.2 242.824 268.688 243.598 269.476V264.358C242.065 263.598 240.689 263.398 239.629 263.398C236.72 263.398 234.356 264.473 232.752 265.992C231.032 267.67 230.001 270.093 230.001 272.602C230.001 275.125 231.032 277.419 232.637 278.996C233.855 280.186 236.047 281.605 239.371 281.605C240.632 281.605 241.965 281.447 243.612 280.644V275.526C242.81 276.315 241.735 276.802 240.546 276.802ZM331.83 265.591V263.943H337.963V281.032H331.844V279.154C330.426 281.103 328.205 281.605 326.529 281.605C324.709 281.605 322.445 281.075 320.382 278.896C318.734 277.132 317.932 275.182 317.932 272.616C317.932 269.405 319.193 267.154 320.568 265.778C322.015 264.33 324.265 263.369 326.715 263.369C329.466 263.369 331.099 264.788 331.83 265.591ZM323.434 272.501C323.434 274.881 325.354 276.802 327.732 276.802C330.096 276.802 332.031 274.881 332.031 272.501C332.031 270.122 330.111 268.2 327.732 268.2C325.354 268.2 323.434 270.122 323.434 272.501ZM309.091 272.975C309.091 270.595 311.011 268.674 313.39 268.674C314.321 268.674 315.195 268.975 315.897 269.491V263.742C315.483 263.72 315.209 263.701 315.023 263.689H315.022H315.022L315.022 263.689L315.022 263.689L315.021 263.689C314.847 263.677 314.748 263.67 314.679 263.67C313.533 263.67 312.416 263.857 311.513 264.358C310.596 264.817 309.708 265.577 309.106 266.724V263.943H302.988V281.032H309.106V273.72V273.706V272.975H309.091ZM299.018 304.489V290.396H292.9V315.428H299.018V308.431L305.251 315.428H313.733L305.022 306.224L313.074 298.339H304.792L299.018 304.489ZM247.423 300.245C246.047 298.869 243.984 297.75 241.348 297.75C238.826 297.75 237.178 298.854 236.118 300.202V298.338H230V323.499H236.118V313.793C238.038 315.786 240.316 316.015 241.434 316.015C243.153 316.015 245.374 315.513 247.28 313.635C248.927 312.03 250.031 309.736 250.031 306.869C250.031 303.915 248.841 301.664 247.423 300.245ZM240.216 311.198C237.837 311.198 235.917 309.277 235.917 306.897C235.917 304.517 237.837 302.596 240.216 302.596C242.594 302.596 244.514 304.517 244.514 306.897C244.514 309.277 242.58 311.198 240.216 311.198ZM266.752 299.987V298.339H272.884V315.428H266.766V313.55C265.347 315.499 263.127 316.001 261.45 316.001C259.616 316.001 257.352 315.471 255.289 313.292C253.641 311.528 252.839 309.578 252.839 307.012C252.839 303.801 254.1 301.55 255.475 300.174C256.937 298.726 259.186 297.765 261.636 297.765C264.387 297.765 266.021 299.185 266.752 299.987ZM258.37 306.898C258.37 309.277 260.29 311.199 262.668 311.199C265.032 311.199 266.966 309.277 266.952 306.883C266.952 306.788 266.939 306.692 266.927 306.597C266.92 306.549 266.914 306.501 266.909 306.453C266.902 306.408 266.898 306.364 266.894 306.317C266.891 306.274 266.887 306.229 266.88 306.181C266.852 305.966 266.794 305.751 266.723 305.55C266.723 305.536 266.723 305.521 266.709 305.507C266.135 303.815 264.545 302.597 262.668 302.597C260.29 302.597 258.37 304.518 258.37 306.898ZM283.186 307.37C283.186 304.991 285.106 303.069 287.484 303.069C288.415 303.069 289.289 303.385 289.992 303.887V298.138C289.577 298.115 289.304 298.097 289.117 298.084H289.117C288.942 298.073 288.843 298.066 288.774 298.066C287.627 298.066 286.51 298.252 285.607 298.754C284.69 299.213 283.802 299.973 283.2 301.12V298.338H277.082V315.428H283.2V307.37H283.186ZM265.176 273.619H264.546L252.338 273.634C252.61 275.942 253.814 277.677 256.049 277.677C257.525 277.677 258.542 276.917 259.144 275.741H264.947C264.675 276.687 264.144 278.035 262.883 279.254C261.623 280.472 259.631 281.619 255.92 281.619C253.671 281.619 250.948 281.132 248.856 279.024C247.753 277.906 246.335 275.813 246.335 272.559C246.335 269.677 247.409 267.383 248.899 265.935C250.318 264.559 252.524 263.455 255.891 263.455C257.883 263.455 260.448 263.885 262.468 265.792C264.875 268.086 265.176 271.068 265.176 272.974V273.619ZM259.473 270.093C258.929 268.458 257.797 267.34 256.063 267.34C254.33 267.34 253.198 268.473 252.653 270.093H259.473Z"/>
</mask>
<path fill-rule="evenodd" clip-rule="evenodd" d="M288.497 375.723C336.872 375.723 376.094 337.317 376.094 289.951C376.094 242.584 336.872 204.178 288.497 204.277C240.223 204.277 201 242.584 201 289.951C201 337.317 240.122 375.723 288.497 375.723ZM274.217 263.942H268.099V281.017H274.231V271.842C274.231 270.81 274.604 269.706 275.22 269.132C275.707 268.673 276.509 268.329 277.469 268.329C278.086 268.329 278.845 268.444 279.418 269.061C280.182 269.866 280.18 271.258 280.178 272.243L280.177 272.387V281.032H286.295V270.164C286.295 268.301 286.138 266.838 284.691 265.39C283.272 263.971 281.41 263.555 279.647 263.555C278.157 263.555 275.908 263.856 274.217 266.079V263.942ZM297.214 268.946V281.032H291.095V268.946H289.147V263.942H291.095V256H297.214V263.942H300.695V268.946H297.214ZM342.132 256H348.25V281.032H342.132V256ZM240.546 276.802C238.168 276.802 236.248 274.881 236.248 272.501C236.248 270.121 238.168 268.2 240.546 268.2C241.735 268.2 242.824 268.688 243.598 269.476V264.358C242.065 263.598 240.689 263.398 239.629 263.398C236.72 263.398 234.356 264.473 232.752 265.992C231.032 267.67 230.001 270.093 230.001 272.602C230.001 275.125 231.032 277.419 232.637 278.996C233.855 280.186 236.047 281.605 239.371 281.605C240.632 281.605 241.965 281.447 243.612 280.644V275.526C242.81 276.315 241.735 276.802 240.546 276.802ZM331.83 265.591V263.943H337.963V281.032H331.844V279.154C330.426 281.103 328.205 281.605 326.529 281.605C324.709 281.605 322.445 281.075 320.382 278.896C318.734 277.132 317.932 275.182 317.932 272.616C317.932 269.405 319.193 267.154 320.568 265.778C322.015 264.33 324.265 263.369 326.715 263.369C329.466 263.369 331.099 264.788 331.83 265.591ZM323.434 272.501C323.434 274.881 325.354 276.802 327.732 276.802C330.096 276.802 332.031 274.881 332.031 272.501C332.031 270.122 330.111 268.2 327.732 268.2C325.354 268.2 323.434 270.122 323.434 272.501ZM309.091 272.975C309.091 270.595 311.011 268.674 313.39 268.674C314.321 268.674 315.195 268.975 315.897 269.491V263.742C315.483 263.72 315.209 263.701 315.023 263.689H315.022H315.022L315.022 263.689L315.022 263.689L315.021 263.689C314.847 263.677 314.748 263.67 314.679 263.67C313.533 263.67 312.416 263.857 311.513 264.358C310.596 264.817 309.708 265.577 309.106 266.724V263.943H302.988V281.032H309.106V273.72V273.706V272.975H309.091ZM299.018 304.489V290.396H292.9V315.428H299.018V308.431L305.251 315.428H313.733L305.022 306.224L313.074 298.339H304.792L299.018 304.489ZM247.423 300.245C246.047 298.869 243.984 297.75 241.348 297.75C238.826 297.75 237.178 298.854 236.118 300.202V298.338H230V323.499H236.118V313.793C238.038 315.786 240.316 316.015 241.434 316.015C243.153 316.015 245.374 315.513 247.28 313.635C248.927 312.03 250.031 309.736 250.031 306.869C250.031 303.915 248.841 301.664 247.423 300.245ZM240.216 311.198C237.837 311.198 235.917 309.277 235.917 306.897C235.917 304.517 237.837 302.596 240.216 302.596C242.594 302.596 244.514 304.517 244.514 306.897C244.514 309.277 242.58 311.198 240.216 311.198ZM266.752 299.987V298.339H272.884V315.428H266.766V313.55C265.347 315.499 263.127 316.001 261.45 316.001C259.616 316.001 257.352 315.471 255.289 313.292C253.641 311.528 252.839 309.578 252.839 307.012C252.839 303.801 254.1 301.55 255.475 300.174C256.937 298.726 259.186 297.765 261.636 297.765C264.387 297.765 266.021 299.185 266.752 299.987ZM258.37 306.898C258.37 309.277 260.29 311.199 262.668 311.199C265.032 311.199 266.966 309.277 266.952 306.883C266.952 306.788 266.939 306.692 266.927 306.597C266.92 306.549 266.914 306.501 266.909 306.453C266.902 306.408 266.898 306.364 266.894 306.317C266.891 306.274 266.887 306.229 266.88 306.181C266.852 305.966 266.794 305.751 266.723 305.55C266.723 305.536 266.723 305.521 266.709 305.507C266.135 303.815 264.545 302.597 262.668 302.597C260.29 302.597 258.37 304.518 258.37 306.898ZM283.186 307.37C283.186 304.991 285.106 303.069 287.484 303.069C288.415 303.069 289.289 303.385 289.992 303.887V298.138C289.577 298.115 289.304 298.097 289.117 298.084H289.117C288.942 298.073 288.843 298.066 288.774 298.066C287.627 298.066 286.51 298.252 285.607 298.754C284.69 299.213 283.802 299.973 283.2 301.12V298.338H277.082V315.428H283.2V307.37H283.186ZM265.176 273.619H264.546L252.338 273.634C252.61 275.942 253.814 277.677 256.049 277.677C257.525 277.677 258.542 276.917 259.144 275.741H264.947C264.675 276.687 264.144 278.035 262.883 279.254C261.623 280.472 259.631 281.619 255.92 281.619C253.671 281.619 250.948 281.132 248.856 279.024C247.753 277.906 246.335 275.813 246.335 272.559C246.335 269.677 247.409 267.383 248.899 265.935C250.318 264.559 252.524 263.455 255.891 263.455C257.883 263.455 260.448 263.885 262.468 265.792C264.875 268.086 265.176 271.068 265.176 272.974V273.619ZM259.473 270.093C258.929 268.458 257.797 267.34 256.063 267.34C254.33 267.34 253.198 268.473 252.653 270.093H259.473Z" fill="#FFA409"/>
<path d="M288.497 204.277V209.277L288.507 209.277L288.497 204.277ZM268.099 263.942V258.942H263.099V263.942H268.099ZM274.217 263.942H279.217V258.942H274.217V263.942ZM268.099 281.017H263.099V286.017H268.099V281.017ZM274.231 281.017V286.017H279.231V281.017H274.231ZM275.22 269.132L278.627 272.792L278.637 272.782L278.648 272.772L275.22 269.132ZM279.418 269.061L275.756 272.465L275.773 272.483L275.79 272.502L279.418 269.061ZM280.178 272.243L275.178 272.233V272.236L280.178 272.243ZM280.177 272.387L275.177 272.38V272.387H280.177ZM280.177 281.032H275.177V286.032H280.177V281.032ZM286.295 281.032V286.032H291.295V281.032H286.295ZM284.691 265.39L288.227 261.856L288.227 261.856L284.691 265.39ZM274.217 266.079H269.217V280.908L278.196 269.106L274.217 266.079ZM297.214 281.032V286.032H302.214V281.032H297.214ZM297.214 268.946V263.946H292.214V268.946H297.214ZM291.095 281.032H286.095V286.032H291.095V281.032ZM291.095 268.946H296.095V263.946H291.095V268.946ZM289.147 268.946H284.147V273.946H289.147V268.946ZM289.147 263.942V258.942H284.147V263.942H289.147ZM291.095 263.942V268.942H296.095V263.942H291.095ZM291.095 256V251H286.095V256H291.095ZM297.214 256H302.214V251H297.214V256ZM297.214 263.942H292.214V268.942H297.214V263.942ZM300.695 263.942H305.695V258.942H300.695V263.942ZM300.695 268.946V273.946H305.695V268.946H300.695ZM348.25 256H353.25V251H348.25V256ZM342.132 256V251H337.132V256H342.132ZM348.25 281.032V286.032H353.25V281.032H348.25ZM342.132 281.032H337.132V286.032H342.132V281.032ZM243.598 269.476L240.029 272.978L248.598 281.711V269.476H243.598ZM243.598 264.358H248.598V261.256L245.818 259.878L243.598 264.358ZM232.752 265.992L229.314 262.362L229.287 262.388L229.26 262.414L232.752 265.992ZM232.637 278.996L229.132 282.562L229.138 282.567L229.143 282.572L232.637 278.996ZM243.612 280.644L245.802 285.139L248.612 283.77V280.644H243.612ZM243.612 275.526H248.612V263.602L240.108 271.96L243.612 275.526ZM331.83 263.943V258.943H326.83V263.943H331.83ZM331.83 265.591L328.132 268.957L336.83 278.513V265.591H331.83ZM337.963 263.943H342.963V258.943H337.963V263.943ZM337.963 281.032V286.032H342.963V281.032H337.963ZM331.844 281.032H326.844V286.032H331.844V281.032ZM331.844 279.154H336.844V263.782L327.801 276.212L331.844 279.154ZM320.382 278.896L316.729 282.309L316.74 282.321L316.751 282.333L320.382 278.896ZM320.568 265.778L317.032 262.243L320.568 265.778ZM309.091 272.975H304.091V277.975H309.091V272.975ZM315.897 269.491L312.936 273.519L320.897 279.372V269.491H315.897ZM315.897 263.742H320.897V259.003L316.165 258.749L315.897 263.742ZM315.023 263.689L315.359 258.7L315.191 258.689H315.023V263.689ZM315.022 263.689L314.402 268.65L314.711 268.689H315.022V263.689ZM315.022 263.689L315.642 258.727L315.505 258.71L315.366 258.7L315.022 263.689ZM315.022 263.689L314.628 268.673L314.653 268.675L314.678 268.677L315.022 263.689ZM315.021 263.689L315.415 258.704L315.386 258.702L315.357 258.7L315.021 263.689ZM311.513 264.358L313.75 268.83L313.847 268.781L313.942 268.729L311.513 264.358ZM309.106 266.724H304.106L313.533 269.047L309.106 266.724ZM309.106 263.943H314.106V258.943H309.106V263.943ZM302.988 263.943V258.943H297.988V263.943H302.988ZM302.988 281.032H297.988V286.032H302.988V281.032ZM309.106 281.032V286.032H314.106V281.032H309.106ZM309.106 272.975H314.106V267.975H309.106V272.975ZM299.018 290.396H304.018V285.396H299.018V290.396ZM299.018 304.489H294.018V317.12L302.663 307.911L299.018 304.489ZM292.9 290.396V285.396H287.9V290.396H292.9ZM292.9 315.428H287.9V320.428H292.9V315.428ZM299.018 315.428V320.428H304.018V315.428H299.018ZM299.018 308.431L302.751 305.106L294.018 295.302V308.431H299.018ZM305.251 315.428L301.517 318.754L303.009 320.428H305.251V315.428ZM313.733 315.428V320.428H325.35L317.364 311.991L313.733 315.428ZM305.022 306.224L301.523 302.651L298.011 306.09L301.39 309.661L305.022 306.224ZM313.074 298.339L316.572 301.911L325.326 293.339H313.074V298.339ZM304.792 298.339V293.339H302.628L301.147 294.916L304.792 298.339ZM247.423 300.245L250.96 296.711H250.96L247.423 300.245ZM236.118 300.202H231.118V314.643L240.048 303.294L236.118 300.202ZM236.118 298.338H241.118V293.338H236.118V298.338ZM230 298.338V293.338H225V298.338H230ZM230 323.499H225V328.499H230V323.499ZM236.118 323.499V328.499H241.118V323.499H236.118ZM236.118 313.793L239.719 310.324L231.118 301.397V313.793H236.118ZM247.28 313.635L243.79 310.054L243.78 310.064L243.77 310.074L247.28 313.635ZM266.752 298.339V293.339H261.752V298.339H266.752ZM266.752 299.987L263.054 303.353L271.752 312.909V299.987H266.752ZM272.884 298.339H277.884V293.339H272.884V298.339ZM272.884 315.428V320.428H277.884V315.428H272.884ZM266.766 315.428H261.766V320.428H266.766V315.428ZM266.766 313.55H271.766V298.178L262.723 310.608L266.766 313.55ZM255.289 313.292L251.636 316.705L251.647 316.717L251.658 316.729L255.289 313.292ZM255.475 300.174L251.956 296.622L251.947 296.631L251.939 296.639L255.475 300.174ZM266.952 306.883H261.952V306.898L261.952 306.913L266.952 306.883ZM266.927 306.597L271.883 305.936L271.883 305.936L266.927 306.597ZM266.909 306.453L271.884 305.956L271.868 305.793L271.841 305.632L266.909 306.453ZM266.894 306.317L261.91 306.714L261.91 306.715L266.894 306.317ZM266.88 306.181L261.924 306.841L261.927 306.864L261.931 306.888L266.88 306.181ZM266.723 305.55H261.723V306.415L262.014 307.231L266.723 305.55ZM266.709 305.507L261.973 307.111L262.347 308.216L263.172 309.042L266.709 305.507ZM283.186 307.37H278.186V312.37H283.186V307.37ZM289.992 303.887L287.084 307.954L294.992 313.606V303.887H289.992ZM289.992 298.138H294.992V293.399L290.259 293.145L289.992 298.138ZM289.117 298.084L289.453 293.096L289.285 293.084H289.117V298.084ZM289.117 298.084L288.781 303.073L288.948 303.084H289.117V298.084ZM285.607 298.754L287.844 303.226L287.941 303.177L288.036 303.124L285.607 298.754ZM283.2 301.12H278.2L287.628 303.443L283.2 301.12ZM283.2 298.338H288.2V293.338H283.2V298.338ZM277.082 298.338V293.338H272.082V298.338H277.082ZM277.082 315.428H272.082V320.428H277.082V315.428ZM283.2 315.428V320.428H288.2V315.428H283.2ZM283.2 307.37H288.2V302.37H283.2V307.37ZM264.546 273.619V268.619H264.54L264.546 273.619ZM265.176 273.619V278.619H270.176V273.619H265.176ZM252.338 273.634L252.332 268.634L246.714 268.64L247.372 274.219L252.338 273.634ZM259.144 275.741V270.741H256.086L254.693 273.463L259.144 275.741ZM264.947 275.741L269.752 277.124L271.588 270.741H264.947V275.741ZM262.883 279.254L266.358 282.849L266.358 282.849L262.883 279.254ZM248.856 279.024L245.297 282.536L245.302 282.541L245.308 282.547L248.856 279.024ZM248.899 265.935L245.418 262.347L245.415 262.349L248.899 265.935ZM262.468 265.792L265.917 262.172L265.909 262.164L265.9 262.155L262.468 265.792ZM259.473 270.093V275.093H266.409L264.217 268.512L259.473 270.093ZM252.653 270.093L247.914 268.5L245.698 275.093H252.653V270.093ZM371.094 289.951C371.094 334.457 334.21 370.723 288.497 370.723V380.723C339.533 380.723 381.094 340.177 381.094 289.951H371.094ZM288.507 209.277C334.21 209.184 371.094 245.442 371.094 289.951H381.094C381.094 239.725 339.533 199.173 288.487 199.277L288.507 209.277ZM206 289.951C206 245.447 242.881 209.277 288.497 209.277V199.277C237.565 199.277 196 239.72 196 289.951H206ZM288.497 370.723C242.791 370.723 206 334.465 206 289.951H196C196 340.17 237.453 380.723 288.497 380.723V370.723ZM268.099 268.942H274.217V258.942H268.099V268.942ZM273.099 281.017V263.942H263.099V281.017H273.099ZM274.231 276.017H268.099V286.017H274.231V276.017ZM269.231 271.842V281.017H279.231V271.842H269.231ZM271.813 265.472C269.849 267.301 269.231 269.952 269.231 271.842H279.231C279.231 271.897 279.226 271.932 279.204 271.996C279.189 272.036 279.154 272.124 279.08 272.247C279.007 272.366 278.867 272.568 278.627 272.792L271.813 265.472ZM277.469 263.329C275.369 263.329 273.3 264.072 271.792 265.492L278.648 272.772C278.361 273.042 278.1 273.174 277.926 273.239C277.741 273.309 277.585 273.329 277.469 273.329V263.329ZM283.08 265.656C281.093 263.519 278.592 263.329 277.469 263.329V273.329C277.469 273.329 277.458 273.329 277.438 273.328C277.419 273.327 277.387 273.325 277.347 273.32C277.267 273.31 277.135 273.288 276.969 273.236C276.608 273.124 276.149 272.887 275.756 272.465L283.08 265.656ZM285.178 272.253C285.178 271.82 285.191 270.815 285.018 269.768C284.848 268.741 284.41 267.058 283.046 265.619L275.79 272.502C275.481 272.175 275.318 271.862 275.239 271.67C275.163 271.487 275.149 271.38 275.152 271.401C275.155 271.418 275.165 271.491 275.171 271.646C275.178 271.805 275.178 271.974 275.178 272.233L285.178 272.253ZM285.177 272.394L285.178 272.25L275.178 272.236L275.177 272.38L285.177 272.394ZM285.177 281.032V272.387H275.177V281.032H285.177ZM286.295 276.032H280.177V286.032H286.295V276.032ZM281.295 270.164V281.032H291.295V270.164H281.295ZM281.154 268.925C281.246 269.017 281.26 269.051 281.246 269.026C281.23 269 281.222 268.975 281.224 268.981C281.229 268.998 281.25 269.081 281.268 269.277C281.286 269.484 281.295 269.755 281.295 270.164H291.295C291.295 267.938 291.123 264.753 288.227 261.856L281.154 268.925ZM279.647 268.555C280.696 268.555 281.033 268.803 281.154 268.925L288.227 261.856C285.512 259.139 282.123 258.555 279.647 258.555V268.555ZM278.196 269.106C278.323 268.939 278.427 268.851 278.496 268.801C278.567 268.749 278.643 268.71 278.733 268.676C278.933 268.603 279.221 268.555 279.647 268.555V258.555C277.483 258.555 273.306 259.018 270.238 263.051L278.196 269.106ZM269.217 263.942V266.079H279.217V263.942H269.217ZM302.214 281.032V268.946H292.214V281.032H302.214ZM291.095 286.032H297.214V276.032H291.095V286.032ZM286.095 268.946V281.032H296.095V268.946H286.095ZM289.147 273.946H291.095V263.946H289.147V273.946ZM284.147 263.942V268.946H294.147V263.942H284.147ZM291.095 258.942H289.147V268.942H291.095V258.942ZM286.095 256V263.942H296.095V256H286.095ZM297.214 251H291.095V261H297.214V251ZM302.214 263.942V256H292.214V263.942H302.214ZM300.695 258.942H297.214V268.942H300.695V258.942ZM305.695 268.946V263.942H295.695V268.946H305.695ZM297.214 273.946H300.695V263.946H297.214V273.946ZM348.25 251H342.132V261H348.25V251ZM353.25 281.032V256H343.25V281.032H353.25ZM342.132 286.032H348.25V276.032H342.132V286.032ZM337.132 256V281.032H347.132V256H337.132ZM231.248 272.501C231.248 277.64 235.403 281.802 240.546 281.802V271.802C240.932 271.802 241.248 272.122 241.248 272.501H231.248ZM240.546 263.2C235.403 263.2 231.248 267.363 231.248 272.501H241.248C241.248 272.88 240.932 273.2 240.546 273.2V263.2ZM247.167 265.974C245.479 264.254 243.115 263.2 240.546 263.2V273.2C240.356 273.2 240.169 273.121 240.029 272.978L247.167 265.974ZM238.598 264.358V269.476H248.598V264.358H238.598ZM239.629 268.398C240.033 268.398 240.63 268.468 241.378 268.838L245.818 259.878C243.5 258.729 241.346 258.398 239.629 258.398V268.398ZM236.19 269.623C236.86 268.988 237.992 268.398 239.629 268.398V258.398C235.449 258.398 231.852 259.958 229.314 262.362L236.19 269.623ZM235.001 272.602C235.001 271.424 235.5 270.296 236.243 269.571L229.26 262.414C226.564 265.043 225.001 268.762 225.001 272.602H235.001ZM236.142 275.429C235.481 274.78 235.001 273.766 235.001 272.602H225.001C225.001 276.484 226.584 280.057 229.132 282.562L236.142 275.429ZM239.371 276.605C237.608 276.605 236.614 275.891 236.131 275.419L229.143 282.572C231.095 284.48 234.487 286.605 239.371 286.605V276.605ZM241.422 276.15C240.973 276.368 240.633 276.469 240.363 276.523C240.086 276.579 239.786 276.605 239.371 276.605V286.605C241.182 286.605 243.307 286.355 245.802 285.139L241.422 276.15ZM238.612 275.526V280.644H248.612V275.526H238.612ZM240.546 281.802C243.147 281.802 245.454 280.727 247.117 279.092L240.108 271.96C240.134 271.934 240.184 271.894 240.265 271.86C240.35 271.823 240.449 271.802 240.546 271.802V281.802ZM326.83 263.943V265.591H336.83V263.943H326.83ZM337.963 258.943H331.83V268.943H337.963V258.943ZM342.963 281.032V263.943H332.963V281.032H342.963ZM331.844 286.032H337.963V276.032H331.844V286.032ZM326.844 279.154V281.032H336.844V279.154H326.844ZM326.529 286.605C329.007 286.605 333.141 285.87 335.888 282.095L327.801 276.212C327.733 276.305 327.649 276.381 327.459 276.455C327.229 276.545 326.9 276.605 326.529 276.605V286.605ZM316.751 282.333C319.943 285.704 323.629 286.605 326.529 286.605V276.605C326.106 276.605 325.714 276.544 325.344 276.402C324.993 276.266 324.536 276.011 324.013 275.458L316.751 282.333ZM312.932 272.616C312.932 276.454 314.219 279.623 316.729 282.309L324.035 275.482C323.25 274.641 322.932 273.91 322.932 272.616H312.932ZM317.032 262.243C314.784 264.492 312.932 267.99 312.932 272.616H322.932C322.932 270.819 323.602 269.816 324.105 269.312L317.032 262.243ZM326.715 258.369C323.021 258.369 319.473 259.8 317.032 262.243L324.105 269.312C324.558 268.859 325.509 268.369 326.715 268.369V258.369ZM335.528 262.226C334.269 260.843 331.395 258.369 326.715 258.369V268.369C327.189 268.369 327.475 268.482 327.656 268.579C327.865 268.692 328.025 268.838 328.132 268.957L335.528 262.226ZM327.732 271.802C328.118 271.802 328.434 272.123 328.434 272.501H318.434C318.434 277.64 322.59 281.802 327.732 281.802V271.802ZM327.031 272.501C327.031 272.112 327.343 271.802 327.732 271.802V281.802C332.85 281.802 337.031 277.651 337.031 272.501H327.031ZM327.732 273.2C327.347 273.2 327.031 272.88 327.031 272.501H337.031C337.031 267.363 332.875 263.2 327.732 263.2V273.2ZM328.434 272.501C328.434 272.88 328.118 273.2 327.732 273.2V263.2C322.59 263.2 318.434 267.363 318.434 272.501H328.434ZM313.39 263.674C308.247 263.674 304.091 267.836 304.091 272.975H314.091C314.091 273.353 313.776 273.674 313.39 273.674V263.674ZM318.859 265.462C317.312 264.325 315.404 263.674 313.39 263.674V273.674C313.239 273.674 313.078 273.624 312.936 273.519L318.859 265.462ZM310.897 263.742V269.491H320.897V263.742H310.897ZM314.686 268.677C314.882 268.69 315.181 268.711 315.63 268.735L316.165 258.749C315.784 258.729 315.537 258.712 315.359 258.7L314.686 268.677ZM315.022 268.689H315.023V258.689H315.022V268.689ZM315.022 268.689H315.022V258.689H315.022V268.689ZM314.402 268.65L314.402 268.65L315.643 258.727L315.642 258.727L314.402 268.65ZM314.678 268.677L314.678 268.677L315.366 258.7L315.366 258.7L314.678 268.677ZM314.628 268.673L314.628 268.673L315.415 258.704L315.415 258.704L314.628 268.673ZM314.679 268.67C314.648 268.67 314.621 268.67 314.601 268.669C314.58 268.669 314.563 268.668 314.552 268.668C314.54 268.668 314.532 268.667 314.528 268.667C314.525 268.667 314.524 268.667 314.528 268.667C314.531 268.667 314.536 268.667 314.545 268.668C314.554 268.669 314.565 268.669 314.579 268.67C314.592 268.671 314.608 268.672 314.626 268.673C314.644 268.674 314.663 268.676 314.686 268.677L315.357 258.7C315.278 258.695 314.962 258.67 314.679 258.67V268.67ZM313.942 268.729C313.861 268.774 313.864 268.754 314.005 268.725C314.146 268.696 314.368 268.67 314.679 268.67V258.67C313.079 258.67 311.012 258.916 309.084 259.988L313.942 268.729ZM313.533 269.047C313.571 268.975 313.606 268.936 313.632 268.911C313.662 268.883 313.7 268.855 313.75 268.83L309.276 259.887C307.53 260.76 305.82 262.224 304.678 264.401L313.533 269.047ZM304.106 263.943V266.724H314.106V263.943H304.106ZM302.988 268.943H309.106V258.943H302.988V268.943ZM307.988 281.032V263.943H297.988V281.032H307.988ZM309.106 276.032H302.988V286.032H309.106V276.032ZM304.106 273.72V281.032H314.106V273.72H304.106ZM304.106 273.706V273.72H314.106V273.706H304.106ZM304.106 272.975V273.706H314.106V272.975H304.106ZM309.091 277.975H309.106V267.975H309.091V277.975ZM294.018 290.396V304.489H304.018V290.396H294.018ZM292.9 295.396H299.018V285.396H292.9V295.396ZM297.9 315.428V290.396H287.9V315.428H297.9ZM299.018 310.428H292.9V320.428H299.018V310.428ZM294.018 308.431V315.428H304.018V308.431H294.018ZM308.984 312.102L302.751 305.106L295.285 311.757L301.517 318.754L308.984 312.102ZM313.733 310.428H305.251V320.428H313.733V310.428ZM301.39 309.661L310.102 318.865L317.364 311.991L308.653 302.787L301.39 309.661ZM309.576 294.766L301.523 302.651L308.52 309.796L316.572 301.911L309.576 294.766ZM304.792 303.339H313.074V293.339H304.792V303.339ZM302.663 307.911L308.438 301.761L301.147 294.916L295.373 301.067L302.663 307.911ZM241.348 302.75C242.483 302.75 243.318 303.21 243.886 303.78L250.96 296.711C248.777 294.527 245.485 292.75 241.348 292.75V302.75ZM240.048 303.294C240.207 303.091 240.351 302.98 240.481 302.912C240.595 302.853 240.845 302.75 241.348 302.75V292.75C237.112 292.75 234.079 294.707 232.189 297.11L240.048 303.294ZM231.118 298.338V300.202H241.118V298.338H231.118ZM230 303.338H236.118V293.338H230V303.338ZM235 323.499V298.338H225V323.499H235ZM236.118 318.499H230V328.499H236.118V318.499ZM231.118 313.793V323.499H241.118V313.793H231.118ZM241.434 311.015C240.957 311.015 240.293 310.92 239.719 310.324L232.517 317.262C235.783 320.651 239.676 321.015 241.434 321.015V311.015ZM243.77 310.074C243.022 310.811 242.189 311.015 241.434 311.015V321.015C244.117 321.015 247.726 320.216 250.789 317.197L243.77 310.074ZM245.031 306.869C245.031 308.365 244.488 309.374 243.79 310.054L250.769 317.216C253.367 314.685 255.031 311.106 255.031 306.869H245.031ZM243.886 303.78C244.429 304.322 245.031 305.324 245.031 306.869H255.031C255.031 302.506 253.254 299.007 250.96 296.711L243.886 303.78ZM230.917 306.897C230.917 312.036 235.073 316.198 240.216 316.198V306.198C240.602 306.198 240.917 306.518 240.917 306.897H230.917ZM240.216 297.596C235.073 297.596 230.917 301.759 230.917 306.897H240.917C240.917 307.276 240.602 307.596 240.216 307.596V297.596ZM249.514 306.897C249.514 301.759 245.359 297.596 240.216 297.596V307.596C239.83 307.596 239.514 307.276 239.514 306.897H249.514ZM240.216 316.198C245.333 316.198 249.514 312.047 249.514 306.897H239.514C239.514 306.508 239.827 306.198 240.216 306.198V316.198ZM261.752 298.339V299.987H271.752V298.339H261.752ZM272.884 293.339H266.752V303.339H272.884V293.339ZM277.884 315.428V298.339H267.884V315.428H277.884ZM266.766 320.428H272.884V310.428H266.766V320.428ZM261.766 313.55V315.428H271.766V313.55H261.766ZM261.45 321.001C263.928 321.001 268.062 320.267 270.809 316.491L262.723 310.608C262.655 310.702 262.571 310.777 262.38 310.851C262.15 310.942 261.822 311.001 261.45 311.001V321.001ZM251.658 316.729C254.853 320.103 258.54 321.001 261.45 321.001V311.001C261.016 311.001 260.62 310.939 260.25 310.797C259.899 310.662 259.443 310.406 258.92 309.854L251.658 316.729ZM247.839 307.012C247.839 310.851 249.126 314.019 251.636 316.705L258.942 309.878C258.157 309.037 257.839 308.306 257.839 307.012H247.839ZM251.939 296.639C249.691 298.888 247.839 302.386 247.839 307.012H257.839C257.839 305.215 258.509 304.212 259.012 303.708L251.939 296.639ZM261.636 292.765C257.937 292.765 254.401 294.199 251.956 296.622L258.994 303.726C259.472 303.252 260.436 302.765 261.636 302.765V292.765ZM270.449 296.622C269.191 295.239 266.317 292.765 261.636 292.765V302.765C262.111 302.765 262.397 302.878 262.577 302.975C262.787 303.089 262.946 303.234 263.054 303.353L270.449 296.622ZM262.668 306.199C263.054 306.199 263.37 306.519 263.37 306.898H253.37C253.37 312.036 257.525 316.199 262.668 316.199V306.199ZM261.952 306.913C261.95 306.52 262.274 306.199 262.668 306.199V316.199C267.791 316.199 271.983 312.035 271.952 306.853L261.952 306.913ZM261.97 307.257C261.979 307.318 261.974 307.285 261.969 307.237C261.963 307.18 261.952 307.053 261.952 306.883H271.952C271.952 306.4 271.888 305.974 271.883 305.936L261.97 307.257ZM261.934 306.95C261.948 307.094 261.966 307.223 261.97 307.257L271.883 305.936C271.882 305.93 271.881 305.925 271.881 305.92C271.88 305.916 271.88 305.913 271.879 305.91C271.879 305.905 271.879 305.903 271.879 305.905C271.879 305.906 271.88 305.912 271.881 305.92C271.881 305.928 271.883 305.941 271.884 305.956L261.934 306.95ZM261.91 306.715C261.911 306.725 261.929 306.984 261.977 307.275L271.841 305.632C271.86 305.746 271.87 305.835 271.875 305.882C271.879 305.921 271.881 305.952 271.878 305.919L261.91 306.715ZM261.931 306.888C261.921 306.817 261.915 306.762 261.912 306.731C261.909 306.706 261.908 306.687 261.91 306.714L271.879 305.92C271.876 305.891 271.862 305.698 271.83 305.474L261.931 306.888ZM262.014 307.231C261.994 307.175 261.951 307.044 261.924 306.841L271.837 305.52C271.752 304.887 271.595 304.326 271.432 303.869L262.014 307.231ZM263.172 309.042C262.525 308.395 262.084 307.594 261.87 306.742C261.699 306.057 261.723 305.451 261.723 305.55H271.723C271.723 305.459 271.812 303.54 270.245 301.972L263.172 309.042ZM262.668 307.597C262.315 307.597 262.059 307.366 261.973 307.111L271.444 303.903C270.212 300.264 266.775 297.597 262.668 297.597V307.597ZM263.37 306.898C263.37 307.276 263.054 307.597 262.668 307.597V297.597C257.525 297.597 253.37 301.759 253.37 306.898H263.37ZM287.484 298.069C282.341 298.069 278.186 302.232 278.186 307.37H288.186C288.186 307.749 287.87 308.069 287.484 308.069V298.069ZM292.899 299.819C291.424 298.764 289.547 298.069 287.484 298.069V308.069C287.284 308.069 287.155 308.005 287.084 307.954L292.899 299.819ZM284.992 298.138V303.887H294.992V298.138H284.992ZM288.781 303.073C288.976 303.086 289.275 303.106 289.724 303.131L290.259 293.145C289.878 293.124 289.631 293.108 289.453 293.096L288.781 303.073ZM289.117 303.084H289.117V293.084H289.117V303.084ZM288.774 303.066C288.742 303.066 288.716 303.066 288.695 303.065C288.674 303.065 288.657 303.064 288.646 303.064C288.634 303.063 288.626 303.063 288.623 303.063C288.619 303.063 288.619 303.063 288.622 303.063C288.625 303.063 288.631 303.063 288.64 303.064C288.649 303.064 288.66 303.065 288.673 303.066C288.687 303.067 288.703 303.068 288.721 303.069C288.739 303.07 288.758 303.072 288.781 303.073L289.453 293.096C289.373 293.09 289.056 293.066 288.774 293.066V303.066ZM288.036 303.124C287.955 303.169 287.958 303.15 288.099 303.121C288.24 303.092 288.462 303.066 288.774 303.066V293.066C287.174 293.066 285.107 293.312 283.178 294.384L288.036 303.124ZM287.628 303.443C287.666 303.37 287.7 303.331 287.726 303.307C287.756 303.279 287.795 303.251 287.844 303.226L283.37 294.283C281.624 295.156 279.915 296.62 278.772 298.797L287.628 303.443ZM278.2 298.338V301.12H288.2V298.338H278.2ZM277.082 303.338H283.2V293.338H277.082V303.338ZM282.082 315.428V298.338H272.082V315.428H282.082ZM283.2 310.428H277.082V320.428H283.2V310.428ZM278.2 307.37V315.428H288.2V307.37H278.2ZM283.186 312.37H283.2V302.37H283.186V312.37ZM264.546 278.619H265.176V268.619H264.546V278.619ZM252.344 278.634L264.551 278.619L264.54 268.619L252.332 268.634L252.344 278.634ZM256.049 272.677C256.151 272.677 256.378 272.7 256.656 272.828C256.934 272.956 257.139 273.131 257.266 273.281C257.384 273.42 257.407 273.501 257.389 273.456C257.372 273.41 257.331 273.28 257.304 273.048L247.372 274.219C247.583 276.008 248.202 278.06 249.649 279.76C251.22 281.607 253.475 282.677 256.049 282.677V272.677ZM254.693 273.463C254.714 273.423 254.848 273.188 255.183 272.968C255.545 272.731 255.889 272.677 256.049 272.677V282.677C259.64 282.677 262.252 280.642 263.595 278.02L254.693 273.463ZM264.947 270.741H259.144V280.741H264.947V270.741ZM266.358 282.849C268.478 280.8 269.344 278.54 269.752 277.124L260.142 274.359C260.005 274.835 259.811 275.27 259.409 275.658L266.358 282.849ZM255.92 286.619C260.852 286.619 264.112 285.02 266.358 282.849L259.409 275.658C259.188 275.872 258.921 276.072 258.495 276.239C258.047 276.414 257.255 276.619 255.92 276.619V286.619ZM245.308 282.547C248.744 286.008 253.052 286.619 255.92 286.619V276.619C254.289 276.619 253.153 276.255 252.405 275.502L245.308 282.547ZM241.335 272.559C241.335 277.415 243.495 280.709 245.297 282.536L252.416 275.513C252.011 275.103 251.335 274.211 251.335 272.559H241.335ZM245.415 262.349C242.893 264.8 241.335 268.417 241.335 272.559H251.335C251.335 270.937 251.926 269.966 252.384 269.521L245.415 262.349ZM255.891 258.455C251.324 258.455 247.838 259.998 245.418 262.347L252.381 269.524C252.797 269.12 253.725 268.455 255.891 268.455V258.455ZM265.9 262.155C262.559 259.002 258.491 258.455 255.891 258.455V268.455C257.275 268.455 258.337 268.768 259.036 269.428L265.9 262.155ZM270.176 272.974C270.176 270.662 269.844 265.914 265.917 262.172L259.019 269.411C259.907 270.258 260.176 271.474 260.176 272.974H270.176ZM270.176 273.619V272.974H260.176V273.619H270.176ZM256.063 272.34C255.951 272.34 255.765 272.32 255.542 272.239C255.318 272.158 255.123 272.038 254.971 271.909C254.68 271.661 254.668 271.488 254.73 271.673L264.217 268.512C263.215 265.504 260.578 262.34 256.063 262.34V272.34ZM257.393 271.686C257.454 271.504 257.444 271.668 257.162 271.908C257.015 272.035 256.823 272.154 256.598 272.236C256.373 272.319 256.183 272.34 256.063 272.34V262.34C251.531 262.34 248.909 265.538 247.914 268.5L257.393 271.686ZM259.473 265.093H252.653V275.093H259.473V265.093Z" fill="#FFA409" mask="url(#path-2-inside-1)"/>
<path d="M290.621 480.87C359.453 480.87 419.577 444.553 453.321 390.251L536.48 440.146C485.765 522.579 394.685 577.5 290.721 577.5C131.536 577.5 2.55035 448.803 2.55035 290C2.55035 131.197 131.536 2.5 290.721 2.5C394.682 2.5 485.76 57.5157 536.379 139.754L453.321 189.549C419.577 135.248 359.453 98.93 290.621 98.93C184.877 98.93 99.215 184.386 99.215 289.9C99.215 395.414 184.877 480.87 290.621 480.87Z" stroke="#FFA409" stroke-width="5"/>
</svg>
