<svg width="408" height="459" viewBox="0 0 408 459" fill="none" xmlns="http://www.w3.org/2000/svg">
<path d="M296.088 229.485C296.088 266.812 265.178 297.078 227.057 297.078C188.935 297.078 158.105 266.812 158.105 229.485C158.105 192.158 189.015 161.97 227.057 161.97C265.178 161.892 296.088 192.158 296.088 229.485Z" fill="white"/>
<path d="M356.538 305.832C330.491 348.987 283.21 377.967 228.983 377.967C146.736 377.967 80.1165 311.502 80.1165 229.444C80.1165 147.386 146.736 80.9205 228.983 80.9205C283.21 80.9205 330.491 109.901 356.538 153.056L425.368 111.791C385.349 45.4828 312.415 0.98877 229.062 0.98877C102.533 0.98877 0 103.286 0 229.523C0 355.759 102.533 458.056 229.062 458.056C312.415 458.056 385.349 413.641 425.447 347.176L356.538 305.832Z" fill="white"/>
</svg>
