<svg width="10" height="16" viewBox="0 0 10 16" fill="none" xmlns="http://www.w3.org/2000/svg">
<path d="M8.99932 0.00332907L6.92451 0C4.59352 0 3.08713 1.54552 3.08713 3.93762V5.75313H1.00099C0.820722 5.75313 0.674744 5.89927 0.674744 6.07954V8.71001C0.674744 8.89028 0.820888 9.03625 1.00099 9.03625H3.08713V15.6738C3.08713 15.854 3.23311 16 3.41337 16H6.13519C6.31546 16 6.46144 15.8539 6.46144 15.6738V9.03625H8.90062C9.08089 9.03625 9.22687 8.89028 9.22687 8.71001L9.22786 6.07954C9.22786 5.99299 9.19341 5.91009 9.13232 5.84884C9.07123 5.78758 8.98801 5.75313 8.90145 5.75313H6.46144V4.2141C6.46144 3.47438 6.63771 3.09886 7.6013 3.09886L8.99899 3.09836C9.17909 3.09836 9.32507 2.95222 9.32507 2.77211V0.329578C9.32507 0.149642 9.17926 0.00366197 8.99932 0.00332907Z" fill="#FFA409"/>
</svg>
