<svg width="16" height="16" viewBox="0 0 16 16" fill="none" xmlns="http://www.w3.org/2000/svg">
<path d="M11.6689 0H4.33105C1.94287 0 0 1.94287 0 4.33105V11.669C0 14.0571 1.94287 16 4.33105 16H11.669C14.0571 16 16 14.0571 16 11.669V4.33105C16 1.94287 14.0571 0 11.6689 0V0ZM7.99998 12.3749C5.58764 12.3749 3.62511 10.4123 3.62511 7.99998C3.62511 5.58764 5.58764 3.62511 7.99998 3.62511C10.4123 3.62511 12.3749 5.58764 12.3749 7.99998C12.3749 10.4123 10.4123 12.3749 7.99998 12.3749ZM12.4795 4.65685C11.7666 4.65685 11.1867 4.07702 11.1867 3.36413C11.1867 2.65124 11.7666 2.07128 12.4795 2.07128C13.1924 2.07128 13.7723 2.65124 13.7723 3.36413C13.7723 4.07702 13.1924 4.65685 12.4795 4.65685Z" fill="#FFA409"/>
<path d="M7.99999 4.56299C6.10498 4.56299 4.56311 6.10473 4.56311 7.99987C4.56311 9.89489 6.10498 11.4368 7.99999 11.4368C9.89513 11.4368 11.4369 9.89489 11.4369 7.99987C11.4369 6.10473 9.89513 4.56299 7.99999 4.56299Z" fill="#FFA409"/>
<path d="M12.4795 3.00977C12.2839 3.00977 12.1247 3.16894 12.1247 3.3645C12.1247 3.56006 12.2839 3.71924 12.4795 3.71924C12.6751 3.71924 12.8343 3.56018 12.8343 3.3645C12.8343 3.16882 12.6751 3.00977 12.4795 3.00977Z" fill="#FFA409"/>
</svg>
