<svg width="13" height="13" viewBox="0 0 13 13" fill="none" xmlns="http://www.w3.org/2000/svg">
<path fill-rule="evenodd" clip-rule="evenodd" d="M2.98883 5.40179L4.05214 4.17403C4.21018 3.99184 4.22037 3.73233 4.07779 3.5377L2.56373 1.47409C2.43436 1.29718 2.2186 1.22401 2.00813 1.28587C0.498977 1.72831 -0.459471 3.04773 0.225135 4.922C1.47628 8.34841 4.65112 11.5236 8.0783 12.7751C9.95295 13.4594 11.272 12.5013 11.7144 10.9922C11.7763 10.7817 11.7031 10.5659 11.5262 10.4365L9.46259 8.9225C9.26796 8.77992 9.00846 8.7901 8.82627 8.94815L7.59851 10.0115C5.83211 9.28611 3.71455 7.16856 2.98921 5.40216L2.98883 5.40179Z"/>
<path d="M11.9298 6.19764C11.9298 6.49261 12.1697 6.73288 12.465 6.73288C12.76 6.73288 13.0002 6.49261 13.0002 6.19764C13.0002 4.4867 12.3066 2.93682 11.1852 1.81505C10.0634 0.693656 8.51352 0 6.80257 0C6.50761 0 6.26733 0.240271 6.26733 0.535236C6.26733 0.830577 6.50761 1.07047 6.80257 1.07047C8.2178 1.07047 9.50064 1.64456 10.4282 2.57207C11.3557 3.49959 11.9298 4.78242 11.9298 6.19764Z"/>
<path d="M9.84725 6.19724C9.84725 6.49221 10.0871 6.73248 10.3825 6.73248C10.6775 6.73248 10.9177 6.49221 10.9177 6.19724C10.9177 5.0619 10.4572 4.03254 9.71222 3.28796C8.96764 2.54301 7.93828 2.08246 6.80294 2.08246C6.50797 2.08246 6.2677 2.32273 6.2677 2.61769C6.2677 2.91303 6.50797 3.15293 6.80294 3.15293C7.64294 3.15293 8.40449 3.49391 8.95519 4.04499C9.50627 4.59569 9.84725 5.35724 9.84725 6.19724Z"/>
<path d="M7.76631 6.19581C7.76593 6.4904 8.00431 6.73067 8.29889 6.73105C8.59309 6.7318 8.83335 6.49342 8.83411 6.19883C8.83448 5.63643 8.60704 5.12722 8.24005 4.76022C7.87305 4.39321 7.36386 4.16576 6.80149 4.16614C6.50691 4.16689 6.26853 4.40716 6.26929 4.70137C6.26967 4.99596 6.50993 5.23435 6.80451 5.23397C7.06778 5.23359 7.30842 5.3426 7.48305 5.51724C7.65768 5.69188 7.76669 5.93253 7.76631 6.19581Z"/>
</svg>
