<svg width="90" height="63" viewBox="0 0 90 63" fill="none" xmlns="http://www.w3.org/2000/svg">
<path d="M3.52175 50.6204C2.98895 50.6319 2.45907 50.5372 1.96203 50.341C1.54101 50.1707 1.16257 49.9069 0.854305 49.5685C0.564886 49.2329 0.34797 48.8391 0.217683 48.4125C0.0698507 47.9492 -0.00325116 47.4646 0.00123195 46.9775C0.00168751 46.5351 0.0748529 46.0962 0.217683 45.6786C0.35412 45.2488 0.570244 44.8499 0.854305 44.5032C1.16069 44.1418 1.53806 43.8498 1.96203 43.6461C2.45044 43.416 2.9839 43.303 3.52175 43.3149H4.15836C4.34658 43.3055 4.53516 43.3232 4.71858 43.3671C4.89685 43.4189 5.06873 43.4254 5.24062 43.4643L5.76904 43.6007C5.78153 43.8401 5.80705 44.0784 5.84542 44.315C5.88788 44.5965 5.94516 44.882 6.0173 45.1721C5.96432 45.2009 5.90542 45.2164 5.84542 45.2175C5.7948 45.2258 5.74324 45.2258 5.69263 45.2175C5.66873 45.2085 5.64777 45.1926 5.63206 45.1718C5.61636 45.1512 5.60647 45.1268 5.60351 45.1008C5.51492 44.6955 5.28964 44.3344 4.96687 44.0813C4.62283 43.8664 4.22411 43.7602 3.82095 43.776C3.42199 43.7685 3.02568 43.8437 2.65594 43.9967C2.33337 44.1317 2.04418 44.338 1.80924 44.6008C1.56781 44.8726 1.38555 45.1934 1.27447 45.5422C1.15184 45.9371 1.09167 46.349 1.09622 46.763C1.08907 47.2313 1.16233 47.6972 1.31267 48.1396C1.44785 48.5324 1.65049 48.8974 1.9111 49.2178C2.15234 49.5119 2.4517 49.751 2.78963 49.9191C3.12501 50.0843 3.4931 50.1686 3.86552 50.1657C4.12458 50.1761 4.38382 50.1499 4.63585 50.0879C4.82619 50.0372 5.004 49.9465 5.15785 49.8215C5.2992 49.7017 5.41786 49.5566 5.508 49.3931C5.61142 49.1987 5.70078 48.9968 5.77539 48.7891C5.79629 48.7386 5.83197 48.6958 5.87753 48.6667C5.9231 48.6379 5.97636 48.6238 6.03004 48.6267H6.14464L6.23376 48.6656C6.15099 48.919 6.06187 49.198 5.97911 49.4968C5.89335 49.796 5.82322 50.0995 5.76904 50.4058C5.421 50.4623 5.06662 50.5077 4.70587 50.5423C4.3451 50.5768 3.9504 50.6031 3.52175 50.6204Z" fill="white"/>
<path d="M8.23893 46.971C8.23371 46.4814 8.32459 45.9954 8.50632 45.5422C8.67485 45.1156 8.91866 44.7235 9.22568 44.3866C9.52724 44.0557 9.88812 43.7868 10.2888 43.5942C10.6867 43.4016 11.1217 43.3019 11.5621 43.3019C12.1131 43.2914 12.6607 43.393 13.1727 43.6007C13.594 43.7746 13.9738 44.0384 14.2868 44.3743C14.5997 44.7102 14.8385 45.1109 14.9871 45.5486C15.136 45.994 15.2113 46.4616 15.2099 46.9318C15.2188 47.4563 15.1258 47.9768 14.9362 48.4643C14.7651 48.8952 14.5065 49.284 14.1773 49.6051C13.8481 49.9266 13.4558 50.1728 13.0263 50.328C12.5798 50.4947 12.1076 50.5785 11.6321 50.5746C11.1595 50.5803 10.6903 50.4921 10.2507 50.315C9.84457 50.1491 9.47779 49.8967 9.17476 49.5749C8.86696 49.2419 8.62872 48.8487 8.47448 48.4189C8.31301 47.9541 8.23325 47.4638 8.23893 46.971ZM11.8868 50.0879C12.2005 50.0911 12.5112 50.0249 12.7971 49.8927C13.0697 49.7671 13.3128 49.5835 13.5101 49.3538C13.7255 49.1187 13.8941 48.843 14.0067 48.5424C14.1196 48.2079 14.1756 47.8566 14.1722 47.5034C14.174 47.0156 14.1185 46.5293 14.0067 46.0552C13.9062 45.6401 13.7337 45.2462 13.4974 44.8931C13.2898 44.573 13.0105 44.3081 12.6825 44.1202C12.3285 43.9272 11.9315 43.8311 11.5302 43.8408C11.244 43.8404 10.9605 43.8977 10.6963 44.0096C10.4323 44.1209 10.1938 44.2868 9.99598 44.4967C9.78566 44.7239 9.62126 44.9906 9.51217 45.2826C9.38716 45.625 9.32666 45.9886 9.3339 46.354C9.33114 46.8551 9.38888 47.3544 9.50581 47.8411C9.60534 48.2627 9.77317 48.6641 10.0024 49.0291C10.21 49.3567 10.4916 49.6282 10.8236 49.8215C11.1495 50.0025 11.5158 50.0943 11.8868 50.0879Z" fill="white"/>
<path d="M24.3396 43.6594L24.3905 43.5748C24.4117 43.5431 24.4433 43.5201 24.4797 43.51L24.6515 43.4711C24.7511 43.4636 24.8512 43.4636 24.9508 43.4711H26.103C26.1084 43.5295 26.1084 43.5881 26.103 43.6465C26.103 43.7631 26.0648 43.8218 25.9948 43.8283C25.8167 43.8409 25.6431 43.892 25.4855 43.9777C25.4454 44.0039 25.4126 44.0407 25.3903 44.0839C25.368 44.1271 25.357 44.1753 25.3582 44.2243V44.5101C25.356 44.8179 25.3709 45.1257 25.4027 45.4321C25.4473 45.8605 25.4537 46.4321 25.4855 47.1464C25.5173 47.8606 25.5555 48.7502 25.6001 49.8086C25.5986 49.8673 25.6105 49.9252 25.6348 49.9781C25.6591 50.0311 25.6952 50.0775 25.7401 50.1139C25.9014 50.2039 26.0791 50.2593 26.2622 50.2762C26.2794 50.2787 26.2959 50.2856 26.3102 50.2957C26.3245 50.3057 26.3364 50.3191 26.3449 50.3345C26.3544 50.3731 26.3544 50.413 26.3449 50.4515C26.3502 50.5099 26.3502 50.5685 26.3449 50.6269L25.6701 50.588H23.8748C23.8696 50.5297 23.8696 50.471 23.8748 50.4127C23.8748 50.2957 23.913 50.2373 23.9831 50.2373C24.183 50.2053 24.3778 50.1463 24.5624 50.062C24.6127 50.0332 24.6539 49.9907 24.681 49.9389C24.7081 49.8871 24.72 49.8284 24.7152 49.7697V49.3672C24.7201 49.0677 24.7053 48.7682 24.6706 48.4712C24.626 48.1205 24.6324 47.7371 24.6197 47.3217C24.607 46.9059 24.5815 46.5229 24.5688 46.1593C24.556 45.7957 24.5688 45.5098 24.5242 45.2179C24.4796 44.9255 24.5242 44.7956 24.5242 44.7373L22.1687 50.4256C22.1471 50.4785 22.1192 50.5286 22.0859 50.575C22.0738 50.5901 22.0582 50.6024 22.0404 50.6103C22.0227 50.6182 22.0034 50.6218 21.9841 50.6204H21.8886L19.2912 44.536V45.062C19.2965 45.3914 19.2816 45.7211 19.2466 46.0491C19.202 46.4257 19.2084 46.8346 19.1893 47.2634C19.1702 47.6918 19.1511 48.0813 19.132 48.4449C19.1129 48.8089 19.132 49.0943 19.0874 49.3543C19.0792 49.4839 19.0792 49.6142 19.0874 49.7438C19.0874 49.9645 19.3272 50.1203 19.8068 50.2114C19.8769 50.2114 19.9151 50.2762 19.9151 50.3867C19.9204 50.4451 19.9204 50.5037 19.9151 50.5621L19.3548 50.5228H18.4063L17.8651 50.5621C17.8598 50.5037 17.8598 50.4451 17.8651 50.3867C17.8651 50.2827 17.9033 50.2309 17.9734 50.2114C18.1043 50.1812 18.2306 50.1329 18.349 50.0685C18.4051 50.0379 18.4526 49.9933 18.4871 49.9385C18.5216 49.8842 18.542 49.8215 18.5463 49.7567V49.2113C18.5402 48.8535 18.5573 48.4953 18.5972 48.14C18.6482 47.7242 18.6355 47.2893 18.6546 46.8411C18.6737 46.3933 18.6928 45.9515 18.7118 45.5426C18.7309 45.1333 18.7118 44.8215 18.7564 44.5684V44.1789C18.7588 44.1281 18.7476 44.0777 18.724 44.0331C18.7004 43.9888 18.6654 43.9514 18.6227 43.9255C18.4638 43.8491 18.2941 43.7987 18.1198 43.7761C18.0498 43.7761 18.0116 43.7113 18.0116 43.5943C18.0064 43.5359 18.0064 43.4773 18.0116 43.4189H19.2848C19.3844 43.4114 19.4844 43.4114 19.584 43.4189L19.7559 43.4582C19.7922 43.4683 19.8238 43.4913 19.845 43.523L19.896 43.6072L22.1687 49.0101L24.3396 43.6594Z" fill="white"/>
<path d="M29.6049 44.2434C29.6103 44.1815 29.5974 44.1196 29.568 44.0652C29.5384 44.0108 29.4937 43.9666 29.4394 43.9385C29.2521 43.8578 29.0552 43.8031 28.8537 43.7761C28.8347 43.7772 28.8158 43.7722 28.7997 43.7617C28.7837 43.7513 28.7714 43.7358 28.7646 43.7174C28.7569 43.6768 28.7569 43.635 28.7646 43.5943C28.7593 43.536 28.7593 43.4773 28.7646 43.419L29.4458 43.4579H32.9663C33.2146 43.4579 33.3865 43.4255 33.4756 43.4255C33.5647 43.4255 33.622 43.4838 33.6538 43.6073C33.6929 43.7473 33.7206 43.891 33.7366 44.0357C33.7483 44.2128 33.7738 44.3888 33.813 44.5616C33.8359 44.729 33.8853 44.8914 33.9594 45.0422C33.9388 45.0703 33.9097 45.0908 33.8767 45.1006H33.743C33.708 45.1045 33.6728 45.097 33.642 45.0797C33.6113 45.062 33.5865 45.0354 33.5711 45.0034C33.4986 44.8316 33.4157 44.6646 33.3228 44.5033C33.251 44.3759 33.1584 44.2614 33.049 44.1656C32.9424 44.0778 32.8187 44.0134 32.6862 43.9774C32.5133 43.9345 32.3356 43.9151 32.1578 43.919H30.6108V46.776H32.1896C32.2556 46.7789 32.3206 46.7602 32.3756 46.7227C32.4305 46.6856 32.4723 46.6313 32.4952 46.5683C32.5625 46.4056 32.6116 46.2356 32.6416 46.0618C32.6494 46.0175 32.6736 45.9779 32.7091 45.9512C32.7447 45.925 32.7889 45.9131 32.8326 45.9188C32.8897 45.9116 32.9474 45.9116 33.0045 45.9188C33.003 46.1014 32.9902 46.2835 32.9663 46.4642V47.4449C32.961 47.645 32.9759 47.8452 33.0109 48.0421C32.958 48.049 32.9046 48.049 32.8517 48.0421C32.8057 48.0533 32.7577 48.0533 32.7116 48.0421C32.6917 48.0306 32.6751 48.0133 32.664 47.9928C32.6527 47.9723 32.6472 47.9489 32.648 47.9255C32.624 47.7531 32.5768 47.5846 32.5079 47.4254C32.4853 47.3617 32.4437 47.3066 32.3889 47.2681C32.3341 47.2296 32.2688 47.2098 32.2023 47.2112H30.6235V49.724C30.6235 49.867 30.7126 49.9645 30.8973 50.0228C31.1059 50.084 31.3187 50.1298 31.5339 50.1593C31.6167 50.1593 31.6612 50.2306 31.6612 50.3476C31.6672 50.4081 31.6672 50.4689 31.6612 50.5294H29.4649L28.8283 50.5682C28.823 50.5099 28.823 50.4512 28.8283 50.3929C28.8283 50.2824 28.8664 50.2241 28.9365 50.2176C29.1247 50.1744 29.3097 50.1179 29.4903 50.0488C29.5518 50.029 29.6051 49.9887 29.6419 49.9347C29.6788 49.8807 29.6971 49.8159 29.6941 49.75L29.6049 44.2434Z" fill="white"/>
<path d="M35.9199 46.971C35.9149 46.4814 36.0056 45.9954 36.1874 45.5422C36.3642 45.121 36.6145 44.7361 36.9258 44.406C37.2201 44.0701 37.5745 43.7947 37.9701 43.5942C38.3679 43.4012 38.8027 43.3015 39.2432 43.3019C39.7941 43.2914 40.3419 43.393 40.854 43.6007C41.2722 43.7753 41.6492 44.0388 41.9598 44.3736C42.2704 44.7084 42.5075 45.1069 42.6554 45.5422C42.8047 45.9875 42.8799 46.4548 42.8785 46.9253C42.887 47.4498 42.7941 47.9704 42.6046 48.4578C42.4334 48.8887 42.1747 49.2775 41.8458 49.5986C41.5165 49.9201 41.124 50.1664 40.6948 50.3215C40.2484 50.4882 39.7761 50.5721 39.3004 50.5681C38.8278 50.5735 38.3587 50.4853 37.9189 50.3086C37.5127 50.1426 37.146 49.8902 36.8432 49.5684C36.5354 49.2354 36.2972 48.8423 36.1429 48.4124C35.9866 47.9488 35.9111 47.461 35.9199 46.971ZM39.5679 50.0879C39.8817 50.0911 40.1922 50.0249 40.4781 49.8928C40.7509 49.7671 40.9938 49.5835 41.1914 49.3538C41.3944 49.1116 41.55 48.8315 41.6495 48.5294C41.7632 48.1954 41.8189 47.8436 41.8151 47.4905C41.8197 47.003 41.766 46.5167 41.6559 46.0422C41.562 45.6332 41.3982 45.2441 41.172 44.8931C40.9645 44.573 40.6853 44.3081 40.3574 44.1202C40.0034 43.9272 39.6064 43.8311 39.2051 43.8408C38.9188 43.8404 38.6354 43.8977 38.3711 44.0096C38.1071 44.1209 37.8685 44.2868 37.6708 44.4967C37.4601 44.7235 37.2956 44.9906 37.1869 45.2826C37.062 45.625 37.0013 45.9886 37.0087 46.354C37.0055 46.8551 37.0634 47.3544 37.1806 47.8411C37.278 48.262 37.4439 48.6637 37.6708 49.0295C37.8741 49.3517 38.1491 49.621 38.4731 49.815C38.8069 50.0062 39.1849 50.1026 39.5679 50.0944V50.0879Z" fill="white"/>
<path d="M47.9252 47.3279H47.142V49.7111C47.1374 49.782 47.1561 49.8526 47.1953 49.9116C47.2348 49.9703 47.292 50.0142 47.3587 50.0358C47.5648 50.1064 47.7787 50.1521 47.9954 50.1722C48.078 50.1722 48.1225 50.25 48.1225 50.3605C48.1285 50.421 48.1285 50.4818 48.1225 50.5423L47.4286 50.5034H45.99L45.3088 50.5423C45.3035 50.484 45.3035 50.4253 45.3088 50.367C45.3088 50.263 45.3469 50.2111 45.4232 50.1917C45.6187 50.1686 45.8096 50.1161 45.99 50.0358C46.044 50.0059 46.0885 49.9602 46.1181 49.9051C46.1474 49.8497 46.1605 49.7867 46.1555 49.724V44.2434C46.1594 44.1826 46.1474 44.1214 46.1206 44.0666C46.0938 44.0116 46.0528 43.9651 46.0027 43.932C45.8153 43.8398 45.612 43.7869 45.4041 43.7761C45.3342 43.7761 45.2961 43.711 45.2961 43.5943C45.2905 43.536 45.2905 43.4773 45.2961 43.419L45.9325 43.4579H48.0018C48.6205 43.4114 49.2349 43.5932 49.7333 43.9709C49.9196 44.1433 50.0665 44.3554 50.1632 44.5922C50.2599 44.8291 50.3043 45.0847 50.2934 45.341C50.2927 45.5106 50.2669 45.6791 50.2172 45.8411C50.1611 46.0207 50.0795 46.1914 49.9751 46.3476C49.8572 46.5226 49.7132 46.6781 49.5487 46.8084C49.3571 46.9589 49.1418 47.0755 48.912 47.1526L50.6816 49.6657C50.7932 49.8342 50.9471 49.9685 51.1274 50.0552C51.2756 50.1222 51.4288 50.1766 51.5859 50.2176C51.6494 50.2176 51.6812 50.2824 51.6812 50.367C51.6875 50.4318 51.6875 50.497 51.6812 50.5618L51.0893 50.5229H50.4526C50.2839 50.515 50.1236 50.4458 50.0005 50.3281C49.8346 50.1823 49.6888 50.0142 49.5678 49.8281L47.9252 47.3279ZM47.7025 46.8865C48.1083 46.9128 48.5114 46.8012 48.8485 46.5683C48.996 46.4257 49.1093 46.2497 49.1788 46.0549C49.2483 45.8598 49.2727 45.651 49.2494 45.4447C49.2526 45.2363 49.2247 45.0282 49.1665 44.828C49.1149 44.647 49.0235 44.4806 48.8993 44.341C48.7627 44.1955 48.595 44.0843 48.409 44.0162C48.1719 43.9316 47.9216 43.892 47.6707 43.8992H47.142V46.8865H47.7025Z" fill="white"/>
<path d="M56.6601 43.8992V49.6787C56.6559 49.751 56.6732 49.8234 56.7095 49.8857C56.7459 49.9483 56.7995 49.9984 56.8641 50.0293C57.0815 50.1175 57.3113 50.1701 57.5453 50.1852C57.6215 50.1852 57.6596 50.2435 57.6596 50.3605C57.6653 50.421 57.6653 50.4818 57.6596 50.5423L56.9467 50.5034H55.4315L54.7059 50.5423C54.6995 50.4818 54.6995 50.421 54.7059 50.3605C54.7059 50.2565 54.744 50.2046 54.8139 50.1852C55.0493 50.1618 55.2801 50.1071 55.5014 50.0228C55.5671 49.9948 55.6228 49.9465 55.6602 49.885C55.698 49.823 55.716 49.751 55.7118 49.6787V43.8992H54.6166C54.4362 43.8953 54.2562 43.9169 54.0819 43.9644C53.9449 44.0022 53.8172 44.0684 53.7064 44.1592C53.5948 44.2531 53.502 44.3676 53.4325 44.4968C53.3562 44.6333 53.2733 44.7956 53.1907 44.971C53.1851 44.9882 53.1759 45.0041 53.1639 45.0174C53.1515 45.0307 53.1371 45.0415 53.1205 45.0487H53.0315C52.9585 45.0512 52.8865 45.0282 52.8279 44.9839C52.8978 44.724 52.9486 44.4968 52.9871 44.2891L53.0823 43.7826C53.1025 43.6782 53.1325 43.576 53.1716 43.4773C53.1822 43.4449 53.2031 43.4165 53.2302 43.3967C53.2578 43.3769 53.2906 43.3664 53.3245 43.3668H59.0922C59.1265 43.3668 59.16 43.3783 59.1875 43.3996C59.2151 43.4204 59.2352 43.45 59.2451 43.4838C59.2839 43.5871 59.3139 43.6933 59.334 43.802C59.3538 43.9727 59.3834 44.1415 59.4233 44.3086C59.4621 44.5289 59.5175 44.746 59.5888 44.958L59.4868 45.0034C59.4491 45.0116 59.4099 45.0116 59.3721 45.0034H59.2768C59.2592 44.9969 59.2433 44.9864 59.2299 44.9731C59.2168 44.9594 59.2066 44.9432 59.2002 44.9252C59.1311 44.7629 59.0523 44.6045 58.9648 44.4515C58.8967 44.323 58.806 44.2088 58.6973 44.1138C58.5893 44.0227 58.4633 43.9565 58.3281 43.919C58.1538 43.8715 57.9738 43.8496 57.7934 43.8539L56.6601 43.8992Z" fill="white"/>
<path d="M66.7323 49.7111C66.7292 49.7658 66.7429 49.8202 66.7715 49.8666C66.8001 49.913 66.8417 49.9494 66.8915 49.971C67.0288 50.0279 67.1763 50.0545 67.3242 50.0488H68.4829C68.6626 50.0516 68.8412 50.0232 69.0113 49.9645C69.1532 49.9141 69.283 49.8346 69.3932 49.7305C69.505 49.6204 69.5993 49.4933 69.6734 49.354C69.7602 49.192 69.8326 49.0224 69.8897 48.8474C69.9039 48.8237 69.9254 48.8053 69.9504 48.7949C69.9759 48.7841 70.0034 48.7823 70.0299 48.7891C70.0676 48.7808 70.1068 48.7808 70.1446 48.7891L70.2656 48.8474C70.2144 49.0616 70.17 49.2956 70.1255 49.5358C70.081 49.7759 70.0362 50.0488 70.0044 50.354C70.0055 50.3821 70.0002 50.4102 69.9893 50.4361C69.9783 50.462 69.9617 50.4847 69.9409 50.5034C69.8989 50.5142 69.8552 50.5142 69.8135 50.5034H69.3614C69.2047 50.4952 69.0473 50.4952 68.8906 50.5034H65.5736L64.8607 50.5423C64.855 50.484 64.855 50.4253 64.8607 50.367C64.8607 50.263 64.8988 50.2111 64.9687 50.1917C65.1734 50.1654 65.3728 50.1085 65.5609 50.0228C65.6114 49.9955 65.653 49.9544 65.6813 49.9037C65.7095 49.8529 65.7229 49.7953 65.7201 49.737V44.2434C65.7261 44.1829 65.7155 44.1217 65.6897 44.0666C65.664 44.0116 65.6237 43.9651 65.5736 43.932C65.3926 43.847 65.1988 43.7945 65.0008 43.7761C64.9835 43.7732 64.9669 43.7668 64.9528 43.7567C64.9383 43.7466 64.9263 43.7333 64.9179 43.7174C64.9083 43.6793 64.9083 43.639 64.9179 43.6008C64.9126 43.5403 64.9126 43.4795 64.9179 43.419L65.6308 43.4579H66.9868L67.7064 43.419C67.7117 43.4773 67.7117 43.536 67.7064 43.5943C67.7064 43.7153 67.668 43.7804 67.5917 43.7891C67.3606 43.8078 67.1333 43.8604 66.9169 43.945C66.847 43.977 66.7884 44.0303 66.7496 44.098C66.7108 44.1653 66.6935 44.2434 66.7006 44.3215L66.7323 49.7111Z" fill="white"/>
<path d="M73.8484 49.737C73.8416 49.796 73.8519 49.8558 73.878 49.9087C73.9041 49.9616 73.9447 50.0059 73.9948 50.0358C74.1716 50.1157 74.3576 50.1726 74.5486 50.2046C74.6188 50.2046 74.6569 50.2759 74.6569 50.38C74.6622 50.4383 74.6622 50.497 74.6569 50.5553L74.0202 50.5164H72.7472L72.1105 50.5553C72.1052 50.497 72.1052 50.4383 72.1105 50.38C72.1105 50.2759 72.1486 50.2241 72.2188 50.2046C72.4101 50.178 72.5965 50.1233 72.7726 50.0423C72.8227 50.0106 72.8633 49.9652 72.8891 49.9112C72.9148 49.8572 72.9254 49.7968 72.9191 49.737V44.2434C72.9251 44.1829 72.9145 44.1217 72.8887 44.0666C72.8629 44.0116 72.8227 43.9651 72.7726 43.932C72.5979 43.8485 72.4105 43.7956 72.2188 43.7761C72.2005 43.774 72.1832 43.7668 72.1684 43.7552C72.1539 43.7437 72.1426 43.7286 72.1359 43.711C72.1288 43.6724 72.1288 43.6328 72.1359 43.5943C72.1306 43.536 72.1306 43.4773 72.1359 43.419L72.7726 43.4579H74.0456L74.7205 43.419C74.7261 43.4773 74.7261 43.536 74.7205 43.5943C74.7205 43.7045 74.6823 43.7632 74.6125 43.7761C74.4205 43.7956 74.2331 43.8481 74.0584 43.932C74.0082 43.9651 73.968 44.0116 73.9422 44.0666C73.9165 44.1217 73.9059 44.1829 73.9122 44.2434L73.8484 49.737Z" fill="white"/>
<path d="M77.7 44.2434C77.7056 44.1815 77.6926 44.1196 77.6633 44.0652C77.6336 44.0108 77.5888 43.9666 77.5345 43.9385C77.3474 43.8578 77.1505 43.8035 76.9489 43.7761C76.9299 43.7772 76.9108 43.7722 76.8949 43.7617C76.8787 43.7513 76.8667 43.7358 76.8596 43.7174C76.8519 43.6768 76.8519 43.635 76.8596 43.5943C76.854 43.536 76.854 43.4773 76.8596 43.419L77.5408 43.4579H81.0614C81.3099 43.4579 81.4818 43.4255 81.5707 43.4255C81.66 43.4255 81.7172 43.4838 81.7489 43.6073C81.7885 43.7473 81.816 43.891 81.8319 44.0357C81.8435 44.2128 81.8689 44.3888 81.9081 44.5616C81.9311 44.729 81.9805 44.8914 82.0546 45.0422C82.0338 45.0703 82.0048 45.0908 81.972 45.1006H81.8636C81.8284 45.1052 81.7931 45.0984 81.762 45.0808C81.7309 45.0635 81.7062 45.0361 81.6918 45.0034C81.6191 44.8316 81.5361 44.6646 81.4433 44.5033C81.3716 44.3759 81.2792 44.2614 81.1698 44.1656C81.0632 44.0774 80.9393 44.0134 80.8069 43.9774C80.634 43.9345 80.4565 43.9147 80.2786 43.919H78.6995V46.776H80.2786C80.3432 46.7774 80.4071 46.7584 80.4607 46.7209C80.5144 46.6838 80.5553 46.6302 80.5775 46.5683C80.6428 46.4052 80.6898 46.2353 80.7176 46.0618C80.7254 46.0175 80.7498 45.9779 80.7851 45.9512C80.8207 45.925 80.8648 45.9131 80.9086 45.9188C80.9658 45.9116 81.0236 45.9116 81.0805 45.9188C81.0854 46.1017 81.0727 46.2842 81.0423 46.4642C81.0233 46.6435 81.0233 46.8242 81.0423 47.0032V47.4449C81.0371 47.645 81.0519 47.8452 81.0868 48.0421C81.0342 48.049 80.9806 48.049 80.9276 48.0421C80.8818 48.0529 80.8338 48.0529 80.7879 48.0421C80.7678 48.0306 80.7512 48.0133 80.7399 47.9928C80.7289 47.9723 80.7233 47.9489 80.724 47.9255C80.7004 47.7531 80.6534 47.5846 80.5839 47.4254C80.5613 47.3617 80.5196 47.3066 80.4649 47.2681C80.4102 47.2296 80.3449 47.2098 80.2786 47.2112H78.6995V49.724C78.6995 49.867 78.7888 49.9645 78.9734 50.0228C79.182 50.084 79.3948 50.1298 79.6101 50.1593C79.6927 50.1593 79.7372 50.2306 79.7372 50.3476C79.7428 50.4081 79.7428 50.4689 79.7372 50.5294H77.5408L76.9045 50.5682C76.8985 50.5099 76.8985 50.4512 76.9045 50.3929C76.9045 50.2824 76.9426 50.2241 77.0125 50.2176C77.2006 50.174 77.3859 50.1179 77.5666 50.0488C77.628 50.029 77.6813 49.9887 77.718 49.9347C77.7547 49.8807 77.7731 49.8159 77.7702 49.75L77.7 44.2434Z" fill="white"/>
<path d="M86.027 43.8992V46.6723H87.6819C87.7486 46.6745 87.8143 46.6551 87.8693 46.6165C87.9244 46.5777 87.9657 46.5222 87.9876 46.4578C88.055 46.2929 88.1044 46.1208 88.134 45.9448C88.1418 45.9005 88.1661 45.8613 88.2014 45.8346C88.2371 45.808 88.2812 45.7964 88.325 45.8018H88.4905C88.4954 45.9826 88.4824 46.1629 88.4524 46.3411C88.433 46.5179 88.433 46.6965 88.4524 46.8736V47.3214C88.4467 47.5216 88.4616 47.7221 88.4969 47.919H88.3377C88.2925 47.9251 88.2466 47.9136 88.2089 47.8873C88.1714 47.8611 88.1446 47.8215 88.134 47.7761C88.104 47.6001 88.055 47.428 87.9876 47.2631C87.9646 47.2001 87.923 47.1457 87.8679 47.1083C87.8132 47.0712 87.7479 47.0525 87.6819 47.0554H86.027V49.6074C86.027 49.7565 86.1223 49.8605 86.3132 49.9123C86.6234 49.9746 86.9397 50.0005 87.2556 49.9905H87.8538C88.0363 49.9951 88.2177 49.9642 88.3885 49.8994C88.5357 49.8418 88.6712 49.7583 88.7898 49.6528C88.9101 49.5448 89.015 49.4202 89.1018 49.2827C89.1992 49.1297 89.2885 48.9713 89.369 48.8086C89.369 48.7567 89.4456 48.7305 89.5281 48.7305C89.5663 48.7323 89.6033 48.7434 89.6365 48.7632L89.7512 48.828C89.6792 48.9864 89.6238 49.1517 89.5857 49.3216L89.4519 49.867C89.4159 50.0167 89.3711 50.164 89.3181 50.3087C89.2716 50.4297 89.214 50.4905 89.1463 50.4905H84.8937L84.257 50.5294C84.2517 50.4711 84.2517 50.4124 84.257 50.3541C84.257 50.25 84.2951 50.1982 84.3653 50.1787C84.564 50.1481 84.7585 50.0934 84.9445 50.0164C85.0013 49.9901 85.0486 49.9465 85.0804 49.8922C85.1125 49.8375 85.127 49.7745 85.1227 49.7111V44.2434C85.1287 44.184 85.1178 44.1239 85.0906 44.0706C85.0634 44.0177 85.0214 43.9738 84.9699 43.945C84.7779 43.864 84.5771 43.8071 84.3717 43.7761C84.3014 43.7761 84.2633 43.698 84.2633 43.5943C84.2612 43.5641 84.2612 43.5335 84.2633 43.5032C84.2612 43.4752 84.2612 43.4471 84.2633 43.419L85.0274 43.4644H88.4905L88.9553 43.432C89.0443 43.432 89.1081 43.4903 89.1399 43.6138C89.1777 43.7542 89.2052 43.8974 89.2225 44.0422C89.2341 44.2214 89.2599 44.3996 89.2991 44.5746C89.3213 44.7416 89.3753 44.9029 89.4583 45.0487C89.4032 45.0912 89.3361 45.1142 89.2673 45.1135C89.2313 45.1178 89.195 45.1106 89.1632 45.0934C89.1314 45.0757 89.1053 45.0491 89.0891 45.0163C89.004 44.8302 88.9236 44.67 88.847 44.5357C88.7757 44.4097 88.6828 44.2978 88.5734 44.2045C88.4654 44.1134 88.3394 44.0472 88.2039 44.0098C88.0296 43.9626 87.8496 43.9406 87.6692 43.945L86.027 43.8992Z" fill="white"/>
<path d="M23.3903 62.6724V60.2046H24.1924C24.3546 60.1963 24.5168 60.2208 24.6697 60.2766C24.8227 60.3324 24.9633 60.4181 25.0837 60.5293C25.2973 60.781 25.4149 61.1024 25.4149 61.4351C25.4149 61.7681 25.2973 62.0896 25.0837 62.3412C24.9642 62.4542 24.8239 62.5417 24.6708 62.5986C24.5177 62.6555 24.3551 62.6803 24.1924 62.6724H23.3903ZM23.7276 62.3736H24.1924C24.4283 62.3804 24.6572 62.2919 24.829 62.127C24.9137 62.0341 24.9789 61.9243 25.0205 61.8048C25.0621 61.6853 25.0793 61.5586 25.0709 61.4318C25.085 61.3166 25.0759 61.1996 25.0439 61.088C25.012 60.9764 24.9579 60.8728 24.8851 60.7831C24.8124 60.6938 24.7224 60.6204 24.6208 60.5678C24.5191 60.5153 24.408 60.4847 24.2942 60.4775H23.7085L23.7276 62.3736Z" fill="white"/>
<path d="M27.7396 62.6594V60.2049H29.172V60.4774H28.1089V61.2504H28.9683V61.5492H28.1089V62.3412H29.172V62.64L27.7396 62.6594Z" fill="white"/>
<path d="M32.1503 62.6595L31.2718 60.1985H31.6347L32.2331 61.9323L32.3286 62.27C32.3518 62.1555 32.3816 62.0428 32.4177 61.9323L33.0543 60.1985H33.4108L32.5323 62.6595H32.1503Z" fill="white"/>
<path d="M35.6072 62.6724V60.2049H37.014V60.4774H35.9446V61.2504H36.8103V61.5492H35.9446V62.3412H37.0712V62.64L35.6072 62.6724Z" fill="white"/>
<path d="M39.3886 62.6595V60.1985H39.726V62.3607H40.8081V62.6595H39.3886Z" fill="white"/>
<path d="M42.725 61.4127C42.6826 61.2222 42.6826 61.025 42.7253 60.8349C42.7677 60.6444 42.8517 60.4666 42.971 60.314C43.0902 60.1617 43.2417 60.0386 43.4139 59.954C43.5865 59.8694 43.7753 59.8254 43.9662 59.8254C44.1575 59.8254 44.3464 59.8694 44.5186 59.954C44.6912 60.0386 44.8426 60.1617 44.9615 60.314C45.0808 60.4666 45.1652 60.6444 45.2075 60.8349C45.2502 61.025 45.2502 61.2222 45.2079 61.4127C45.2502 61.6028 45.2502 61.8004 45.2075 61.9905C45.1652 62.1806 45.0808 62.3584 44.9615 62.511C44.8426 62.6637 44.6912 62.7868 44.5186 62.8714C44.3464 62.956 44.1575 62.9999 43.9662 62.9999C43.7753 62.9999 43.5865 62.956 43.4139 62.8714C43.2417 62.7868 43.0902 62.6637 42.971 62.511C42.8517 62.3584 42.7677 62.1806 42.7253 61.9905C42.6826 61.8004 42.6826 61.6028 42.725 61.4127ZM43.0751 61.4127C43.0684 61.669 43.1594 61.9185 43.3299 62.1075C43.4121 62.1946 43.5113 62.2641 43.6207 62.3112C43.7298 62.3588 43.8477 62.3832 43.9662 62.3832C44.0852 62.3832 44.2027 62.3588 44.3121 62.3112C44.4215 62.2641 44.5204 62.1946 44.6029 62.1075C44.7731 61.9185 44.8645 61.669 44.8578 61.4127C44.8585 61.1708 44.7671 60.9378 44.6029 60.7632C44.4335 60.5919 44.2048 60.4958 43.9662 60.4958C43.728 60.4958 43.499 60.5919 43.3299 60.7632C43.1633 60.9368 43.0698 61.1697 43.0687 61.4127H43.0751Z" fill="white"/>
<path d="M47.5429 62.6587V60.1978H48.4277C48.528 60.1931 48.6282 60.2089 48.7224 60.2446C48.8163 60.2806 48.9024 60.3353 48.9755 60.4055C49.0461 60.4789 49.1015 60.5664 49.1375 60.6625C49.1739 60.7586 49.1901 60.8612 49.1855 60.9642C49.1897 61.0679 49.1735 61.1716 49.1371 61.2684C49.1011 61.3656 49.0461 61.4542 48.9755 61.529C48.9039 61.6003 48.8191 61.6558 48.7263 61.6925C48.6331 61.7296 48.534 61.7468 48.4341 61.7432H47.8867V62.6522L47.5429 62.6587ZM47.8803 61.4509H48.3833C48.4461 61.4542 48.5093 61.4444 48.5682 61.4221C48.6275 61.3998 48.6815 61.3656 48.727 61.3213C48.7701 61.2745 48.8036 61.2191 48.8255 61.159C48.8474 61.0988 48.8573 61.0348 48.8544 60.9707C48.8576 60.9073 48.8477 60.8443 48.8259 60.7849C48.804 60.7259 48.7704 60.6719 48.727 60.6265C48.6829 60.5786 48.6296 60.5405 48.5707 60.5149C48.5114 60.4894 48.4475 60.4764 48.3833 60.4771H47.8867L47.8803 61.4509Z" fill="white"/>
<path d="M51.3512 62.6594L51.5676 60.2049H51.9177L52.4718 61.5035L52.5861 61.8347C52.631 61.7051 52.6691 61.5945 52.7072 61.5035L53.261 60.2049H53.6111L53.8024 62.6594H53.4777L53.363 61.1269V60.7633L53.2356 61.1269L52.7517 62.231H52.4527L51.9752 61.1269L51.8478 60.7568C51.8548 60.8799 51.8548 61.0038 51.8478 61.1269L51.7331 62.6724L51.3512 62.6594Z" fill="white"/>
<path d="M56.202 62.6335V60.2049H57.5898V60.4774H56.5458V61.2569H57.3988V61.5492H56.5458V62.3282H57.6537V62.6205L56.202 62.6335Z" fill="white"/>
<path d="M59.9902 62.6595V60.205H60.3212L61.397 61.7764L61.5943 62.1336V60.1852H61.9254V62.6401H61.5943L60.5185 61.0489L60.3212 60.6918V62.6401L59.9902 62.6595Z" fill="white"/>
<path d="M64.9744 62.6525V60.4774H64.1467V60.1786H66.1331V60.4774H65.3054V62.6266L64.9744 62.6525Z" fill="white"/>
<path d="M56.8518 10.62V9.25641L52.9811 7.69146L50.2945 6.63302V19.711H49.4033V5.59403L52.9811 6.99666V6.20444L49.4033 4.50963L48.3339 3.08105H41.382L40.3123 4.50963L36.7345 6.20444V6.99666L40.3123 5.59403V19.711H39.4275V6.63302L36.7345 7.69146L32.8639 9.25641V10.62L26.3131 12.3733V28.9188L37.4923 33.7565H43.7757V30.6071H45.9403V33.7955H52.2046L63.3837 28.9578V12.3668L56.8518 10.62ZM51.0523 11.9512V10.4772L60.5125 12.5941V13.3928L51.8033 11.8928V26.4837L51.0523 26.711V11.9512ZM60.5125 14.2889V25.211L56.82 26.3149V13.7954L60.5125 14.2889ZM55.6423 13.6395V26.6266L53.5222 27.276V13.3603L55.6423 13.6395ZM42.1267 4.30832H47.5952L48.1557 5.60702H41.5666L42.1267 4.30832ZM44.8578 22.3798H42.3113V20.2824H47.3535V22.3798H44.8578ZM47.4043 23.6396V25.737H42.3625V23.6396H47.4043ZM45.329 19.0292H42.3625V8.57457C42.3625 8.06157 42.9099 7.73041 44.4378 7.73041H45.329C46.8569 7.73041 47.4043 8.06157 47.4043 8.57457V19.0292H45.329ZM29.2288 12.6071L38.6891 10.4772V26.711L37.9377 26.4902V11.8993L29.2288 13.4123V12.6071ZM36.2316 27.289L34.1117 26.6396V13.6525L36.2316 13.3733V27.289ZM29.2288 14.3019L32.9212 13.8084V26.3214L29.2288 25.2175V14.3019ZM26.9243 13.133L28.3312 12.8213V24.9643L26.9243 24.5422V13.133ZM62.8423 28.289L52.2491 32.6915H47.417V28.9902L44.8705 28.211L42.324 28.9902V32.6915H37.4923L26.8988 28.289V25.4123L37.4923 28.8214H41.382V28.1721L44.8896 27.1266L48.3847 28.1526V28.8019H52.2046L62.8232 25.4123L62.8423 28.289ZM62.8423 24.5357L61.4355 24.9578V12.8149L62.8423 13.1266V24.5357ZM46.997 2.5226L45.8828 0.4122C45.2464 0.4122 45.0745 0.0875244 44.8769 0.0875244C44.6796 0.0875244 44.5204 0.4122 43.871 0.4122L42.7571 2.5226H46.997Z" fill="white"/>
<path d="M75.2256 55.445H14.3517V55.5098H75.2256V55.445Z" fill="white"/>
</svg>
