<svg width="20" height="22" viewBox="0 0 20 22" fill="none" xmlns="http://www.w3.org/2000/svg">
<path d="M18.7798 18.5103H0V21.5666H18.7798V18.5103Z"/>
<path d="M9.77667 0L0 6.18598V8.00491H19.1201V6.18598L9.77667 0Z"/>
<path d="M1.95093 16.8752V17.9484H2.48661H5.45257H5.98825V16.8752H5.45257V9.67524H5.98825V8.60205H5.45257H2.48661H1.95093V9.67524H2.48661V16.8752H1.95093Z"/>
<path d="M7.4895 16.8752V17.9484H8.02495H10.9911H11.5268V16.8752H10.9911V9.67524H11.5268V8.60205H10.9911H8.02495H7.4895V9.67524H8.02495V16.8752H7.4895Z"/>
<path d="M13.028 16.8752V17.9484H13.5636H16.5298H17.0655V16.8752H16.5298V9.67524H17.0655V8.60205H16.5298H13.5636H13.028V9.67524H13.5636V16.8752H13.028Z"/>
</svg>
