<svg width="60" height="87" viewBox="0 0 60 87" fill="none" xmlns="http://www.w3.org/2000/svg">
<path d="M30 87C9.99857 60.5085 0 41.66 0 30.45C-5.87054e-08 26.4513 0.775974 22.4917 2.28362 18.7973C3.79126 15.1029 6.00104 11.7461 8.7868 8.9186C11.5726 6.09105 14.8797 3.84812 18.5195 2.31787C22.1593 0.787613 26.0603 0 30 0C33.9397 0 37.8407 0.787613 41.4805 2.31787C45.1203 3.84812 48.4274 6.09105 51.2132 8.9186C53.999 11.7461 56.2087 15.1029 57.7164 18.7973C59.224 22.4917 60 26.4513 60 30.45C60 41.66 50.0014 60.5085 30 87Z" fill="#111821"/>
<path d="M36.3207 28.9969C36.3207 31.9369 33.8862 34.3207 30.8837 34.3207C27.8811 34.3207 25.4528 31.9369 25.4528 28.9969C25.4528 26.0569 27.8873 23.6792 30.8837 23.6792C33.8862 23.6731 36.3207 26.0569 36.3207 28.9969Z" fill="white"/>
<path d="M41.082 35.0103C39.0304 38.4094 35.3065 40.6919 31.0354 40.6919C24.5573 40.6919 19.3102 35.4569 19.3102 28.9938C19.3102 22.5307 24.5573 17.2957 31.0354 17.2957C35.3065 17.2957 39.0304 19.5782 41.082 22.9773L46.5032 19.7271C43.3512 14.5045 37.6067 11 31.0416 11C21.0758 11 13 19.0572 13 29C13 38.9428 21.0758 47 31.0416 47C37.6067 47 43.3512 43.5017 46.5094 38.2667L41.082 35.0103Z" fill="white"/>
</svg>
