<svg width="52" height="52" viewBox="0 0 52 52" fill="none" xmlns="http://www.w3.org/2000/svg">
<circle cx="26" cy="26" r="26" fill="#FFA409"/>
<path d="M33.996 38.0099L33.2574 20.8903C33.2368 20.414 32.909 20.0405 32.5116 20.0405H30.332V19.1992C30.332 16.3323 28.3883 14 25.9994 14C23.6105 14 21.6671 16.3323 21.6671 19.1992V20.0405H19.4874C19.09 20.0405 18.7621 20.414 18.7415 20.8903L18.001 38.0573C17.9905 38.3027 18.0643 38.5426 18.2053 38.7208C18.3463 38.899 18.5421 38.9999 18.7469 38.9999H33.2523C33.2526 39 33.2529 39 33.2532 38.9999C33.6657 38.9999 34 38.5986 34 38.1037C33.9999 38.0719 33.9987 38.0407 33.996 38.0099ZM22.731 23.6681C22.2893 23.6681 21.931 23.2382 21.931 22.7081C21.931 22.1779 22.2893 21.748 22.731 21.748C23.1728 21.748 23.531 22.1779 23.531 22.7081C23.531 23.2382 23.1728 23.6681 22.731 23.6681ZM28.1101 20.0405H23.8889V19.1992C23.8889 17.8025 24.8356 16.6663 25.9994 16.6663C27.1633 16.6663 28.1101 17.8025 28.1101 19.1992V20.0405V20.0405ZM29.2689 23.6681C28.8272 23.6681 28.4689 23.2382 28.4689 22.7081C28.4689 22.1779 28.8272 21.748 29.2689 21.748C29.7107 21.748 30.0689 22.1779 30.0689 22.7081C30.0689 23.2382 29.7107 23.6681 29.2689 23.6681Z" fill="white"/>
</svg>
