<svg width="52" height="52" viewBox="0 0 52 52" fill="none" xmlns="http://www.w3.org/2000/svg">
<circle cx="26" cy="26" r="26" fill="#FFA409"/>
<path d="M30.4444 33.7332C30.4378 34.0284 30.4903 34.322 30.5989 34.5966C30.7075 34.8713 30.87 35.1216 31.0769 35.3327C31.2838 35.5439 31.5309 35.7117 31.8037 35.8263C32.0765 35.9409 32.3695 35.9999 32.6655 36C32.9616 36.0001 33.2546 35.9412 33.5275 35.8267C33.8003 35.7123 34.0475 35.5446 34.2545 35.3335C34.4615 35.1225 34.6242 34.8723 34.7329 34.5977C34.8417 34.3231 34.8943 34.0295 34.8878 33.7343C34.8749 33.1552 34.6353 32.604 34.2202 32.1989C33.8051 31.7938 33.2474 31.5668 32.6667 31.5667C32.0859 31.5665 31.5281 31.7932 31.1128 32.1981C30.6975 32.603 30.4576 33.1541 30.4444 33.7332ZM19.3333 33.7332C19.3333 34.3211 19.5675 34.8849 19.9842 35.3006C20.401 35.7163 20.9662 35.9499 21.5556 35.9499C22.1449 35.9499 22.7102 35.7163 23.1269 35.3006C23.5437 34.8849 23.7778 34.3211 23.7778 33.7332C23.7778 33.1453 23.5437 32.5815 23.1269 32.1658C22.7102 31.7501 22.1449 31.5166 21.5556 31.5166C20.9662 31.5166 20.401 31.7501 19.9842 32.1658C19.5675 32.5815 19.3333 33.1453 19.3333 33.7332ZM23.2744 28.3822L35.5722 24.8777C35.6925 24.8377 35.7977 24.7623 35.8741 24.6613C35.9505 24.5604 35.9944 24.4388 36 24.3125V18.2167H20.4444V16.4433C20.4444 16.1995 20.2433 16 20.0011 16H16.4433C16.3257 16.0006 16.2132 16.0475 16.1301 16.1306C16.0471 16.2136 16.0003 16.326 16 16.4433V18.2167H18.2222L20.3444 28.1439L20.4444 29.1891V31.0167C20.4444 31.2594 20.6444 31.4601 20.8889 31.4601H35.5556C35.8 31.4601 36 31.2583 36 31.0167V29.2999H23.5022C22.2244 29.2999 22.1978 28.6892 23.2744 28.3822Z" fill="white"/>
</svg>
