<svg width="22" height="22" fill="none" xmlns="http://www.w3.org/2000/svg"><path d="M21.607 20.429H20.43V4.32a.394.394 0 00-.393-.392h-3.86V.393A.393.393 0 0015.783 0H6.217a.393.393 0 00-.393.393v3.536h-3.86a.393.393 0 00-.393.392V20.43H.393a.394.394 0 00-.393.39v.786c0 .216.176.393.393.393h21.214a.394.394 0 00.393-.393v-.786a.394.394 0 00-.393-.392zM11 .786A2.357 2.357 0 1111 5.5a2.357 2.357 0 010-4.715zM7.894 6.859h2.33v2.33h-2.33v-2.33zM6.341 16.953h-2.33v-2.329h2.33v2.33zm0-3.883h-2.33v-2.329h2.33v2.33zm0-3.882h-2.33V6.86h2.33v2.33zm1.553 1.553h2.33v2.33h-2.33v-2.33zm5.047 9.688H9.06v-3.476h3.883v3.476zm1.165-7.359h-2.331v-2.329h2.33v2.33zm0-3.882h-2.331V6.86h2.33v2.33zm3.883 7.765h-2.33v-2.329h2.33v2.33zm0-3.883h-2.33v-2.329h2.33v2.33zm0-3.882h-2.33V6.86h2.33v2.33z"/><path d="M10.538 4.715h.924v-1.11h1.11v-.924h-1.11v-1.11h-.924v1.11h-1.11v.924h1.11v1.11z"/></svg>