<svg width="90" height="63" fill="none" xmlns="http://www.w3.org/2000/svg"><path d="M3.522 50.62a4.01 4.01 0 01-1.56-.279c-.421-.17-.8-.434-1.108-.773a3.202 3.202 0 01-.636-1.155A4.583 4.583 0 010 46.977c0-.443.074-.882.217-1.3.136-.43.352-.828.636-1.175a3.362 3.362 0 011.108-.857 3.477 3.477 0 011.56-.331h.636c.189-.01.377.008.56.052.179.052.35.058.523.097l.528.137c.013.24.038.477.076.714.043.282.1.567.172.857a.374.374 0 01-.172.046.472.472 0 01-.152 0 .144.144 0 01-.09-.117 1.777 1.777 0 00-.636-1.02 2.013 2.013 0 00-1.146-.305 2.903 2.903 0 00-1.165.22 2.357 2.357 0 00-.847.605 2.61 2.61 0 00-.535.941 3.97 3.97 0 00-.178 1.221 4.08 4.08 0 00.217 1.377c.135.392.337.757.598 1.078.241.294.54.533.879.701.335.165.703.25 1.076.247.259.01.518-.016.77-.078.19-.05.368-.142.522-.267.141-.12.26-.264.35-.428a4.59 4.59 0 00.267-.604.26.26 0 01.255-.162h.115l.089.039c-.083.253-.172.532-.255.83a8.97 8.97 0 00-.21.91c-.348.056-.702.102-1.063.136-.36.035-.756.061-1.184.078zm4.717-3.649a3.75 3.75 0 01.267-1.429 3.78 3.78 0 01.72-1.155c.301-.331.662-.6 1.063-.793a2.922 2.922 0 011.273-.292 4.077 4.077 0 011.61.299 3.18 3.18 0 011.115.773c.313.336.551.737.7 1.175.149.445.224.913.223 1.383a4.039 4.039 0 01-.274 1.532c-.17.431-.43.82-.759 1.141a3.197 3.197 0 01-1.15.723c-.447.167-.92.25-1.395.247a3.58 3.58 0 01-1.381-.26 3.077 3.077 0 01-1.076-.74 3.389 3.389 0 01-.7-1.156 4.264 4.264 0 01-.236-1.448zm3.648 3.117a2.116 2.116 0 001.623-.734c.216-.235.384-.511.497-.812a3.13 3.13 0 00.165-1.039 6.211 6.211 0 00-.165-1.448 3.623 3.623 0 00-.51-1.162 2.386 2.386 0 00-.815-.773 2.29 2.29 0 00-1.152-.28c-.286 0-.57.058-.834.17a2.065 2.065 0 00-.7.487c-.21.227-.375.494-.484.786a2.955 2.955 0 00-.178 1.071c-.003.501.055 1 .172 1.487.1.422.267.823.496 1.188.208.328.49.6.822.792.325.181.692.273 1.063.267zM24.34 43.66l.05-.085a.158.158 0 01.09-.065l.171-.039c.1-.007.2-.007.3 0h1.152a.952.952 0 010 .176c0 .116-.038.175-.108.181a1.251 1.251 0 00-.51.15.29.29 0 00-.127.247v.285c-.002.308.013.616.045.922.044.428.05 1 .082 1.714.032.715.07 1.604.115 2.663a.382.382 0 00.14.305c.161.09.34.145.522.162a.115.115 0 01.083.058c.01.04.01.079 0 .118a.97.97 0 010 .175l-.675-.039h-1.795a.987.987 0 010-.175c0-.117.038-.176.108-.176.2-.032.395-.09.58-.175a.304.304 0 00.152-.292v-.403c.005-.3-.01-.599-.044-.896-.045-.35-.039-.734-.051-1.15-.013-.415-.039-.798-.051-1.162-.013-.363 0-.65-.045-.941-.044-.293 0-.422 0-.48l-2.355 5.688a.73.73 0 01-.083.149.122.122 0 01-.102.045h-.095l-2.598-6.084v.526c.006.33-.01.66-.044.987-.045.377-.039.786-.058 1.214-.019.429-.038.818-.057 1.182-.02.364 0 .65-.045.91-.008.129-.008.26 0 .389 0 .22.24.376.72.467.07 0 .108.065.108.176a.97.97 0 010 .175l-.56-.04h-.949l-.54.04a.97.97 0 010-.175c0-.104.037-.156.107-.176.131-.03.258-.078.376-.142a.387.387 0 00.197-.312v-.546a8.332 8.332 0 01.051-1.071c.051-.416.038-.85.058-1.299.019-.448.038-.89.057-1.298.019-.41 0-.721.044-.975v-.39a.283.283 0 00-.133-.252 1.65 1.65 0 00-.503-.15c-.07 0-.108-.065-.108-.182a.988.988 0 010-.175h1.273c.1-.008.2-.008.299 0l.172.04c.036.01.068.032.089.064l.051.084 2.273 5.403 2.17-5.35zm5.265.583a.317.317 0 00-.166-.305 2.227 2.227 0 00-.585-.162.09.09 0 01-.09-.059.33.33 0 010-.123.968.968 0 010-.175l.682.039h3.52c.249 0 .42-.032.51-.032.089 0 .146.058.178.181.039.14.067.284.083.429.011.177.037.353.076.526.023.167.072.33.146.48a.159.159 0 01-.082.059h-.134a.168.168 0 01-.101-.021.177.177 0 01-.07-.077 4.534 4.534 0 00-.25-.5 1.292 1.292 0 00-.273-.337.972.972 0 00-.363-.189 2.01 2.01 0 00-.528-.058H30.61v2.857h1.579a.306.306 0 00.186-.053.317.317 0 00.12-.155c.066-.162.116-.332.146-.506a.171.171 0 01.191-.143.687.687 0 01.171 0 4.437 4.437 0 01-.038.545v.98c-.005.201.01.401.045.598a.615.615 0 01-.16 0 .296.296 0 01-.14 0 .13.13 0 01-.064-.117 1.93 1.93 0 00-.14-.5.325.325 0 00-.118-.157.313.313 0 00-.187-.057h-1.578v2.513c0 .143.089.24.273.299.209.061.422.107.637.136.083 0 .127.072.127.189a.92.92 0 010 .181h-2.196l-.637.04a.968.968 0 010-.176c0-.11.038-.169.108-.175.189-.044.374-.1.554-.17a.292.292 0 00.152-.113.303.303 0 00.052-.185l-.09-5.507zm6.315 2.728a3.75 3.75 0 01.267-1.429 3.81 3.81 0 01.739-1.136 3.481 3.481 0 011.044-.812 2.909 2.909 0 011.273-.292 4.083 4.083 0 011.611.299 3.18 3.18 0 011.106.773c.31.334.547.733.695 1.168.15.445.225.913.224 1.383a4.048 4.048 0 01-.274 1.533c-.172.43-.43.82-.76 1.14a3.21 3.21 0 01-1.15.724 3.91 3.91 0 01-1.395.246 3.594 3.594 0 01-1.381-.26 3.075 3.075 0 01-1.076-.74 3.389 3.389 0 01-.7-1.156 4.273 4.273 0 01-.223-1.441zm3.648 3.117a2.117 2.117 0 001.623-.734c.203-.242.359-.523.459-.825a3.13 3.13 0 00.165-1.039 6.152 6.152 0 00-.16-1.448 3.615 3.615 0 00-.483-1.149 2.385 2.385 0 00-.815-.773 2.29 2.29 0 00-1.152-.28c-.286 0-.57.058-.834.17a2.064 2.064 0 00-.7.487c-.21.227-.375.494-.484.786a2.954 2.954 0 00-.178 1.071c-.004.501.054 1 .172 1.487.097.421.263.823.49 1.188.203.323.478.592.802.786a2.11 2.11 0 001.095.28v-.007zm8.357-2.76h-.783v2.383a.325.325 0 00.053.2c.04.06.097.103.164.125.206.07.42.116.636.136.083 0 .128.078.128.189a.92.92 0 010 .181l-.694-.039H45.99l-.681.04a.968.968 0 010-.176c0-.104.038-.156.114-.175.196-.023.387-.076.567-.156a.325.325 0 00.166-.312v-5.48a.352.352 0 00-.153-.312 1.535 1.535 0 00-.599-.156c-.07 0-.108-.065-.108-.182a.917.917 0 010-.175l.636.039h2.07a2.548 2.548 0 011.731.513c.187.172.334.384.43.621.097.237.141.493.13.749 0 .17-.026.338-.076.5a1.967 1.967 0 01-.668.967c-.192.15-.407.267-.637.345l1.77 2.513c.111.168.265.303.445.39.149.066.302.12.459.162.063 0 .095.064.095.149a.908.908 0 010 .195l-.592-.04h-.636a.702.702 0 01-.453-.194 2.427 2.427 0 01-.432-.5l-1.643-2.5zm-.222-.442c.405.027.808-.085 1.145-.318a1.341 1.341 0 00.401-1.123 2.095 2.095 0 00-.083-.617 1.247 1.247 0 00-.267-.487 1.273 1.273 0 00-.49-.325 2.024 2.024 0 00-.738-.117h-.529v2.987h.56zM56.66 43.9v5.779a.37.37 0 00.204.35c.218.088.447.141.681.156.076 0 .115.058.115.175a.969.969 0 010 .182l-.713-.039H55.43l-.725.04a.863.863 0 010-.182c0-.104.038-.156.108-.176.235-.023.466-.078.687-.162a.344.344 0 00.16-.138.357.357 0 00.05-.206v-5.78h-1.094a1.9 1.9 0 00-.535.065 1.02 1.02 0 00-.376.195 1.157 1.157 0 00-.274.338 7.627 7.627 0 00-.241.474.13.13 0 01-.07.078h-.09a.32.32 0 01-.203-.065c.07-.26.12-.487.16-.695l.094-.506c.02-.105.05-.207.09-.306a.158.158 0 01.153-.11h5.767a.162.162 0 01.153.117c.039.103.069.21.089.318.02.17.05.34.09.507.038.22.093.437.165.649l-.102.045a.27.27 0 01-.115 0h-.095a.132.132 0 01-.047-.03.135.135 0 01-.03-.048 4.528 4.528 0 00-.235-.473 1.185 1.185 0 00-.268-.338.978.978 0 00-.369-.195 1.864 1.864 0 00-.535-.065l-1.133.045zm10.072 5.811a.268.268 0 00.16.26c.137.057.284.084.432.078h1.159c.18.003.358-.026.528-.084.142-.05.272-.13.382-.235.112-.11.206-.237.28-.376.087-.162.16-.332.217-.507a.129.129 0 01.14-.058.267.267 0 01.115 0l.12.058c-.05.215-.095.449-.14.689-.044.24-.089.513-.12.818a.193.193 0 01-.064.15.255.255 0 01-.127 0h-.453a4.508 4.508 0 00-.47 0h-3.317l-.713.038a.9.9 0 010-.175c0-.104.038-.156.108-.175a2.08 2.08 0 00.592-.17.303.303 0 00.16-.285v-5.494a.339.339 0 00-.147-.311 1.722 1.722 0 00-.573-.156.115.115 0 01-.083-.059.24.24 0 010-.116 1.041 1.041 0 010-.182l.713.039h1.356l.72-.039a.968.968 0 010 .175c0 .121-.039.186-.115.195a2.38 2.38 0 00-.675.156.379.379 0 00-.216.377l.031 5.39zm7.116.026a.309.309 0 00.147.299c.177.08.363.137.554.169.07 0 .108.07.108.175a.968.968 0 010 .175l-.637-.039h-1.273l-.636.04a.968.968 0 010-.176c0-.104.038-.156.108-.175.191-.027.378-.082.554-.163a.317.317 0 00.146-.305v-5.494a.339.339 0 00-.146-.311 1.679 1.679 0 00-.554-.156.103.103 0 01-.083-.065.322.322 0 010-.117.968.968 0 010-.175l.637.039h1.273l.674-.039a.917.917 0 010 .175c0 .11-.038.17-.108.182-.191.02-.379.072-.554.156a.328.328 0 00-.146.311l-.064 5.494zm3.852-5.494a.316.316 0 00-.166-.305 2.239 2.239 0 00-.585-.162.089.089 0 01-.09-.059.33.33 0 010-.123.917.917 0 010-.175l.682.039h3.52c.249 0 .42-.032.51-.032.089 0 .146.058.178.181.04.14.067.284.083.429.012.177.037.353.076.526.023.167.073.33.147.48a.16.16 0 01-.083.059h-.108a.164.164 0 01-.172-.097 4.59 4.59 0 00-.249-.5 1.289 1.289 0 00-.273-.338.968.968 0 00-.363-.189 1.993 1.993 0 00-.528-.058h-1.58v2.857h1.58a.315.315 0 00.299-.208c.065-.163.112-.333.14-.506a.171.171 0 01.191-.143.687.687 0 01.172 0 2.82 2.82 0 01-.039.545c-.019.18-.019.36 0 .54v.44c-.005.201.01.401.045.598a.615.615 0 01-.16 0 .305.305 0 01-.14 0 .128.128 0 01-.063-.117 1.892 1.892 0 00-.14-.5.325.325 0 00-.12-.157.312.312 0 00-.185-.057h-1.58v2.513c0 .143.09.24.274.299.209.061.422.107.637.136.083 0 .127.072.127.189a.986.986 0 010 .181h-2.196l-.636.04a.856.856 0 010-.176c0-.11.038-.169.108-.175.188-.044.373-.1.554-.17a.292.292 0 00.151-.113.305.305 0 00.052-.185l-.07-5.507zm8.327-.343v2.772h1.655a.308.308 0 00.187-.055.32.32 0 00.119-.16c.067-.164.116-.336.146-.512a.171.171 0 01.191-.143h.166a2.79 2.79 0 01-.039.54 2.49 2.49 0 000 .532v.447c-.005.2.01.401.045.598h-.16a.183.183 0 01-.128-.032.188.188 0 01-.075-.11 2.44 2.44 0 00-.146-.514.308.308 0 00-.306-.208h-1.655v2.552c0 .15.095.254.286.305.31.063.627.089.943.078h.598a1.336 1.336 0 00.936-.338c.12-.107.225-.232.312-.37a5.07 5.07 0 00.267-.473c0-.052.077-.078.16-.078a.232.232 0 01.108.032l.114.065a2.53 2.53 0 00-.165.494l-.134.545a4.01 4.01 0 01-.134.442c-.046.12-.104.181-.172.181h-4.252l-.637.04a.968.968 0 010-.176c0-.104.038-.156.108-.175a2.49 2.49 0 00.58-.163.315.315 0 00.178-.305v-5.468a.302.302 0 00-.153-.298 2.498 2.498 0 00-.598-.169c-.07 0-.109-.078-.109-.182a.66.66 0 010-.09.563.563 0 010-.085l.764.045h3.463l.465-.032c.09 0 .153.058.185.182.038.14.065.283.082.428.012.18.038.358.077.533.022.167.076.328.16.474a.308.308 0 01-.192.065.175.175 0 01-.178-.098 6.116 6.116 0 00-.242-.48 1.235 1.235 0 00-.274-.331.975.975 0 00-.37-.195 1.87 1.87 0 00-.534-.065l-1.642-.046zM23.39 62.672v-2.467h.802a1.211 1.211 0 01.892.324 1.4 1.4 0 010 1.812 1.22 1.22 0 01-.892.331h-.802zm.338-.298h.464a.882.882 0 00.637-.247.934.934 0 00.242-.695.866.866 0 00-.186-.649.838.838 0 00-.59-.306h-.587l.02 1.897zm4.012.286v-2.455h1.432v.272h-1.063v.773h.86v.3h-.86v.791h1.063v.299l-1.432.02zm4.41 0l-.878-2.461h.363l.598 1.733.096.338c.023-.114.053-.227.089-.338l.636-1.733h.357l-.879 2.46h-.382zm3.457.012v-2.467h1.407v.272h-1.07v.773h.866v.3h-.865v.791h1.126v.299l-1.464.032zm3.782-.012v-2.461h.337v2.162h1.082v.299h-1.42zm3.336-1.247a1.324 1.324 0 01.246-1.099 1.255 1.255 0 011.99 0 1.325 1.325 0 01.246 1.099 1.325 1.325 0 01-.245 1.098 1.27 1.27 0 01-.996.489 1.255 1.255 0 01-.995-.489 1.307 1.307 0 01-.246-1.098zm.35 0a.999.999 0 00.255.695.878.878 0 00.982.203.88.88 0 00.29-.203 1 1 0 00.256-.695.945.945 0 00-.255-.65.895.895 0 00-1.273 0 .944.944 0 00-.261.65h.006zm4.468 1.246v-2.461h.885a.734.734 0 01.547.208.751.751 0 01.21.558.776.776 0 01-.21.565.738.738 0 01-.54.214h-.548v.91l-.344.006zm.337-1.208h.503a.456.456 0 00.344-.13.485.485 0 00.127-.35.47.47 0 00-.47-.494h-.497l-.007.974zm3.471 1.209l.217-2.455h.35l.554 1.299.114.33c.045-.129.083-.24.121-.33l.554-1.3h.35l.191 2.455h-.324l-.115-1.532v-.364l-.127.364-.484 1.104h-.3l-.477-1.104-.127-.37c.007.123.007.247 0 .37l-.115 1.545-.382-.013zm4.851-.027v-2.428h1.388v.272h-1.044v.78h.853v.292h-.853v.78h1.108v.291l-1.452.014zm3.788.027v-2.455h.331l1.076 1.571.197.358v-1.949h.331v2.455h-.33l-1.076-1.591-.198-.357v1.948l-.33.02zm4.984-.007v-2.176h-.827v-.298h1.986v.298h-.828v2.15l-.33.026zM56.852 10.62V9.256l-3.87-1.565-2.688-1.058v13.078h-.89V5.594l3.577 1.403v-.793L49.403 4.51l-1.07-1.429h-6.951l-1.07 1.429-3.578 1.694v.793l3.578-1.403v14.117h-.884V6.633l-2.694 1.058-3.87 1.565v1.364l-6.55 1.753V28.92l11.178 4.838h6.284v-3.15h2.164v3.188h6.265l11.179-4.837V12.367l-6.532-1.747zm-5.8 1.331v-1.474l9.46 2.117v.799l-8.709-1.5v14.59l-.75.228v-14.76zm9.46 2.338V25.21l-3.692 1.104v-12.52l3.693.494zm-4.87-.65v12.988l-2.12.649V13.36l2.12.28zM42.127 4.31h5.468l.56 1.298h-6.588l.56-1.299zm2.73 18.07h-2.546v-2.097h5.042v2.098h-2.495zm2.547 1.26v2.098h-5.042V23.64h5.042zm-2.075-4.61h-2.967V8.575c0-.513.548-.845 2.076-.845h.891c1.528 0 2.075.332 2.075.845v10.454H45.33zm-16.1-6.422l9.46-2.13v16.234l-.751-.22V11.898l-8.71 1.513v-.805zm7.003 14.682l-2.12-.65V13.654l2.12-.28V27.29zm-7.003-12.987l3.692-.494v12.513l-3.692-1.104V14.303zm-2.305-1.169l1.407-.312v12.143l-1.407-.422v-11.41zM62.842 28.29L52.25 32.691h-4.832v-3.7l-2.547-.78-2.546.78v3.7h-4.832L26.9 28.29v-2.877l10.593 3.41h3.89v-.65l3.508-1.045 3.495 1.026v.649h3.82l10.618-3.39.02 2.877zm0-3.753l-1.407.422V12.815l1.407.312v11.409zM46.997 2.523L45.883.413c-.637 0-.809-.325-1.006-.325-.197 0-.357.324-1.006.324l-1.114 2.11h4.24zm28.229 52.922H14.352v.065h60.874v-.065z" fill="#fff"/></svg>