<svg xmlns="http://www.w3.org/2000/svg" viewBox="0 0 674.25 188.12"><g data-name="Layer 2"><g data-name="Layer 1"><circle cx="94.06" cy="94.06" r="28.22" fill="#ff9600"/><path d="M146.43 125.5a61.15 61.15 0 110-62.87l28.28-17a94.06 94.06 0 100 96.83zm127.49-50.62h13.83v4.84A14.61 14.61 0 01300 74c4 0 8.21 1 11.42 4.16s3.63 6.57 3.63 10.8v24.56h-13.81V94c0-2.25.09-5.62-1.73-7.52a5.77 5.77 0 00-4.41-1.65 7.55 7.55 0 00-5.1 1.82 8.88 8.88 0 00-2.25 6.13v20.76h-13.83zm65.87 11.32v27.33H326V86.2h-4.41V74.88H326V56.93h13.83v17.95h7.87V86.2zm115.47-29.27v56.6h-13.84v-56.6zm185.74 0V88.8l13-13.92h18.76l-18.22 17.81 19.71 20.84h-19.19L641 97.71v15.82h-13.87v-56.6zM211.57 104a9.73 9.73 0 116.91-16.56V75.83a19.82 19.82 0 00-9-2.16 22.3 22.3 0 00-15.57 5.88 21 21 0 00-6.22 15 20.21 20.21 0 006 14.44 21.37 21.37 0 0015.22 5.89 20.58 20.58 0 009.6-2.16v-11.64a9.7 9.7 0 01-6.94 2.92zM418.1 74.88v3.72a15.28 15.28 0 00-11.59-5 19.89 19.89 0 00-13.92 5.4c-3.11 3.11-6 8.21-6 15.47a19.54 19.54 0 005.53 14.19 18.52 18.52 0 0013.92 6.14c3.81 0 8.82-1.13 12-5.54v4.24h13.84V74.88zM408.82 104a9.73 9.73 0 119.73-9.72 9.73 9.73 0 01-9.73 9.72zm115.42-24.8a19.21 19.21 0 00-13.74-5.62 14.44 14.44 0 00-11.85 5.54v-4.24h-13.84v56.88h13.84v-21.95a16.45 16.45 0 0012 5 18.56 18.56 0 0013.23-5.37 21.92 21.92 0 00.34-30.26zM507.92 104a9.73 9.73 0 119.73-9.72 9.72 9.72 0 01-9.73 9.72zM568 74.88v3.72a15.29 15.29 0 00-11.59-5 19.89 19.89 0 00-13.94 5.4 21.38 21.38 0 00-6 15.47 19.51 19.51 0 005.53 14.22 18.5 18.5 0 0014 6.14c3.8 0 8.82-1.13 12-5.54v4.24h13.83V74.88zM558.71 104a9.73 9.73 0 119.16-12.88.45.45 0 010 .11 8.6 8.6 0 01.38 1.43c0 .22 0 .42.06.63a8.1 8.1 0 01.1 1 9.72 9.72 0 01-9.7 9.71zm-192.04-8.69a9.69 9.69 0 0115.39-7.88v-13c-1.82-.09-2.42-.18-2.76-.18a15.12 15.12 0 00-7.18 1.56 12.46 12.46 0 00-5.45 5.36v-6.29h-13.84v38.65h13.84V95.31zm238.46 0a9.7 9.7 0 0115.4-7.88v-13c-1.82-.09-2.42-.18-2.77-.18a15.11 15.11 0 00-7.17 1.56 12.54 12.54 0 00-5.46 5.36v-6.29H591.3v38.65h13.83zm-339.25 1.44h1.44v-1.46c0-4.33-.69-11.07-6.14-16.26-4.58-4.32-10.37-5.27-14.87-5.27-7.61 0-12.63 2.5-15.82 5.62-3.38 3.28-5.8 8.47-5.8 15a20.2 20.2 0 005.71 14.6c4.75 4.76 10.89 5.89 16 5.89 8.39 0 12.89-2.6 15.74-5.37a17.32 17.32 0 004.67-7.95h-13.12a7.51 7.51 0 01-7 4.39c-5.06 0-7.77-3.91-8.41-9.13h27.59zM246.7 82.58c3.93 0 6.49 2.53 7.71 6.21H239c1.2-3.68 3.76-6.21 7.7-6.21z" fill="#fff"/></g></g></svg>