<svg width="52" height="52" fill="none" xmlns="http://www.w3.org/2000/svg"><circle cx="26" cy="26" r="26" fill="#FFA409"/><path fill-rule="evenodd" clip-rule="evenodd" d="M35.438 36.214c.019.198.005.4.005.628h1.124l.041-.885c.9.095 1.69.125 2.526.455l.015.144c-.21.07-.415.18-.63.205-1.29.146-2.578.348-3.87.392-3.35.114-6.7.218-10.049.211-3.396-.006-6.796-.067-10.176-.48-.373-.045-.742-.135-1.11-.216-.086-.018-.162-.08-.314-.158.42-.334.869-.332 1.285-.389a36.748 36.748 0 012.288-.223c.225-.018.325-.11.41-.306.735-1.712 1.1-3.504 1.18-5.358a20.926 20.926 0 00-.355-4.895c-.014-.068-.032-.134-.042-.178-.404.143-.786.34-1.19.411-1.919.341-3.48-1.499-2.85-3.346.07-.203.058-.33-.075-.502a2.55 2.55 0 01.266-3.434.574.574 0 00.21-.483c-.037-1.655 1.202-2.806 2.848-2.677a.525.525 0 00.377-.161c1.058-1.2 2.64-1.295 3.834-.23.084.075.279.11.383.067 1.944-.79 3.821.622 3.624 2.725a.487.487 0 00.163.367c1.45 1.123 1.444 3.091-.027 4.206-.135.102-.234.174-.203.391.151 1.054-.218 1.92-1.089 2.518-.861.593-1.787.603-2.715.116-.06-.031-.123-.057-.25-.115-.112.67-.244 1.3-.32 1.937a18.826 18.826 0 00.867 8.374c.096.283.229.355.507.337.409-.027.641-.007 1.093-.007 0 .399.01.855.01 1.269h1.266c0-.32-.022-.678-.022-.678s.093-.002.03-.013c.08.02.034-.017.034-.017s.037-.076.046.017c.312 0 .837.026 1.16.026.014-.171.018-.426.037-.67 2.866.06 5.494.105 8.354.165.035.166.01.43.038.563.287 0 .932.013 1.147.013.022-.124-.005-.516-.005-.516s.041.006.111-.012" fill="#fff"/><path fill-rule="evenodd" clip-rule="evenodd" d="M36.968 33.51c-.21.018-.37-.003-.563.014v2.415l.002.424c.001.475.022.358-.433.374-.29.01-.412.021-.407-.277.017-.966.007-1.932.007-2.928h-.428c0 .735.004 1.463-.005 2.19-.001.132-.033.365-.084.374-.213.04-.441.03-.657-.003-.04-.007-.072-.205-.072-.315-.007-.742-.004-1.483-.004-2.252H25.53v2.562c-.076.024-.108.04-.141.044-.688.068-.694.057-.688-.62.006-.658.002-1.316.002-1.99h-.392v2.086c0 .283-.011.567.012.849.03.371-.184.379-.464.385-.284.006-.396-.065-.388-.373.02-.861.007-1.723.006-2.585 0-.114-.01-.23-.015-.362-.133-.013-.178-.009-.386-.012 0-.255.024-.396.064-.58.436-.63.927-1.254.927-1.254s.691.007 1.29.007c3.517 0 7.034.004 10.551-.007h.325s.151.198.207.337c.147.367.338.715.493 1.079.043.1.023.262.035.418zm-.737-3.815v.611H24.066v-.61h12.165zm0 .992c0 .27.011.388.011.677-.124.007-.247.02-.37.02-3.81 0-7.613-.033-11.421-.018-.163 0-.373.006-.373.006s-.01-.12-.01-.281c-.002-.182 0-.427 0-.427h.373c3.809.013 7.617.007 11.426.007.115 0 .23.01.364.016zm-12.124-2.095h12.118c0 .267-.003.438-.003.73H24.098s-.012-.303.01-.73z" fill="#fff"/></svg>