<svg width="52" height="52" fill="none" xmlns="http://www.w3.org/2000/svg"><circle cx="26" cy="26" r="26" fill="#FFA409"/><path d="M30.444 33.733a2.213 2.213 0 001.36 2.093 2.227 2.227 0 002.929-1.228 2.212 2.212 0 00-.513-2.4 2.225 2.225 0 00-3.776 1.535zm-11.11 0c0 .588.233 1.152.65 1.568a2.225 2.225 0 003.143 0 2.214 2.214 0 000-3.135 2.225 2.225 0 00-3.794 1.567zm3.94-5.35l12.298-3.505a.626.626 0 00.428-.566v-6.095H20.444v-1.774a.446.446 0 00-.443-.443h-3.558a.446.446 0 00-.443.443v1.774h2.222l2.122 9.927.1 1.045v1.828c0 .242.2.443.445.443h14.667a.447.447 0 00.444-.443V29.3H23.502c-1.278 0-1.304-.61-.228-.918z" fill="#fff"/></svg>