<svg width="20" height="20" fill="none" xmlns="http://www.w3.org/2000/svg"><path d="M14.444 17.733a2.213 2.213 0 001.36 2.093 2.227 2.227 0 002.929-1.228 2.212 2.212 0 00-.513-2.4 2.225 2.225 0 00-3.776 1.535zm-11.11 0c0 .588.233 1.152.65 1.568a2.225 2.225 0 003.794-1.568 2.21 2.21 0 00-.651-1.567 2.225 2.225 0 00-3.794 1.567zm3.94-5.35l12.298-3.505A.627.627 0 0020 8.312V2.217H4.444V.443A.446.446 0 004.001 0H.443A.446.446 0 000 .443v1.774h2.222l2.122 9.927.1 1.045v1.828c0 .242.2.443.445.443h14.667a.447.447 0 00.444-.443V13.3H7.502c-1.278 0-1.304-.61-.228-.918z"/></svg>