<svg width="52" height="52" fill="none" xmlns="http://www.w3.org/2000/svg"><circle cx="26" cy="26" r="26" fill="#FFA409"/><path d="M15.294 20.017A2.14 2.14 0 0015 21.078v10.01c0 .383.113.745.294 1.038l6.055-6.054-6.055-6.055zm12.968 8.563a3.095 3.095 0 01-2.192.903c-.835 0-1.626-.316-2.191-.904l-1.762-1.762-6.033 6.032c.294.158.61.249.972.249H35.13c.34 0 .678-.09.972-.249l-6.033-6.032-1.807 1.762zm8.585-8.563l-6.055 6.055 6.055 6.054c.18-.293.294-.655.294-1.039V21.078a2.01 2.01 0 00-.294-1.061z" fill="#fff"/><path d="M24.625 27.811c.384.384.926.588 1.445.588.52 0 1.04-.204 1.446-.588l8.563-8.563A1.982 1.982 0 0035.13 19H17.056c-.34 0-.678.09-.95.248l8.518 8.563z" fill="#fff"/></svg>