<svg width="52" height="52" fill="none" xmlns="http://www.w3.org/2000/svg"><circle cx="26" cy="26" r="26" fill="#FFA409"/><path d="M33.272 30.341v1.717c0 .183-.152.33-.34.33h-1.485v1.446c0 .182-.152.33-.34.33h-1.764a.335.335 0 01-.34-.33v-1.445H27.49a.335.335 0 01-.34-.33v-1.717c0-.183.152-.331.34-.331h1.515v-1.474c0-.182.152-.33.34-.33h1.764c.187 0 .34.148.34.33v1.474h1.484c.188 0 .34.148.34.33zM39 20.392v4.172s-.005.226-.021.277c-.066.209-.118.303-.425.367-.063.012-.272.02-.272.02h-.743v11.847a.94.94 0 01-.951.926H16.412a.94.94 0 01-.951-.926V25.227h-.809s-.192-.028-.228-.043a.653.653 0 01-.368-.318C14 24.768 14 24.563 14 24.563V20.4a.902.902 0 01.08-.36l2.3-5.465a.948.948 0 01.88-.575h18.48c.388 0 .733.226.88.575l2.305 5.474c.046.101.073.22.076.342zm-3.747-5.597l2.248 5.615h.684v-.01a.123.123 0 00-.01-.04l-2.31-5.484a.136.136 0 00-.126-.082h-.486zm-4.079 0l1.093 5.615h1.38L32.3 14.794h-1.126zm-5.235 0l-.254 5.615h1.63l-.253-5.615h-1.123zm-5.24 0l-1.346 5.615h1.38l1.092-5.615H20.7zm-5.884 5.615h.684l2.248-5.615h-.486a.135.135 0 00-.126.082s-2.32 5.515-2.32 5.533zm8.224 6.79c0-.293-.271-.53-.606-.53h-3.926c-.334 0-.605.237-.605.53v9.811h5.137v-9.812zm11.936 0a.537.537 0 00-.544-.53H25.99c-.3 0-.544.237-.544.53v7.974c0 .292.244.529.544.529h8.441c.3 0 .544-.237.544-.53v-7.974zm3.21-2.822v-2.7H14.812l-.007 2.697 1.569.004c.334 0 .605-.237.605-.529v-1.238h1.654v1.238c0 .292.27.53.605.53h2.932c.334 0 .605-.238.605-.53v-1.238h1.654v1.238c0 .292.27.53.605.53h2.931c.335 0 .606-.238.606-.53v-1.238h1.653v1.238c0 .292.271.53.606.53h2.931c.335 0 .606-.238.606-.53v-1.238h1.653v1.238c0 .292.271.53.606.53l1.559-.002z" fill="#fff"/></svg>