<svg width="52" height="52" fill="none" xmlns="http://www.w3.org/2000/svg"><circle cx="26" cy="26" r="26" fill="#FFA409"/><path fill-rule="evenodd" clip-rule="evenodd" d="M14.98 17.679c.155-.1.304-.208.462-.3a2.769 2.769 0 011.415-.375c2.788-.002 5.576 0 8.364 0 .035 0 .072.007.072.007v4.764c-1.235.173-2.27.786-3.005 1.862-.54.79-.76 1.675-.707 2.632.103 1.813 1.481 3.63 3.715 3.942v4.762a6.163 6.163 0 01-.236.005c-2.655.001-5.31-.003-7.966.004-.746.002-1.437-.138-2.017-.64-.025-.022-.064-.027-.096-.039l-.3-.3c-.931-1.115-.615-2.447-.675-3.762l3.709.025v-8.565l-3.658.002c-.012-.689-.038-1.375-.03-2.06.005-.476.17-.915.423-1.317.075-.118.155-.232.232-.348l.299-.3zm22.017.299c.073.108.15.214.219.324.249.394.425.823.431 1.29.01.695-.02 1.392-.034 2.084l-3.668-.004v8.56l3.753-.011c-.032.876.013 1.704-.11 2.506-.19 1.237-1.292 2.15-2.545 2.24-.15.01-.3.012-.45.011-2.647.001-5.294 0-7.942.002-.096 0-.193.016-.249.02v-4.795c1.24-.176 2.291-.807 3.027-1.92.529-.8.737-1.691.664-2.646a4.266 4.266 0 00-3.7-3.867l-.002-4.762c.038 0 .13-.006.224-.006 2.674 0 5.348.002 8.021-.004.729-.001 1.4.152 1.965.64.025.02.064.026.097.038l.3.3z" fill="#fff"/><path fill-rule="evenodd" clip-rule="evenodd" d="M37.6 29.274h-2.725v-6.567l2.728.006-.003 6.561zm-11.248-6.518c1.56.166 2.845 1.717 2.792 3.338-.056 1.711-1.486 3.014-2.792 3.12v-6.458zm-1.035.011v6.442c-1.245-.075-2.737-1.377-2.783-3.132-.047-1.762 1.376-3.175 2.783-3.31zm-8.505-.052l-.003 6.538-2.752-.002v-6.54l2.755.005z" fill="#fff"/></svg>