<svg width="52" height="52" fill="none" xmlns="http://www.w3.org/2000/svg"><circle cx="26" cy="26" r="26" fill="#FFA409"/><path d="M22.304 15c-.167 0-.301.117-.301.261v.933h-2.07c-.344 0-.62.257-.62.577v12.542c0 1.77 2.747 3.197 6.16 3.197h2.054c3.413 0 6.16-1.426 6.16-3.197V16.77c0-.32-.277-.577-.621-.577h-2.07v-.933c0-.144-.134-.261-.3-.261h-8.392zm1.755.95a.448.448 0 01.446.443.441.441 0 01-.446.443.448.448 0 01-.446-.443.44.44 0 01.446-.442zm4.882 0a.448.448 0 01.446.443.441.441 0 01-.446.443.448.448 0 01-.446-.443.44.44 0 01.446-.442zm-8.056 1.864H32.11c.203 0 .365.149.365.334l.004 4.928v1.616c0 1.578-2.666 2.85-5.978 2.85s-5.978-1.271-5.978-2.85v-1.616c.019-1.97-.004-2.993-.004-4.928 0-.185.163-.334.365-.334zm-2.404 1.02a.49.49 0 00-.481.491v2.948a.482.482 0 00.3.454.491.491 0 00.641-.267.48.48 0 00.035-.187v-2.948a.481.481 0 00-.305-.456.493.493 0 00-.19-.035zm16.024 0a.49.49 0 00-.481.491v2.948a.48.48 0 00.3.454.491.491 0 00.64-.267.482.482 0 00.036-.187v-2.948a.484.484 0 00-.495-.491zM23.867 29.397h5.266c.15 0 .27.112.27.251v.219c0 .139-.12.25-.27.25h-5.266c-.15 0-.27-.111-.27-.25v-.219c0-.139.12-.25.27-.25zm7.653 2.739a.492.492 0 00-.41.21.482.482 0 00-.05.455l.297.761h-9.725l.296-.76a.48.48 0 00-.238-.617.491.491 0 00-.672.267l-1.9 4.873a.482.482 0 00.276.633.492.492 0 00.634-.283l.282-.722h12.37l.281.722a.485.485 0 00.446.325.492.492 0 00.465-.296.48.48 0 000-.379l-1.901-4.873a.485.485 0 00-.45-.316zM21.255 34.53h10.48l.567 1.453H20.687l.567-1.453z" fill="#fff"/></svg>