<svg width="52" height="52" fill="none" xmlns="http://www.w3.org/2000/svg"><circle cx="26" cy="26" r="26" fill="#FFA409"/><path fill-rule="evenodd" clip-rule="evenodd" d="M32.786 20.79l-1.574-1.545-5.091 5.039c-.569-.67-1.147-1.339-1.705-1.976l4.851-4.86c.627-.627 1.681-.592 2.355.08l2.507 2.487c.672.671.637 1.576.01 2.204l-5.327 5.343a75.152 75.152 0 00-1.314-1.638l5.288-5.134zm3.031 12.358l-.014.004c-.65.226-1.919.665-3.376-1.8-1.467-2.48-3.407-1.903-3.407-1.903-.09.015-.168.042-.246.07l-.052.017c-2.19-3.119-8.348-9.911-8.89-10.455-.78-.777-2.087-1.507-3.18-.361-1.03 1.078-.502 2.484.277 3.263.547.547 7.377 6.737 10.495 8.92a1.536 1.536 0 00-.095.42c0 4.558 4.66 4.317 5.625 4.14 1.718-.31 3.51-2.537 2.863-2.316zm-12.773-2.89l-.284.94.608.607-4.764 2.07-.938-.899 2.152-4.534-.023.883 1.248-.017 1.066-1.057a173.868 173.868 0 01-1.953-1.684l-1.042 1.044s-2.89 6.65-3.086 7.188c-.156.425.382.964.755.781.6-.296 7.175-3.15 7.175-3.15l1.46-1.465a73.21 73.21 0 01-1.701-1.367l-.673.66z" fill="#fff"/></svg>