<svg width="52" height="52" fill="none" xmlns="http://www.w3.org/2000/svg"><circle cx="26" cy="26" r="26" fill="#FFA409"/><path d="M33.996 38.01l-.739-17.12c-.02-.476-.348-.85-.745-.85h-2.18v-.84c0-2.868-1.944-5.2-4.333-5.2-2.389 0-4.332 2.332-4.332 5.2v.84h-2.18c-.397 0-.725.374-.745.85L18 38.057c-.01.246.063.486.204.664a.695.695 0 00.542.279h14.506c.413 0 .747-.401.747-.896a.971.971 0 00-.004-.094zM22.731 23.668c-.442 0-.8-.43-.8-.96s.358-.96.8-.96c.442 0 .8.43.8.96s-.358.96-.8.96zm5.38-3.627h-4.222v-.842c0-1.397.947-2.533 2.11-2.533 1.164 0 2.111 1.136 2.111 2.533v.841zm1.158 3.627c-.442 0-.8-.43-.8-.96s.358-.96.8-.96c.442 0 .8.43.8.96s-.358.96-.8.96z" fill="#fff"/></svg>