<svg width="52" height="52" fill="none" xmlns="http://www.w3.org/2000/svg"><circle cx="26" cy="26" r="26" fill="#FFA409"/><path d="M23.25 15.048c.151-.124.4.011.383.202.01.725.008 1.449-.001 2.174.183.191.37.38.553.57.086.104.227.123.349.163.462.133.916.297 1.382.416.485-.145.97-.292 1.45-.452.293-.226.54-.508.815-.755-.007-.668-.005-1.337-.003-2.005.006-.097-.014-.215.068-.288.123-.142.396-.06.408.13.017.789-.01 1.578.012 2.366.29.561.655 1.08.986 1.618.19.29.393.57.59.854-.17.354-.274.733-.428 1.093-.128.286-.201.592-.328.88-.22.513-.349 1.06-.593 1.564-.112.312-.233.62-.364.925 1.46.693 2.677 1.785 3.753 2.962 1.315 1.458 2.425 3.085 3.412 4.773A33.02 33.02 0 0137 34.706c-1.449.928-3.028 1.652-4.658 2.212-2.308.785-4.764 1.198-7.208 1.054-2.608-.15-5.162-.86-7.539-1.91-.892-.4-1.767-.839-2.595-1.356a34.355 34.355 0 012.882-4.932c.977-1.378 2.068-2.69 3.359-3.797.67-.57 1.4-1.077 2.197-1.459-.596-1.474-1.083-2.989-1.676-4.463.007-.066.06-.116.09-.172a28.03 28.03 0 001.282-2.117c.047-.749.01-1.503.02-2.254.015-.154-.05-.355.096-.464zm1.486 3.512c.095.102.194.2.294.295.104-.035.209-.066.311-.106-.2-.065-.403-.126-.605-.189zm1.724.194l.198.058.189-.181c-.13.04-.259.081-.387.123zm-1.18.362c.179.16.323.383.522.505.204-.175.39-.37.586-.553-.158-.043-.311-.102-.471-.137-.217.045-.423.13-.637.185z" fill="#fff"/></svg>