<svg width="22" height="21" fill="none" xmlns="http://www.w3.org/2000/svg"><path d="M12.655 3.64c.325-.254.301-.765-.07-.95a.591.591 0 00-.487-.023l-1.947.788.765-2.226a.58.58 0 00-.278-.696L10.545.51c-.232-.139-.533-.07-.719.14L8.412 2.503 7.994.464C7.971.302 7.855.162 7.716.07a.56.56 0 00-.765.232.447.447 0 00-.07.231l-.185 3.038 3.524 1.901 2.435-1.831zM4.47 11.223c.093-.186.348-.255.533-.163l2.319 1.23 3.014-3.595a1.73 1.73 0 00-.51-2.62L6.418 4.243c-.951-.51-2.157-.023-2.458 1.02l-.232.766L6.88 7.72c.186.093.279.348.163.534l-.116.232c-.093.185-.348.255-.534.162L3.38 7.095l-1.901 6.4 1.808.974c.186.093.255.348.163.533l-.116.232c-.093.186-.348.255-.534.163l-1.623-.858L.041 18.34c-.278.928.928 1.577 1.554.835l5.031-6.052-2.11-1.136c-.185-.093-.278-.348-.162-.533l.116-.232zm15.188-.743a.987.987 0 01-.812.789l-.301.046.904 1.693a1.02 1.02 0 01-.023.997c-.186.301-.51.487-.858.487a.993.993 0 01-.51-.14L15.53 12.87l-2.458 1.484a1.062 1.062 0 01-.51.139c-.348 0-.649-.186-.858-.464a.992.992 0 01-.07-.95l.812-1.763-.533-.139a1.046 1.046 0 01-.696-.626c-1.368.997-2.249 2.481-2.249 4.15 0 3.038 2.922 5.496 6.516 5.496S22 17.738 22 14.701c.023-1.693-.905-3.224-2.342-4.22z"/><path d="M12.122 10.342l1.391.348c.07.023.116.116.093.185l-1.183 2.574c-.046.116.07.232.186.162l2.829-1.716a.148.148 0 01.139 0l2.898 1.716c.116.07.255-.07.186-.185l-1.392-2.597c-.046-.07 0-.186.093-.186l1.299-.232c.139-.023.139-.231.023-.255-.65-.185-1.762-.487-2.643-.603.07-.834.347-1.947.556-2.411.162-.371-1.136-.394-1.275 0-.116.348-.325 1.507-.394 2.388-.905.093-2.134.371-2.83.557-.092.046-.092.232.024.255z"/></svg>