<svg width="52" height="52" fill="none" xmlns="http://www.w3.org/2000/svg"><circle cx="26" cy="26" r="26" fill="#FFA409"/><path d="M27.655 19.64c.325-.255.301-.765-.07-.95a.591.591 0 00-.486-.023l-1.948.788.765-2.226a.58.58 0 00-.278-.695l-.093-.024c-.232-.139-.533-.07-.719.14l-1.414 1.854-.418-2.04c-.023-.162-.139-.301-.278-.394a.56.56 0 00-.765.232.447.447 0 00-.07.232l-.185 3.037 3.524 1.901 2.435-1.831zm-8.185 7.583c.093-.186.348-.255.533-.162l2.319 1.228 3.014-3.594a1.73 1.73 0 00-.51-2.62l-3.408-1.832c-.951-.51-2.157-.023-2.458 1.02l-.232.766 3.153 1.692c.186.093.279.348.163.534l-.116.232c-.093.185-.348.255-.534.162l-3.014-1.554-1.901 6.4 1.808.974c.186.093.255.348.163.533l-.116.232c-.093.186-.348.255-.534.163l-1.623-.858-1.136 3.802c-.278.928.928 1.577 1.554.835l5.031-6.052-2.11-1.136c-.185-.093-.278-.348-.162-.533l.116-.232zm15.188-.743a.987.987 0 01-.812.789l-.301.046.904 1.693a1.02 1.02 0 01-.023.997c-.186.301-.51.487-.858.487a.993.993 0 01-.51-.14L30.53 28.87l-2.458 1.484a1.062 1.062 0 01-.51.139c-.348 0-.649-.186-.858-.464a.992.992 0 01-.07-.95l.812-1.763-.533-.139a1.046 1.046 0 01-.696-.626c-1.368.997-2.249 2.481-2.249 4.15 0 3.038 2.922 5.496 6.516 5.496S37 33.738 37 30.701c.023-1.693-.905-3.224-2.342-4.22z" fill="#fff"/><path d="M27.122 26.342l1.391.348c.07.023.116.116.093.185l-1.183 2.574c-.046.116.07.232.186.162l2.829-1.716a.148.148 0 01.139 0l2.898 1.716c.116.07.255-.07.186-.185l-1.392-2.597c-.046-.07 0-.186.093-.186l1.299-.232c.139-.023.139-.231.023-.255-.65-.185-1.762-.487-2.643-.602.07-.835.347-1.948.556-2.412.162-.371-1.136-.394-1.275 0-.116.348-.325 1.507-.395 2.388-.904.093-2.133.371-2.828.557-.093.046-.093.232.023.255z" fill="#fff"/></svg>