<svg width="52" height="52" fill="none" xmlns="http://www.w3.org/2000/svg"><circle cx="26" cy="26" r="26" fill="#FFA409"/><path d="M36.607 35.429H35.43V19.32a.394.394 0 00-.393-.392h-3.86v-3.536a.393.393 0 00-.393-.393h-9.566a.393.393 0 00-.393.393v3.536h-3.86a.393.393 0 00-.393.392v16.11h-1.178a.394.394 0 00-.393.392v.786c0 .216.176.393.393.393h21.214a.394.394 0 00.393-.393v-.786a.394.394 0 00-.393-.392zM26 15.786a2.357 2.357 0 110 4.715 2.357 2.357 0 010-4.715zm-3.106 6.073h2.33v2.33h-2.33v-2.33zm-1.552 10.094h-2.33v-2.328h2.33v2.328zm0-3.883h-2.33v-2.329h2.33v2.33zm0-3.882h-2.33V21.86h2.33v2.33zm1.552 1.553h2.33v2.33h-2.33v-2.33zm5.048 9.688h-3.883v-3.476h3.883v3.476zm1.164-7.359h-2.331v-2.329h2.33v2.33zm0-3.882h-2.331V21.86h2.33v2.33zm3.883 7.765h-2.33v-2.328h2.33v2.328zm0-3.883h-2.33v-2.329h2.33v2.33zm0-3.882h-2.33V21.86h2.33v2.33z" fill="#fff"/><path d="M25.538 19.715h.924v-1.11h1.11v-.924h-1.11v-1.11h-.924v1.11h-1.11v.924h1.11v1.11z" fill="#fff"/></svg>