<svg width="60" height="87" fill="none" xmlns="http://www.w3.org/2000/svg"><path d="M30 87C9.999 60.508 0 41.66 0 30.45c0-3.999.776-7.958 2.284-11.653A30.484 30.484 0 018.787 8.92a29.974 29.974 0 019.732-6.601A29.616 29.616 0 0130 0c3.94 0 7.84.788 11.48 2.318a29.974 29.974 0 019.733 6.6 30.484 30.484 0 016.503 9.88A30.848 30.848 0 0160 30.45C60 41.66 50.001 60.508 30 87z" fill="#111821"/><path d="M36.32 28.997c0 2.94-2.434 5.324-5.436 5.324-3.003 0-5.431-2.384-5.431-5.324s2.434-5.318 5.43-5.318c3.003-.006 5.438 2.378 5.438 5.318z" fill="#fff"/><path d="M41.082 35.01c-2.052 3.4-5.776 5.682-10.047 5.682-6.478 0-11.725-5.235-11.725-11.698s5.247-11.698 11.725-11.698c4.271 0 7.995 2.282 10.047 5.681l5.421-3.25A18.04 18.04 0 0031.042 11C21.076 11 13 19.057 13 29s8.076 18 18.042 18c6.565 0 12.31-3.498 15.467-8.733l-5.427-3.257z" fill="#fff"/></svg>