<svg width="25" height="24" fill="none" xmlns="http://www.w3.org/2000/svg"><path d="M19.272 16.341v1.717c0 .183-.152.33-.34.33h-1.485v1.446c0 .182-.152.33-.34.33h-1.764a.335.335 0 01-.34-.33v-1.445H13.49a.335.335 0 01-.34-.33V16.34c0-.182.153-.33.34-.33h1.515v-1.474c0-.183.152-.33.34-.33h1.764c.187 0 .34.147.34.33v1.474h1.484c.188 0 .34.148.34.33zM25 6.392v4.171s-.005.227-.021.278c-.066.209-.118.303-.425.367-.063.012-.272.02-.272.02h-.743v11.847a.94.94 0 01-.951.926H2.412a.94.94 0 01-.951-.926V11.227H.652s-.192-.028-.228-.043a.653.653 0 01-.368-.318C0 10.768 0 10.563 0 10.563V6.4a.902.902 0 01.08-.36L2.38.574A.948.948 0 013.26 0h18.48c.388 0 .733.225.88.575l2.305 5.474c.046.101.073.22.076.342zM21.253.794L23.5 6.409h.684V6.4a.123.123 0 00-.01-.04L21.864.875a.136.136 0 00-.126-.081h-.486zm-4.079 0l1.093 5.615h1.38L18.3.794h-1.126zm-5.235 0l-.254 5.615h1.63L13.063.794H11.94zm-5.24 0L5.354 6.409h1.38L7.825.794H6.7zM.816 6.409H1.5L3.747.794h-.486a.135.135 0 00-.126.081S.815 6.391.815 6.41zm8.224 6.79c0-.293-.271-.53-.606-.53H4.507c-.334 0-.605.237-.605.53v9.811h5.137v-9.812zm11.936 0a.537.537 0 00-.544-.53H11.99c-.3 0-.544.237-.544.53v7.974c0 .292.244.529.544.529h8.441c.3 0 .544-.237.544-.53v-7.974zm3.21-2.822v-2.7H.812l-.007 2.697 1.569.004c.334 0 .605-.237.605-.529V8.611h1.654V9.85c0 .292.27.53.605.53H8.17c.334 0 .605-.238.605-.53V8.611h1.654V9.85c0 .292.27.53.605.53h2.931c.335 0 .606-.238.606-.53V8.611h1.653V9.85c0 .292.271.53.606.53h2.931c.335 0 .606-.238.606-.53V8.611h1.653V9.85c0 .292.271.53.606.53l1.559-.002z"/></svg>