<svg width="23" height="15" fill="none" xmlns="http://www.w3.org/2000/svg"><path d="M.294 1.017A2.14 2.14 0 000 2.078v10.01c0 .383.113.745.294 1.038l6.055-6.054L.294 1.017zM13.262 9.58a3.095 3.095 0 01-2.192.903c-.835 0-1.626-.316-2.191-.904L7.117 7.817l-6.033 6.032c.294.158.61.249.972.249H20.13c.34 0 .678-.09.972-.249l-6.033-6.032-1.807 1.762zm8.585-8.563L15.792 7.07l6.055 6.055c.18-.293.294-.655.294-1.039V2.078a2.01 2.01 0 00-.294-1.061z"/><path d="M9.624 8.811c.384.384.927.588 1.446.588.52 0 1.04-.204 1.446-.588L21.08.25a1.981 1.981 0 00-.95-.25H2.056c-.34 0-.678.09-.95.249L9.625 8.81z"/></svg>