<svg width="20" height="20" fill="none" xmlns="http://www.w3.org/2000/svg"><g clip-path="url(#clip0)"><path clip-rule="evenodd" d="M16.759 3.945L15.185 2.4l-5.091 5.039c-.569-.67-1.148-1.339-1.705-1.976L13.24.603c.626-.627 1.681-.592 2.355.08l2.506 2.487c.673.671.638 1.576.01 2.204l-5.326 5.343a75.152 75.152 0 00-1.314-1.638l5.288-5.134zm3.031 12.358l-.014.004c-.65.226-1.919.665-3.376-1.8-1.467-2.48-3.407-1.903-3.407-1.903-.09.015-.168.042-.246.07a4.46 4.46 0 01-.052.017c-2.19-3.118-8.348-9.91-8.891-10.455C3.025 1.46 1.718.73.624 1.876-.405 2.952.123 4.358.902 5.137c.547.547 7.377 6.737 10.495 8.92a1.534 1.534 0 00-.095.42c0 4.558 4.66 4.317 5.625 4.14 1.718-.31 3.51-2.537 2.863-2.315zm-12.773-2.89l-.284.94.608.607-4.764 2.07-.938-.899 2.152-4.534-.023.883 1.248-.018 1.066-1.056a174.18 174.18 0 01-1.953-1.683l-1.042 1.043S.197 17.416 0 17.954c-.157.425.382.963.755.781.6-.296 7.175-3.15 7.175-3.15l1.46-1.465a73.014 73.014 0 01-1.702-1.367l-.672.66z"/></g><defs><clipPath id="clip0"><path d="M0 0h20v20H0z"/></clipPath></defs></svg>