<svg width="19" height="26" fill="none" xmlns="http://www.w3.org/2000/svg"><path d="M18.995 24.97l-.877-17.804c-.024-.495-.414-.884-.885-.884h-2.589v-.875C14.644 2.426 12.336 0 9.5 0 6.662 0 4.355 2.426 4.355 5.407v.875H1.766c-.472 0-.861.389-.885.884L0 25.02a.96.96 0 00.243.69c.167.185.4.29.643.29h17.227c.49 0 .887-.417.887-.932a1.01 1.01 0 00-.005-.098zM5.618 10.055c-.525 0-.95-.447-.95-.999 0-.55.425-.998.95-.998.525 0 .95.447.95.998 0 .552-.425.999-.95.999zm6.388-3.773H6.993v-.875c0-1.452 1.124-2.634 2.506-2.634 1.382 0 2.507 1.182 2.507 2.634v.875zm1.376 3.773c-.525 0-.95-.447-.95-.999 0-.55.425-.998.95-.998.524 0 .95.447.95.998 0 .552-.426.999-.95.999z"/></svg>