<svg width="85" height="34" fill="none" xmlns="http://www.w3.org/2000/svg"><path d="M33.506 15.737h.338c.038.735.35 1.34.951 1.804.601.464 1.352.71 2.253.71.877 0 1.602-.233 2.166-.697a2.197 2.197 0 00.838-1.778c0-.567-.187-1.019-.575-1.367-.388-.348-1.014-.631-1.89-.85l-1.14-.297c-.926-.232-1.602-.554-2.027-.94-.426-.387-.639-.903-.639-1.521 0-.76.313-1.405.927-1.92.613-.516 1.364-.774 2.228-.774.913 0 1.677.245 2.303.735.626.49.951 1.095.976 1.817h-.338c-.037-.632-.325-1.16-.889-1.585-.55-.426-1.239-.632-2.052-.632-.789 0-1.452.22-1.99.67-.551.451-.814 1.005-.814 1.689 0 .541.188.966.576 1.301.388.335 1.001.606 1.852.825l1.127.284c.939.245 1.64.567 2.065.966.438.4.65.928.65 1.573 0 .825-.312 1.495-.938 2.023-.626.529-1.427.787-2.428.787-1.002 0-1.828-.271-2.491-.8-.65-.515-1.014-1.198-1.039-2.023zm17.536-7.475V18.43h-.338V9.074h-.025l-3.993 9.357h-.363l-3.992-9.357h-.026v9.357h-.337V8.26h.362l4.169 9.732h.025l4.143-9.731h.375zm8.924 10.168l-1.289-3.53h-4.593l-1.315 3.53h-.375l3.805-10.168h.35l3.806 10.169h-.389zm-3.604-9.69l-2.153 5.825h4.343L56.4 8.74h-.037zm5.67 5.244v4.447h-.35V8.26h3.066c.989 0 1.765.258 2.328.761.563.516.851 1.212.851 2.101 0 .748-.213 1.366-.626 1.856-.413.49-1 .812-1.74.94l2.604 4.512h-.388L65.2 13.97c-.163.013-.313.013-.451.013h-2.716zm0-5.4v5.078h2.716c.876 0 1.577-.232 2.078-.683.5-.451.75-1.07.75-1.856 0-.8-.25-1.418-.75-1.869-.5-.451-1.202-.67-2.09-.67h-2.704zm10.702 9.846h-.338V8.598h-3.567v-.335h7.46v.335H72.72l.013 9.834zm-34.796 1.03c1.326 0 2.39.477 3.166 1.418.789.941 1.177 2.217 1.177 3.815 0 1.598-.388 2.874-1.177 3.815-.788.941-1.84 1.418-3.179 1.418-1.34 0-2.39-.477-3.18-1.418-.788-.94-1.176-2.217-1.176-3.815 0-1.598.388-2.861 1.177-3.815.788-.954 1.84-1.418 3.191-1.418zm0 .323c-1.227 0-2.204.438-2.93 1.327-.725.877-1.088 2.075-1.088 3.57 0 1.495.363 2.681 1.089 3.57.725.89 1.702 1.328 2.928 1.328 1.215 0 2.19-.438 2.917-1.328.726-.889 1.089-2.075 1.089-3.57 0-1.495-.363-2.68-1.09-3.57-.725-.876-1.701-1.327-2.916-1.327zm6.321 5.543v4.447h-.35v-10.17h3.066c.989 0 1.765.258 2.328.76.563.517.851 1.213.851 2.102 0 .747-.213 1.366-.626 1.856-.425.49-1.001.812-1.74.94l2.604 4.512h-.388l-2.579-4.46c-.162.013-.313.013-.45.013h-2.716zm0-5.4v5.078h2.716c.876 0 1.577-.232 2.078-.683.5-.451.75-1.07.75-1.856 0-.8-.25-1.418-.75-1.87-.501-.45-1.202-.67-2.09-.67h-2.704zm14.544 9.847l-1.289-3.532h-4.593l-1.302 3.532h-.376l3.805-10.17h.35l3.806 10.17h-.4zm-3.592-9.693l-2.165 5.826h4.343l-2.153-5.826h-.025zm5.657 9.693h-.35v-10.17h.375l6.559 9.5h.025v-9.5h.338v10.17h-.313l-6.609-9.577h-.025v9.577zM77.64 25.79c0 1.276-.35 2.281-1.051 3.016-.701.735-1.665 1.095-2.879 1.095-.826 0-1.565-.219-2.215-.67-.651-.438-1.152-1.07-1.502-1.869-.363-.799-.539-1.727-.539-2.758 0-1.546.388-2.797 1.177-3.738.776-.94 1.815-1.417 3.091-1.417.977 0 1.815.283 2.529.837.713.555 1.151 1.276 1.34 2.179h-.339a3.329 3.329 0 00-1.251-1.947c-.639-.49-1.402-.734-2.279-.734-1.176 0-2.127.438-2.84 1.327-.714.89-1.065 2.05-1.065 3.506 0 1.47.363 2.668 1.09 3.583.725.915 1.664 1.38 2.828 1.38 1.114 0 1.99-.336 2.629-1.006.638-.67.963-1.598.963-2.758v-.71h-3.63v-.321h3.968v1.005h-.025zM85 29.438v.335h-5.657v-10.17h5.658v.336h-5.307v4.459h5.069v.322h-5.07v4.73h5.308v-.012z" fill="#fff"/><path d="M28.9 21.936l-.125-.721 1.49-2.797-1.44-2.372.564-1.456-1.377-1.096-.188-2.964-2.704-1.25-.5-1.199-.801-.27-1.19-1.947-2.515.116-2.128-1.946-1.94.683-.626-.348-1.54.774-2.966-.658-1.189 1.29-.814-.117-1.164 1.843-3.304 1.07-.701 3.055-.588.45-.038.684-.3.296.025.413-2.003 2.255.876 2.384L.988 19.5l.764 1.392-.513 2.333 2.002 2.101.226 1.843 1.289.657.901 2.823 3.042.541 1.026 1.366 1.464-.051 1.79 1.353 2.316-.902L17.885 34 19 33.02l1.001.207 1.64-1.882 2.929-.36.763-1.973.551-.245.5-1.662 2.642-1.818-.326-3.028.2-.323z" fill="#727376"/><path d="M25.796 24.72l-.65 1.34 1.301-2.938-.65 1.598z" fill="#898A8D"/><path d="M21.19 30.52l-.914.374 2.604-1.959-1.69 1.585z" fill="#A0A1A3"/><path d="M28.174 16.871l-1.101-3.557 1.001 1.882.1 1.675z" fill="#8D8E91"/><path d="M9.124 30.61l-.964-.554 3.192 1.173-2.228-.619z" fill="#6C6E70"/><path d="M28.9 21.937l-.95 1.43.675-3.196.276 1.766z" fill="#F2F2F2"/><path d="M2.84 14.513l-.024-1.457 1.59-1.598-1.565 3.055z" fill="#E5E5E5"/><path d="M22.442 30.288l2.078-1.185 1.364-.335-3.442 1.52z" fill="#A0A0A0"/><path d="M25.884 28.767l-1.364.335 2.053-2.616-.689 2.281z" fill="#CCC"/><path d="M22.943 7.656l1.677.425.801 1.92-2.478-2.345z" fill="#D8D8D8"/><path d="M21.09 6.882l3.53 1.199-1.678-.425-1.852-.774z" fill="#F2F2F2"/><path d="M3.367 24.862l1.977 3.248-1.877-.941-.1-2.307z" fill="#999"/><path d="M3.366 24.862l.1 2.307-.526-4.124.426 1.817z" fill="#A5A5A5"/><path d="M20.002 33.227l-3.505-.748 2.253.103 1.252.645z" fill="#BFBFBF"/><path d="M20.002 33.227l-1.252-.644 3.067-1.431-1.815 2.075z" fill="#D8D8D8"/><path d="M2.178 21.15l.764 1.895L.989 19.5l1.19 1.65z" fill="#BFBFBF"/><path d="M1.903 17.709l.275 3.441L.99 19.5l.914-1.791z" fill="#D8D8D8"/><path d="M16.496 32.479l-3.517 1.38 2.378-1.058 1.14-.322z" fill="#CCC"/><path d="M17.986 4.034l3.104 2.849-1.227-.89-1.877-1.959zm12.279 14.384L28.613 16.6l-.526-1.753 2.178 3.57z" fill="#E5E5E5"/><path d="M28.613 16.6l-1.052-3.48.526 1.728.526 1.752z" fill="#808183"/><path d="M28.087 14.848l-.526-1.727.263-2.59.263 4.317z" fill="#D8D8D8"/><path d="M12.98 33.858l-1.315-1.688 3.693.631-2.379 1.057zm-.001 0l-3.28-2.487 1.966.799 1.314 1.688z" fill="#999"/><path d="M10.313 6.11l-1.99 1.21 2.59-2.835-.6 1.624zm.601-1.625l3.53.787-1.115.128-2.415-.915z" fill="#F2F2F2"/><path d="M10.314 6.11l.6-1.625 2.416.915-3.016.71z" fill="#E5E5E5"/><path d="M16.56 5.259l1.426-1.225 1.877 1.96-3.304-.735z" fill="#F2F2F2"/><path d="M14.444 5.271l2.115-.013-3.23.142 1.115-.129z" fill="#9C9EA0"/><path d="M14.444 5.271l3.542-1.237-1.427 1.225-2.115.012z" fill="#E5E5E5"/><path d="M7.384 8.056l.939-.735 1.99-1.212-2.929 1.947z" fill="#B9B9BA"/><path d="M7.384 8.055l-2.942.516 3.88-1.25-.938.734z" fill="#E5E5E5"/><path d="M30.265 18.418l-1.703 1.276.05-3.093 1.653 1.817z" fill="#F2F2F2"/><path d="M28.613 21.55l-.05-1.857 1.702-1.276-1.652 3.132z" fill="#E5E5E5"/><path d="M18.75 32.583l2.015-1.135 1.052-.296-3.067 1.43z" fill="#BFBFBF"/><path d="M2.115 19.256l.062 1.894-.275-3.441.213 1.547z" fill="#A5A5A5"/><path d="M9.7 31.37l-1.414-.773 3.38 1.573-1.966-.8z" fill="#6E6F72"/><path d="M9.7 31.37l-4.043-.721 2.628-.052 1.415.773z" fill="#999"/><path d="M4.693 11.058l-.25-2.487 2.94-.516-2.69 3.003z" fill="#F2F2F2"/><path d="M4.693 11.058l-1.226 1.689.976-4.176.25 2.487zM24.57 9.035l3.254 1.495-2.053.322-1.201-1.817z" fill="#E5E5E5"/><path d="M25.771 10.852l2.053-.322-.263 2.59-1.79-2.268z" fill="#F2F2F2"/><path d="M11.665 32.17l2.216.232 1.476.4-3.692-.632z" fill="#CCC"/><path d="M29.026 25.288l-1.189-2.926.776-.812.413 3.738z" fill="#D8D8D8"/><path d="M27.837 22.362l.726-2.668.05 1.856-.776.812z" fill="#CCC"/><path d="M3.054 14.255l.413-1.508 1.227-1.688-1.64 3.196z" fill="#B9BABA"/><path d="M3.054 14.255l-2.216 1.47 2.629-2.978-.413 1.508z" fill="#F2F2F2"/><path d="M16.56 5.258l3.303.735-1.113.18-2.19-.915z" fill="#CCC"/><path d="M18.75 6.174l1.114-.18 2.766-.13-3.88.31z" fill="#F2F2F2"/><path d="M10.314 6.11l3.016-.71-.913.735-2.103-.026z" fill="#CCC"/><path d="M4.693 11.058l2.69-3.003-.875 1.43-1.815 1.573z" fill="#E5E5E5"/><path d="M5.882 27.8l2.403 2.798-2.628.051.225-2.848z" fill="#A5A5A5"/><path d="M5.882 27.8l-.225 2.85-1.315-4.151 1.54 1.302z" fill="#B2B2B2"/><path d="M29.026 25.288l-2.503-.22 1.314-2.706 1.19 2.926z" fill="#E5E5E5"/><path d="M25.947 27.414l.576-2.346 2.503.22-3.08 2.126z" fill="#F2F2F2"/><path d="M28.613 16.6l-.689.58 1.465-2.59-.776 2.01z" fill="#CCC"/><path d="M28.563 19.694l-.639-2.513.689-.58-.05 3.093z" fill="#D8D8D8"/><path d="M26.823 13.559l.738-.438 1.828 1.469-2.566-1.031z" fill="#E5E5E5"/><path d="M26.823 13.559l2.566 1.03-1.465 2.591-1.101-3.621z" fill="#F2F2F2"/><path d="M25.771 10.852l1.79 2.268-.738.439-1.052-2.707z" fill="#CCC"/><path d="M3.054 14.255l-.276 3.093-1.94-1.624 2.216-1.47z" fill="#D8D8D8"/><path d="M2.778 17.348l-.663 1.908-1.277-3.532 1.94 1.624z" fill="#B2B2B2"/><path d="M24.57 9.035l1.201 1.817-2.102-1.56.9-.257z" fill="#CCC"/><path d="M22.63 5.864l1.94 3.17-.901.259-1.04-3.429z" fill="#E5E5E5"/><path d="M12.416 6.135l.914-.735 2.09-1.03-3.004 1.765zM24.57 30.984l.1-3.557 1.276-.013-1.377 3.57z" fill="#D8D8D8"/><path d="M24.67 27.427l1.852-2.359-.576 2.346-1.276.013z" fill="#E5E5E5"/><path d="M17.886 34l-4.006-1.598 2.454-.542L17.886 34z" fill="#A5A5A5"/><path d="M17.885 34l-1.552-2.14 3.28-.915L17.885 34z" fill="#CCC"/><path d="M17.886 34l1.727-3.055 1.152.503L17.885 34z" fill="#E5E5E5"/><path d="M20.765 31.448l1.489-2.01 2.316 1.546-3.805.464z" fill="#CCC"/><path d="M24.57 30.984l-2.316-1.547 2.416-2.01-.1 3.557z" fill="#E5E5E5"/><path d="M19.613 30.945l2.641-1.508-1.49 2.011-1.15-.503z" fill="#D8D8D8"/><path d="M4.118 24.27l.225 2.229-3.104-3.274 2.879 1.044z" fill="#B2B2B2"/><path d="M5.882 27.8l-1.54-1.3-.225-2.23 1.765 3.532zm-2.791-7.14l1.027 3.61-2.88-1.044 1.853-2.565z" fill="#999"/><path d="M3.092 20.66l-.977-1.404.664-1.908.313 3.313z" fill="#D8D8D8"/><path d="M3.091 20.66L1.24 23.225l.876-3.97.976 1.405zM20.953 8.055l1.677-2.19 1.039 3.428-2.716-1.238z" fill="#F2F2F2"/><path d="M18.75 6.174l3.88-.31-1.677 2.191-2.203-1.881z" fill="#E5E5E5"/><path d="M8.999 8.545l-2.49.941L8.91 5.658 9 8.545z" fill="#D8D8D8"/><path d="M13.88 32.402l-4.155.155 3.03-1.302 1.126 1.147z" fill="#A5A5A5"/><path d="M13.88 32.402l-1.126-1.147 3.58.606-2.453.541zm-5.808-3.647l.213 1.843L5.882 27.8l2.19.954z" fill="#999"/><path d="M8.073 28.754l1.652 3.802-1.44-1.958-.212-1.844z" fill="#BFBFBF"/><path d="M9 8.545l-.088-2.887 3.154 1.753-3.067 1.134z" fill="#E5E5E5"/><path d="M8.912 5.658l3.504.477-.35 1.276-3.154-1.753zm-5.758 6.419l.914 3.505-1.014-1.327.1-2.178z" fill="#D8D8D8"/><path d="M4.067 15.582l-1.289 1.766.275-3.093 1.014 1.327z" fill="#BFBFBF"/><path d="M18.75 6.174l2.203 1.882-2.941-.606.738-1.276z" fill="#CCC"/><path d="M15.42 4.37l3.33 1.804-.74 1.275-2.59-3.08z" fill="#D8D8D8"/><path d="M6.433 11.445l.075-1.96L9 8.546l-2.566 2.9z" fill="#F2F2F2"/><path d="M6.433 11.445l-3.279.631 3.355-2.59-.076 1.959z" fill="#D8D8D8"/><path d="M12.416 6.135l3.004-1.766-.5 2.9-2.504-1.134z" fill="#F2F2F2"/><path d="M14.92 7.27l.5-2.9 2.59 3.08-3.09-.18zm-2.503-1.135l2.503 1.134-2.854.142.35-1.276zm14.406 7.424l1.102 3.621-1.79-1.405.688-2.216z" fill="#E5E5E5"/><path d="M26.135 15.775l1.79 1.405.788 2.604-2.578-4.009z" fill="#CCC"/><path d="M26.522 25.068l-.225-2.925 1.54.219-1.315 2.706z" fill="#D8D8D8"/><path d="M27.837 22.361l-1.54-.219 2.416-2.358-.877 2.577z" fill="#F2F2F2"/><path d="M23.669 9.292l2.102 1.56.276.27-2.378-1.83z" fill="#E5E5E5"/><path d="M26.047 11.123l.776 2.436-.689 2.217-.087-4.653z" fill="#D8D8D8"/><path d="M10.601 29.167l-.876 3.39-1.652-3.803 2.528.413z" fill="#A5A5A5"/><path d="M10.601 29.167l2.153 2.088-3.029 1.302.876-3.39z" fill="#BFBFBF"/><path d="M20.953 8.055l2.716 1.237-.977 1.315-1.74-2.552z" fill="#E5E5E5"/><path d="M22.692 10.607l.976-1.315 2.378 1.83-3.354-.515z" fill="#F2F2F2"/><path d="M16.333 31.86l1.29-1.868 1.99.953-3.28.915z" fill="#D8D8D8"/><path d="M16.334 31.86l-1.227.426 2.516-2.294-1.29 1.868z" fill="#E5E5E5"/><path d="M4.994 22.104l-.876 2.165-1.027-3.608 1.903 1.443z" fill="#BFBFBF"/><path d="M5.908 14.37l-1.84 1.212-.914-3.505 2.754 2.294z" fill="#CCC"/><path d="M6.433 11.445l-.525 2.926-2.754-2.294 3.28-.632z" fill="#E5E5E5"/><path d="M22.254 29.437l.376-2.693 2.04.683-2.416 2.01z" fill="#D8D8D8"/><path d="M26.134 15.775l2.578 4.009-3.542-1.534.964-2.475z" fill="#F2F2F2"/><path d="M25.17 18.25l3.542 1.534-2.415 2.359-1.127-3.893zM9 8.545l3.066-1.134-.813 2.281L9 8.545z" fill="#D8D8D8"/><path d="M26.134 15.775l-.964 2.475-1.251-4.137 2.215 1.662z" fill="#CCC"/><path d="M26.047 11.123l.087 4.653-2.215-1.663 2.128-2.99z" fill="#F2F2F2"/><path d="M22.692 10.607l3.354.516-2.127 2.99-1.227-3.506z" fill="#D8D8D8"/><path d="M5.12 26.421l2.953 2.333-2.19-.954-.764-1.379zm-.126-4.317l.125 4.318-1.002-2.153.877-2.165z" fill="#A5A5A5"/><path d="M13.918 29.347l1.19 2.939-2.354-1.031 1.164-1.908z" fill="#B2B2B2"/><path d="M13.918 29.347l-1.164 1.908-2.153-2.088 3.317.18z" fill="#999"/><path d="M13.918 29.347l3.705.645-2.516 2.294-1.189-2.939z" fill="#D8D8D8"/><path d="M2.991 18.482l2.003 3.622-1.903-1.443-.1-2.179z" fill="#B2B2B2"/><path d="M4.067 15.582l-1.076 2.9-.213-1.134 1.29-1.766z" fill="#F2F2F2"/><path d="M2.99 18.482l.1 2.178-.312-3.312.213 1.134z" fill="#A5A5A5"/><path d="M7.785 9.292L9 8.545l2.253 1.147-3.467-.4z" fill="#E5E5E5"/><path d="M24.67 27.427l-2.04-.683 3.104-1.547-1.064 2.23zm1.853-2.359l-.789.13.563-3.055.226 2.925z" fill="#CCC"/><path d="M24.67 27.427l1.063-2.23.789-.129-1.852 2.359zM14.92 7.269l3.09.18-.963 1.805-2.128-1.985z" fill="#D8D8D8"/><path d="M9.162 26.576l-1.089 2.178-2.954-2.333 4.043.155z" fill="#BFBFBF"/><path d="M10.601 29.167l-2.528-.413 1.089-2.178 1.439 2.59z" fill="#999"/><path d="M8.598 12.695l-2.691 1.676.526-2.926 2.165 1.25zm-.813-3.403l3.467.4L8.6 12.695l-.814-3.403z" fill="#D8D8D8"/><path d="M7.785 9.292l.814 3.403-2.166-1.25 1.352-2.153z" fill="#E5E5E5"/><path d="M19.613 30.945l-1.99-.954 3.217-.309-1.227 1.263zm2.641-1.508l-1.415.245 1.79-2.938-.375 2.693z" fill="#BFBFBF"/><path d="M19.613 30.945l1.227-1.263 1.414-.244-2.64 1.508z" fill="#E5E5E5"/><path d="M6.345 17.09l-2.278-1.508 1.84-1.211.438 2.72z" fill="#BFBFBF"/><path d="M6.346 17.09L2.99 18.482l1.077-2.9 2.278 1.508z" fill="#E5E5E5"/><path d="M17.047 9.254l.964-1.804 2.578 1.289-3.542.515z" fill="#F2F2F2"/><path d="M18.012 7.45l2.941.605-.363.684-2.578-1.29z" fill="#D8D8D8"/><path d="M20.59 8.738l.362-.683 1.74 2.552-2.103-1.869z" fill="#CCC"/><path d="M25.17 18.25l1.127 3.893-2.729-1.302 1.603-2.59z" fill="#E5E5E5"/><path d="M23.569 20.84l2.728 1.303-.563 3.054-2.166-4.356z" fill="#F2F2F2"/><path d="M7.81 23.509l-2.69 2.913-.126-4.318 2.816 1.405z" fill="#BFBFBF"/><path d="M7.81 23.509l1.352 3.067-4.043-.154 2.691-2.913z" fill="#A5A5A5"/><path d="M22.692 10.607l1.227 3.506-2.841-1.186 1.614-2.32z" fill="#E5E5E5"/><path d="M20.59 8.738l2.102 1.87-1.615 2.32-.488-4.19z" fill="#F2F2F2"/><path d="M16.56 27.543l4.28 2.14-3.217.309-1.064-2.449z" fill="#A5A5A5"/><path d="M16.56 27.543l1.063 2.449-3.705-.645 2.641-1.804z" fill="#BFBFBF"/><path d="M7.81 23.51l-2.816-1.406 1.94-1.804.876 3.21z" fill="#999"/><path d="M6.346 17.09l.588 3.21-3.943-1.818 3.355-1.392z" fill="#B2B2B2"/><path d="M6.934 20.3l-1.94 1.804-2.003-3.622L6.934 20.3z" fill="#A5A5A5"/><path d="M14.043 8.068l.876-.799 2.128 1.985-3.004-1.186z" fill="#CCC"/><path d="M12.066 7.41l2.854-.141-.876.8-1.978-.658z" fill="#D8D8D8"/><path d="M11.253 9.692l.813-2.28 1.978.656-2.791 1.624z" fill="#F2F2F2"/><path d="M23.568 20.84l2.166 4.357-4.168-1.882 2.002-2.474z" fill="#E5E5E5"/><path d="M21.566 23.315l4.168 1.882-3.104 1.547-1.064-3.429z" fill="#CCC"/><path d="M19.138 25.674l3.492 1.07-1.79 2.939-1.702-4.009z" fill="#CCC"/><path d="M19.137 25.674l1.703 4.009-4.28-2.14 2.578-1.869z" fill="#B2B2B2"/><path d="M21.566 23.315l1.064 3.429-3.492-1.07 2.428-2.359z" fill="#BFBFBF"/><path d="M11.253 9.692l2.79-1.624-2.315 4.267-.475-2.643z" fill="#E5E5E5"/><path d="M11.253 9.692l.475 2.643-3.129.36 2.654-3.003z" fill="#CCC"/><path d="M17.047 9.254l3.542-.516L18 12.141l-.952-2.887z" fill="#D8D8D8"/><path d="M20.59 8.738l.488 4.19-3.08-.787 2.591-3.403z" fill="#E5E5E5"/><path d="M14.043 8.068l.713 3.79-3.029.476 2.316-4.266z" fill="#BFBFBF"/><path d="M14.043 8.068l3.004 1.186-2.29 2.604-.714-3.79z" fill="#E5E5E5"/><path d="M17.047 9.254L18 12.14l-3.242-.284 2.29-2.603z" fill="#CCC"/><path d="M11.127 24.398l-1.965 2.178L7.81 23.51l3.317.89z" fill="#999"/><path d="M19.138 25.674l-2.579 1.869-1.552-2.642 4.13.773z" fill="#A5A5A5"/><path d="M9.25 18.302L6.934 20.3l-.588-3.21 2.904 1.212z" fill="#999"/><path d="M12.078 28.007l1.84 1.34-3.317-.18 1.477-1.16zm-.951-3.609l3.88.503-2.928 3.106-.952-3.61z" fill="#BFBFBF"/><path d="M15.006 24.9l1.552 2.643-4.48.464 2.928-3.106z" fill="#999"/><path d="M12.078 28.007l4.48-.464-2.64 1.804-1.84-1.34z" fill="#B2B2B2"/><path d="M11.127 24.398l.951 3.609-2.916-1.43 1.965-2.18z" fill="#A5A5A5"/><path d="M12.078 28.007l-1.477 1.16-1.44-2.59 2.917 1.43z" fill="#B2B2B2"/><path d="M23.569 20.841l-2.003 2.475-1.502-3.918 3.505 1.443z" fill="#CCC"/><path d="M14.756 11.857l-2.929 3.377-.1-2.9 3.03-.477z" fill="#B2B2B2"/><path d="M21.078 12.927l-2.304 2.643-.776-3.429 3.08.786z" fill="#D8D8D8"/><path d="M23.919 14.113l1.251 4.137-2.065-1.92.814-2.217zm-2.841-1.186l2.027 3.403-4.33-.76 2.303-2.643z" fill="#E5E5E5"/><path d="M21.078 12.927l2.841 1.186-.813 2.217-2.028-3.403z" fill="#D8D8D8"/><path d="M23.106 16.33l.463 4.511-3.505-1.444 3.042-3.067z" fill="#F2F2F2"/><path d="M23.105 16.33l2.065 1.92-1.602 2.591-.463-4.51zm-4.331-.76l4.331.76-3.041 3.067-1.29-3.828z" fill="#D8D8D8"/><path d="M7.935 15.041l3.893.193-2.579 3.068-1.314-3.261z" fill="#BFBFBF"/><path d="M11.727 12.335l.1 2.9-3.892-.194 3.792-2.707z" fill="#D8D8D8"/><path d="M7.936 15.041l1.314 3.26-2.904-1.21 1.59-2.05z" fill="#A5A5A5"/><path d="M7.935 15.04l-1.59 2.05-.438-2.72 2.028.67z" fill="#B2B2B2"/><path d="M8.598 12.695l-.663 2.346-2.028-.67 2.691-1.676z" fill="#F2F2F2"/><path d="M8.598 12.695l3.13-.36-3.793 2.706.663-2.346z" fill="#E5E5E5"/><path d="M13.731 21.704l1.277 3.197-3.88-.503 2.603-2.694z" fill="#A5A5A5"/><path d="M11.828 15.234l.776 3.235-3.355-.167 2.579-3.068zm4.468 3.313l-2.566 3.157-1.126-3.235 3.692.078z" fill="#999"/><path d="M18.775 15.57l1.289 3.827-3.768-.85 2.479-2.978z" fill="#CCC"/><path d="M9.474 21.807l4.256-.103-2.604 2.694-1.652-2.59z" fill="#BFBFBF"/><path d="M9.474 21.808l1.653 2.59-3.317-.89 1.664-1.7zm-.224-3.506l.225 3.505L6.934 20.3l2.316-1.997z" fill="#A5A5A5"/><path d="M9.475 21.808L7.81 23.509l-.876-3.21 2.54 1.509z" fill="#BFBFBF"/><path d="M12.603 18.47l1.127 3.234-4.256.103 3.13-3.338z" fill="#A5A5A5"/><path d="M9.25 18.302l3.354.167-3.13 3.338-.225-3.505z" fill="#B2B2B2"/><path d="M15.082 14.422l3.692 1.147-2.478 2.978-1.214-4.125z" fill="#D8D8D8"/><path d="M17.998 12.141l.776 3.428-3.692-1.147 2.916-2.28z" fill="#F2F2F2"/><path d="M14.757 11.857l3.242.284-2.917 2.281-.325-2.565z" fill="#BFBFBF"/><path d="M15.082 14.422l1.214 4.125-3.692-.078 2.478-4.047z" fill="#A5A5A5"/><path d="M14.756 11.857l.326 2.565-3.255.812 2.93-3.377z" fill="#F2F2F2"/><path d="M11.827 15.234l3.255-.812-2.479 4.047-.776-3.235z" fill="#B2B2B2"/><path d="M20.064 19.398l1.502 3.918-3.68-.658 2.178-3.26z" fill="#F2F2F2"/><path d="M17.886 22.658l3.68.657-2.428 2.36-1.252-3.017z" fill="#D8D8D8"/><path d="M16.297 18.547l1.59 4.111-4.156-.953 2.566-3.158z" fill="#B2B2B2"/><path d="M16.296 18.547l3.768.85-2.178 3.261-1.59-4.111z" fill="#D8D8D8"/><path d="M17.886 22.658l1.252 3.016-4.13-.773 2.878-2.243z" fill="#BFBFBF"/><path d="M13.73 21.704l4.156.954-2.878 2.242-1.277-3.196z" fill="#999"/><path d="M3.154 3.776l2.904 1.276 1.076 2.681-3.98-3.957z" fill="#727272"/><path d="M6.508 3.93l.626 3.803-1.076-2.68-1.002-2.27 1.452 1.148z" fill="#A5A5A5"/><path d="M1.026 2.784l2.128.992 2.904 1.276-1.001-2.268h-4.03z" fill="#8C8C8C"/><path d="M3.317 1.16l1.74 1.624h-4.03l2.29-1.624z" fill="#B2B2B2"/><path d="M0 1.16h3.317l-2.29 1.624L0 1.16z" fill="#BFBFBF"/><path d="M3.317 1.16l2.24.168L3.53 0 0 1.16h3.317z" fill="#8C8C8C"/><path d="M6.622 1.328H5.558L3.53 0l3.092 1.328z" fill="#A5A5A5"/><path d="M6.509 3.931l-.952-2.603-2.24-.168 1.74 1.624 1.452 1.147zM7.748 7.54L6.51 3.93l.626 3.802.613-.193z" fill="#727272"/><path d="M6.621 1.328L7.748 7.54l-1.24-3.61-.95-2.603H6.62z" fill="#8C8C8C"/></svg>