<svg width="25" height="25" fill="none" xmlns="http://www.w3.org/2000/svg"><path d="M.374 17.47l6.91 6.91a1.28 1.28 0 001.796.011L.363 15.674a1.28 1.28 0 00.01 1.796zM15.502 7.12l-8.38 8.381 2.132 2.132 8.38-8.38-2.132-2.133zM.913 12.69l-.067.067a1.653 1.653 0 000 2.336l.222.222h-.002L9.44 23.69v-.002l.223.222a1.653 1.653 0 002.335 0l.068-.068a1.653 1.653 0 000-2.335L3.25 12.69a1.654 1.654 0 00-2.336 0zM12.758.844l-.067.068a1.653 1.653 0 000 2.336l8.816 8.816a1.653 1.653 0 002.336 0l.067-.068a1.654 1.654 0 000-2.335L15.095.844a1.653 1.653 0 00-2.335 0zm2.914-.479l8.719 8.716a1.28 1.28 0 00-.01-1.797L17.47.374a1.28 1.28 0 00-1.799-.009zM2.256 22.499a1.87 1.87 0 001.747.498l.53-.12-2.655-2.655-.12.53c-.146.637.04 1.29.498 1.747zM20.751 1.757l-.53.12 2.655 2.655.12-.53a1.869 1.869 0 00-2.245-2.245z"/></svg>