<svg width="24" height="18" fill="none" xmlns="http://www.w3.org/2000/svg"><path clip-rule="evenodd" d="M.98.679c.155-.1.304-.209.462-.3A2.769 2.769 0 012.857.003h8.364c.035 0 .072.007.072.007v4.764c-1.235.173-2.27.786-3.005 1.862-.54.79-.76 1.675-.707 2.632.103 1.813 1.481 3.63 3.715 3.942v4.762a6.163 6.163 0 01-.236.005c-2.655.001-5.31-.003-7.966.004-.746.002-1.437-.137-2.017-.64-.025-.022-.064-.027-.096-.039l-.3-.3C-.25 15.887.065 14.555.006 13.24l3.709.025V4.701l-3.658.002C.045 4.014.02 3.328.027 2.643c.005-.476.17-.915.423-1.317.075-.118.155-.232.232-.348l.299-.3zm22.017.299c.073.108.15.214.219.324.249.394.425.823.431 1.29.01.695-.02 1.392-.034 2.084l-3.668-.004v8.56l3.753-.011c-.032.876.013 1.704-.11 2.506-.19 1.237-1.292 2.15-2.545 2.24-.15.01-.3.012-.45.012h-7.942c-.096.001-.193.017-.249.021v-4.795c1.24-.176 2.291-.807 3.028-1.92.528-.8.736-1.691.663-2.646a4.266 4.266 0 00-3.7-3.867L12.39.01c.038 0 .13-.005.224-.006 2.674 0 5.347.002 8.021-.004.729-.001 1.4.153 1.965.64.025.02.064.026.097.039l.3.299z"/><path clip-rule="evenodd" d="M23.6 12.274h-2.725V5.709l2.729.005a45700.5 45700.5 0 00-.004 6.561zM12.352 5.756c1.56.166 2.845 1.717 2.792 3.338-.056 1.711-1.486 3.014-2.792 3.12V5.755zm-1.036.011l.002 6.442c-1.246-.075-2.738-1.377-2.784-3.132-.047-1.762 1.376-3.175 2.782-3.31zm-8.504-.051l-.003 6.537-2.752-.002V5.71l2.755.005z"/></svg>