<svg width="17" height="23" fill="none" xmlns="http://www.w3.org/2000/svg"><path d="M4.304 0c-.167 0-.301.117-.301.261v.933h-2.07c-.344 0-.62.257-.62.577v12.542c0 1.77 2.747 3.197 6.16 3.197h2.054c3.413 0 6.16-1.426 6.16-3.197V1.77c0-.32-.277-.577-.621-.577h-2.07V.26c0-.144-.134-.261-.3-.261H4.304zm1.755.95a.448.448 0 01.446.443.44.44 0 01-.276.41.45.45 0 01-.486-.097.441.441 0 01.316-.755zm4.882 0a.448.448 0 01.446.443.44.44 0 01-.276.41.45.45 0 01-.486-.097.441.441 0 01.316-.755zM2.885 2.815H14.11c.203 0 .365.149.365.334l.004 4.928v1.616c0 1.578-2.666 2.85-5.978 2.85s-5.978-1.271-5.978-2.85V8.076c.019-1.97-.004-2.993-.004-4.928 0-.185.163-.334.365-.334zM.48 3.834a.49.49 0 00-.48.491v2.948a.481.481 0 00.3.454.491.491 0 00.641-.267.481.481 0 00.035-.187V4.325a.481.481 0 00-.305-.456.492.492 0 00-.19-.035zm16.024 0a.49.49 0 00-.481.491v2.948a.48.48 0 00.3.454.492.492 0 00.64-.267.482.482 0 00.036-.187V4.325a.484.484 0 00-.495-.491zM5.867 14.397h5.266c.15 0 .27.112.27.251v.219c0 .139-.12.25-.27.25H5.867c-.15 0-.27-.111-.27-.25v-.219c0-.139.12-.25.27-.25zm7.654 2.739a.492.492 0 00-.41.21.482.482 0 00-.051.455l.296.761H3.633l.297-.76a.481.481 0 00-.239-.617.491.491 0 00-.672.267l-1.9 4.873a.481.481 0 00.276.634.492.492 0 00.634-.284l.281-.722h12.37l.282.722a.485.485 0 00.446.325.492.492 0 00.465-.296.48.48 0 000-.378l-1.902-4.874a.485.485 0 00-.45-.316zM3.254 19.53h10.48l.567 1.453H2.687l.567-1.453z"/></svg>